<svg width="59" height="51" viewBox="0 0 59 51" fill="none" xmlns="http://www.w3.org/2000/svg">
<path d="M55.634 0.0808105H3.24399C1.45488 0.0808105 0 1.53884 0 3.33181V47.5465C0 49.3378 1.45488 50.7975 3.24399 50.7975H55.634C57.4231 50.7975 58.878 49.3378 58.878 47.5465V3.33181C58.878 1.53884 57.4231 0.0808105 55.634 0.0808105ZM23.0326 5.12001C23.0326 4.13662 23.8349 3.33181 24.8162 3.33181H33.8995C34.8808 3.33181 35.6838 4.13662 35.6838 5.12001V6.42009C35.6838 7.40349 34.8808 8.2083 33.8995 8.2083H24.8162C23.8349 8.2083 23.0326 7.40349 23.0326 6.42009V5.12001ZM16.7062 45.5948C16.7062 46.5782 15.9039 47.383 14.9227 47.383H6.32561C5.34434 47.383 4.54126 46.5782 4.54126 45.5948V44.2955C4.54126 43.3113 5.34434 42.5065 6.32561 42.5065H14.9227C15.9039 42.5065 16.7062 43.3113 16.7062 44.2955V45.5948ZM16.7062 6.42009C16.7062 7.40349 15.9039 8.2083 14.9227 8.2083H6.32561C5.34434 8.2083 4.54126 7.40349 4.54126 6.42009V5.12001C4.54126 4.13662 5.34434 3.33181 6.32561 3.33181H14.9227C15.9039 3.33181 16.7062 4.13662 16.7062 5.12001V6.42009ZM35.6838 45.5948C35.6838 46.5782 34.8808 47.383 33.8995 47.383H24.8162C23.8349 47.383 23.0326 46.5782 23.0326 45.5948V44.2955C23.0326 43.3113 23.8349 42.5065 24.8162 42.5065H33.8995C34.8808 42.5065 35.6838 43.3113 35.6838 44.2955V45.5948ZM30.1106 37.1363C23.6417 37.1363 18.3971 31.8812 18.3971 25.3991C18.3971 18.9153 23.6417 13.6594 30.1106 13.6594C36.5796 13.6594 41.8233 18.9153 41.8233 25.3991C41.8233 31.8812 36.5796 37.1363 30.1106 37.1363ZM54.4991 45.5948C54.4991 46.5782 53.696 47.383 52.7148 47.383H43.4691C42.4878 47.383 41.6855 46.5782 41.6855 45.5948V44.2955C41.6855 43.3113 42.4878 42.5065 43.4691 42.5065H52.7148C53.696 42.5065 54.4991 43.3113 54.4991 44.2955V45.5948ZM54.4991 6.42009C54.4991 7.40349 53.696 8.2083 52.7148 8.2083H43.4691C42.4878 8.2083 41.6855 7.40349 41.6855 6.42009V5.12001C41.6855 4.13662 42.4878 3.33181 43.4691 3.33181H52.7148C53.696 3.33181 54.4991 4.13662 54.4991 5.12001V6.42009Z" fill="#FA6900"/>
<path d="M37.0345 24.4759L27.164 17.6651C26.4298 17.1572 25.7891 17.4747 25.7891 18.3676V32.428C25.7891 33.3233 26.4298 33.6384 27.164 33.1304L37.025 26.322C37.7592 25.8141 37.7695 24.9823 37.0345 24.4759Z" fill="#FA6900"/>
</svg>
