<svg width="57" height="73" viewBox="0 0 57 73" fill="none" xmlns="http://www.w3.org/2000/svg">
<path d="M30.7397 51.0352L14.0405 51.043C14.0405 51.043 14.04 51.043 14.0394 51.043C12.489 51.043 11.2321 49.7676 11.2315 48.1931C11.2304 46.618 12.4874 45.3404 14.0378 45.3398L30.737 45.332H30.7381C32.2885 45.332 33.5454 46.6075 33.546 48.1819C33.5471 49.757 32.2906 51.0341 30.7397 51.0352ZM26.9463 55.7402L14.0378 55.748C12.4868 55.7492 11.2304 57.0268 11.2315 58.6013C11.2326 60.1758 12.4896 61.4512 14.0394 61.4512H14.0411L26.9496 61.4434C28.5006 61.4423 29.757 60.1646 29.7559 58.5901C29.7548 57.0157 28.4978 55.7402 26.948 55.7402C26.9474 55.7402 26.9469 55.7402 26.9463 55.7402ZM56.1659 55.21L39.4634 72.1568C39.4628 72.1568 39.4628 72.1568 39.4628 72.1573L39.4617 72.1579C39.4584 72.1618 39.454 72.1651 39.4502 72.169C39.3888 72.2303 39.3252 72.2893 39.2588 72.3445C39.2418 72.359 39.2237 72.3707 39.2062 72.3846C39.1513 72.428 39.0959 72.4715 39.0378 72.511C39.0224 72.5216 39.006 72.5299 38.9901 72.5405C38.9287 72.5806 38.8667 72.6196 38.802 72.6547C38.791 72.6603 38.78 72.6653 38.7696 72.6708C38.6989 72.7076 38.627 72.7432 38.553 72.7744C38.547 72.7772 38.5409 72.7789 38.5349 72.7811C38.4565 72.8134 38.3769 72.8429 38.2952 72.8686C38.2887 72.8702 38.2821 72.8713 38.276 72.8736C38.1949 72.8975 38.1132 72.9192 38.0298 72.936C38.0112 72.9398 37.992 72.9415 37.9728 72.9449C37.902 72.9577 37.8307 72.9699 37.7578 72.9777C37.6651 72.9872 37.5719 72.9922 37.4781 72.9922L11.2326 73C5.03828 73 0 67.8833 0 61.5938V11.4062C0 5.11666 5.03828 0 11.2315 0H45.7531C51.9458 0 56.9847 5.11666 56.9847 11.4062L56.9879 38.9233C56.9879 40.4983 55.731 41.7754 54.1801 41.7754C52.6291 41.7754 51.3722 40.4989 51.3722 38.9244L51.3689 11.4068C51.3689 8.26173 48.8495 5.70312 45.7531 5.70312H11.2315C8.13518 5.70312 5.61576 8.26173 5.61576 11.4062V61.5938C5.61576 64.7383 8.13518 67.2969 11.2315 67.2969L34.6697 67.2896V60.3183C34.6697 54.8152 39.0784 50.3379 44.4973 50.3379H54.1828C54.276 50.3379 54.3693 50.3429 54.4625 50.3524C54.5025 50.3563 54.5409 50.3641 54.5804 50.3696C54.6314 50.3769 54.6824 50.383 54.7334 50.3936C54.7811 50.403 54.8272 50.4164 54.8744 50.4287C54.916 50.4392 54.9583 50.4482 54.9994 50.4615C55.0466 50.476 55.0921 50.4938 55.1381 50.5105C55.1782 50.525 55.2188 50.5384 55.2582 50.5551C55.3027 50.574 55.3454 50.5957 55.3882 50.6169C55.4283 50.6358 55.4683 50.6537 55.5067 50.6743C55.55 50.6982 55.5911 50.725 55.6334 50.7506C55.6696 50.7729 55.7063 50.7935 55.7419 50.818C55.7919 50.8514 55.8396 50.8893 55.8873 50.926C55.912 50.9455 55.9383 50.9628 55.9624 50.9834C56.1072 51.1037 56.2399 51.2385 56.3584 51.3855C56.3765 51.4083 56.3924 51.4328 56.4105 51.4562C56.4483 51.5069 56.4867 51.557 56.5212 51.6099C56.5426 51.6422 56.5607 51.6762 56.581 51.7096C56.609 51.7559 56.637 51.8015 56.6627 51.8494C56.6808 51.8845 56.6962 51.9202 56.7126 51.9552C56.7357 52.0043 56.7593 52.0527 56.7801 52.1028C56.7938 52.1368 56.8048 52.1713 56.8168 52.2053C56.8366 52.2588 56.8563 52.3117 56.8722 52.3663C56.8821 52.3991 56.8892 52.4325 56.8975 52.4654C56.9123 52.5228 56.9276 52.579 56.9386 52.6369C56.9452 52.672 56.949 52.7077 56.9545 52.7428C56.9633 52.799 56.9731 52.8553 56.9786 52.9126C56.9836 52.9628 56.9841 53.0123 56.9863 53.0625C56.9879 53.1048 56.9923 53.1466 56.9923 53.19C56.9923 53.2318 56.9879 53.2724 56.9863 53.3136C56.9841 53.3649 56.9836 53.4167 56.9786 53.4679C56.9731 53.5264 56.9627 53.5832 56.9539 53.6406C56.9485 53.6751 56.9452 53.7096 56.9386 53.7436C56.9271 53.8026 56.9117 53.8594 56.8969 53.9168C56.8881 53.9491 56.8815 53.982 56.8722 54.0143C56.8558 54.0694 56.8355 54.1229 56.8163 54.1763C56.8042 54.2103 56.7933 54.2443 56.7795 54.2783C56.7593 54.3284 56.7351 54.3768 56.7121 54.4259C56.6956 54.4609 56.6803 54.4966 56.6622 54.5311C56.637 54.5796 56.6084 54.6252 56.5805 54.6715C56.5607 54.7049 56.5421 54.7383 56.5212 54.7712C56.4856 54.8252 56.4461 54.8764 56.4072 54.9277C56.3902 54.9499 56.3754 54.9733 56.3578 54.9956C56.2969 55.0697 56.2328 55.1415 56.1659 55.21ZM40.2854 60.3183V63.2607L47.4006 56.041H44.4973C42.1747 56.041 40.2854 57.9602 40.2854 60.3183ZM37.3185 39.9219H19.4007C17.994 39.9219 16.6784 39.2864 15.7905 38.1781C14.8982 37.0647 14.5522 35.6195 14.8401 34.2121C15.6369 30.3151 18.0236 27.0676 21.2171 25.1082C20.1482 23.6234 19.5148 21.795 19.5148 19.8184C19.5148 14.8654 23.4826 10.8359 28.3596 10.8359C33.2367 10.8359 37.2044 14.8654 37.2044 19.8184C37.2044 21.795 36.571 23.6234 35.5016 25.1082C38.6956 27.0676 41.0817 30.3151 41.8791 34.2121C42.167 35.6195 41.8204 37.0647 40.9287 38.1781C40.0408 39.2864 38.7252 39.9219 37.3185 39.9219ZM25.1305 19.8184C25.1305 21.6268 26.5789 23.0977 28.3596 23.0977C30.1403 23.0977 31.5887 21.6268 31.5887 19.8184C31.5887 18.01 30.1403 16.5391 28.3596 16.5391C26.5789 16.5391 25.1305 18.01 25.1305 19.8184ZM36.0566 34.2188C34.9006 31.0191 31.8612 28.8008 28.4331 28.8008H28.2861C24.858 28.8008 21.8187 31.0191 20.6626 34.2188H36.0566Z" fill="#FA6900"/>
</svg>
