<svg width="67" height="59" viewBox="0 0 67 59" fill="none" xmlns="http://www.w3.org/2000/svg">
<path d="M33.515 51.9557L29.5656 54.5361C29.2559 54.7429 28.8465 54.7103 28.581 54.449L27.7956 53.7086C27.3531 53.2949 26.6562 53.3058 26.2247 53.7413C25.8043 54.1768 25.8154 54.8627 26.2579 55.2873L27.0433 56.0277C27.6186 56.5721 28.3709 56.8551 29.1231 56.8551C29.6984 56.8551 30.2847 56.6918 30.7936 56.3543L34.7429 53.7739C35.2518 53.4364 35.3956 52.7614 35.0527 52.2606C34.7097 51.7488 34.0128 51.6182 33.515 51.9557ZM66.7138 57.1927L64.5566 54.8409C64.1473 54.3945 63.4503 54.3619 62.9968 54.7647C62.5432 55.1676 62.51 55.8535 62.9193 56.2999L65.0765 58.6407C65.2978 58.8802 65.5965 59 65.8952 59C66.1607 59 66.4262 58.902 66.6364 58.7169C67.0899 58.325 67.1231 57.639 66.7138 57.1927ZM33.1831 11.9655C36.5793 11.9655 39.3339 9.28714 39.3339 5.9773C39.3339 2.66747 36.5904 0 33.1831 0C29.7758 0 27.0212 2.67835 27.0212 5.98819C27.0212 9.29803 29.7869 11.9655 33.1831 11.9655ZM61.8573 53.3275C61.2378 53.8393 60.4745 54.0897 59.7223 54.0897C58.7819 54.0897 57.8305 53.6977 57.1779 52.9247L37.6745 30.1151L31.3246 34.1871C29.9196 35.0908 29.278 36.7566 29.7316 38.3571C32.63 48.5805 32.63 48.7983 32.63 49.3753C32.63 51.1827 31.1476 52.6525 29.3112 52.6525C27.6407 52.6525 26.2468 51.4331 26.0256 49.8435C25.9371 49.4733 25.5056 47.7858 23.3374 40.1209C22.0984 35.7658 23.8573 31.1821 27.696 28.7215L29.1231 27.807C25.6384 29.4619 21.8218 30.8555 18.3924 31.4979C18.1822 31.5414 17.972 31.5632 17.7618 31.5632C17.6844 31.5632 17.6069 31.5523 17.5295 31.5414L11.5668 48.8745C11.5446 48.9507 11.5004 49.0052 11.4561 49.0814C11.2238 49.7346 10.726 50.3008 10.018 50.5948L3.56852 53.2078C3.2477 53.3384 2.91582 53.3929 2.58394 53.3929C1.56618 53.3929 0.603739 52.7941 0.194423 51.8142C-0.347644 50.5185 0.282924 49.0269 1.59937 48.4934L8.04887 45.8804C8.779 45.5865 9.57551 45.6518 10.2282 45.9893L15.4829 30.6486C14.9962 30.1914 14.6311 29.5925 14.4873 28.8957C14.1444 27.1211 15.317 25.4117 17.1313 25.0742C17.2308 25.0524 17.3304 25.0306 17.4299 25.0089L18.8681 20.8062C16.6888 19.6086 15.0736 17.4637 14.5205 14.9922C13.9452 12.401 14.5869 9.72264 16.2684 7.65399C18.2154 5.23694 22.0431 3.76712 25.3508 3.11386C25.0078 4.00664 24.8087 4.97564 24.8087 5.98819C24.8087 7.33825 25.1516 8.6121 25.749 9.73353C23.8131 10.2452 22.0099 11.0618 21.4678 11.726C20.9036 12.4228 20.9147 13.1305 21.0142 13.5986C21.158 14.2737 21.6005 14.8616 22.1647 15.1338C23.802 15.9504 24.4547 17.921 23.625 19.5324C23.1051 20.5449 22.1094 21.1764 21.0364 21.2962L19.9854 24.3447C26.269 22.4503 33.0503 18.411 34.411 16.6472C35.2186 15.602 35.7054 14.5894 35.8713 13.7075C38.4157 12.8583 40.418 10.855 41.2035 8.32903C41.823 9.29802 42.2544 10.3868 42.4646 11.5626C42.8075 13.6095 42.6195 16.8323 39.71 20.5994C39.4998 20.8716 39.2454 21.1546 38.9467 21.4486L62.2556 48.7221C63.4393 50.1048 63.2623 52.1626 61.8573 53.3275Z" fill="#FA6900"/>
</svg>
