<svg width="123" height="119" viewBox="0 0 123 119" fill="none" xmlns="http://www.w3.org/2000/svg">
<path d="M28.7437 22.6523L77.778 9.16278L75.1812 3.87279C73.4823 0.434282 69.3386 -0.98567 65.9269 0.726621L22.0309 22.6523H28.7437Z" fill="#00B6F0"/>
<path d="M92.9993 9.55257C92.3916 9.55257 91.7838 9.6361 91.1761 9.80315L44.4761 22.6523H101.812L99.6569 14.6895C98.8282 11.5851 96.0381 9.55257 92.9993 9.55257Z" fill="#00B6F0"/>
<path d="M109.008 27.5247H6.92004C4.73768 27.5247 2.79012 28.5409 1.51937 30.1418C0.939248 30.8796 0.497249 31.7288 0.248624 32.6615C0.0966873 33.2462 0 33.8587 0 34.4852V112.039C0 115.882 3.09399 119 6.90623 119H108.994C112.806 119 115.9 115.882 115.9 112.039V92.6196H74.9188C68.4408 92.6196 63.1782 87.3157 63.1782 80.7867V65.3064C63.1782 62.1046 64.449 59.1951 66.507 57.0652C68.3303 55.1719 70.7751 53.8912 73.5099 53.571C73.9658 53.5153 74.4354 53.4875 74.905 53.4875H115.9V34.4852C115.914 30.643 112.82 27.5247 109.008 27.5247Z" fill="#00B6F0"/>
<path d="M89.339 74.4108C89.339 76.3319 87.792 77.8911 85.8859 77.8911H83.593C81.6869 77.8911 80.1399 76.3319 80.1399 74.4108V72.0999C80.1399 70.9862 80.651 69.9979 81.4659 69.3714C82.0599 68.912 82.7919 68.6197 83.593 68.6197H85.8859C87.792 68.6197 89.339 70.1788 89.339 72.0999V74.4108ZM120.749 60.1417C120.058 59.5014 119.243 59.0141 118.331 58.6939C117.627 58.4573 116.881 58.3181 116.094 58.3181H74.9188C71.1066 58.3181 68.0126 61.4364 68.0126 65.2786V80.7727C68.0126 84.615 71.1066 87.7333 74.9188 87.7333H116.094C116.881 87.7333 117.627 87.5941 118.331 87.3574C119.243 87.0512 120.058 86.55 120.749 85.9096C122.13 84.6428 123 82.8052 123 80.7727V65.2786C123 63.2461 122.13 61.4086 120.749 60.1417Z" fill="#00B6F0"/>
</svg>
