<svg width="82" height="115" viewBox="0 0 82 115" fill="none" xmlns="http://www.w3.org/2000/svg">
<path d="M77.4677 10.8421H82V0H0V10.8421H4.53228V13.6566C4.53228 31.3202 10.6219 47.5209 20.6501 57.1361C10.6219 66.7442 4.53228 82.945 4.53228 100.609V104.158H0V115H82V104.158H77.4677V100.609C77.4677 82.945 71.3781 66.7442 61.3499 57.1361C71.3781 47.5209 77.4677 31.3271 77.4677 13.6566V10.8421ZM53.7099 54.3077L49.9528 57.1361L53.7099 59.9644C63.0957 67.0285 69.3948 81.3298 70.2259 97.0592H11.7741C12.6052 81.3367 18.9043 67.0285 28.2901 59.9644L32.0472 57.1361L28.2901 54.3077C18.9043 47.2367 12.6052 32.9354 11.7741 17.206H70.2259C69.3948 32.9354 63.0957 47.2367 53.7099 54.3077ZM19.3093 22.8489H62.6907C62.0622 34.7863 57.2785 45.6492 50.1484 51.0148C50.1484 51.0148 48.9263 51.5417 47.2991 53.1638C43.9191 57.9471 43.7445 75.4304 43.7375 76.1999C46.1608 76.4564 48.7726 77.4685 51.3705 79.8186C60.5188 88.1235 63.1725 89.1009 63.4938 95.1251H20.5873C20.9085 89.1009 26.1112 84.789 32.7106 79.8186C32.7106 79.8186 35.8532 77.0872 40.2528 76.3247C40.1759 76.193 40.1271 76.0959 40.1271 76.0959C40.1271 59.6317 34.7009 52.5677 34.7009 52.5677L30.853 50.4256C23.7229 45.0531 19.9378 34.7863 19.3093 22.8489Z" fill="#00B6F0"/>
</svg>
