<svg width="111" height="126" viewBox="0 0 111 126" fill="none" xmlns="http://www.w3.org/2000/svg">
<path fill-rule="evenodd" clip-rule="evenodd" d="M48.4531 2.47584C52.8085 -0.0612798 58.1915 -0.0612828 62.5469 2.47584L104.047 26.6506C108.352 29.1585 111 33.7654 111 38.7478V87.2523C111 92.2347 108.352 96.8416 104.047 99.3495L62.5469 123.524C58.1915 126.061 52.8085 126.061 48.4531 123.524L6.95311 99.3495C2.64794 96.8416 0 92.2347 0 87.2523V38.7478C0 33.7654 2.64794 29.1585 6.95311 26.6506L48.4531 2.47584ZM58.5201 9.3885C56.6535 8.30116 54.3465 8.30116 52.4799 9.3885L10.9799 33.5633C9.13483 34.6381 8 36.6125 8 38.7478V87.2523C8 89.3876 9.13483 91.362 10.9799 92.4368L52.4799 116.612C54.3465 117.699 56.6535 117.699 58.5201 116.612L100.02 92.4368C101.865 91.362 103 89.3876 103 87.2523V38.7478C103 36.6125 101.865 34.6381 100.02 33.5633L58.5201 9.3885Z" fill="#FA6900"/>
<path d="M56.0134 83.5527L52.4767 85.9144C52.1993 86.1037 51.8327 86.0738 51.595 85.8347L50.8916 85.157C50.4953 84.7784 49.8712 84.7883 49.4848 85.1869C49.1084 85.5855 49.1183 86.2133 49.5145 86.602L50.2179 87.2796C50.7331 87.7778 51.4067 88.0369 52.0804 88.0369C52.5956 88.0369 53.1206 87.8874 53.5763 87.5785L57.1131 85.2168C57.5688 84.9079 57.6976 84.2901 57.3904 83.8317C57.0833 83.3633 56.4592 83.2438 56.0134 83.5527ZM85.7437 88.3458L83.8119 86.1934C83.4453 85.7848 82.8212 85.7549 82.415 86.1236C82.0088 86.4923 81.9791 87.1201 82.3457 87.5287L84.2775 89.6712C84.4756 89.8904 84.7431 90 85.0106 90C85.2484 90 85.4861 89.9103 85.6744 89.7409C86.0805 89.3822 86.1103 88.7544 85.7437 88.3458ZM55.7162 46.9515C58.7576 46.9515 61.2244 44.5001 61.2244 41.4708C61.2244 38.4414 58.7675 36 55.7162 36C52.6649 36 50.1981 38.4514 50.1981 41.4807C50.1981 44.5101 52.6748 46.9515 55.7162 46.9515ZM81.3946 84.8083C80.8398 85.2766 80.1563 85.5058 79.4826 85.5058C78.6405 85.5058 77.7885 85.1471 77.204 84.4396L59.7384 63.563L54.0518 67.2899C52.7937 68.117 52.2191 69.6416 52.6253 71.1065C55.2209 80.4636 55.2209 80.6629 55.2209 81.191C55.2209 82.8452 53.8933 84.1904 52.2488 84.1904C50.7529 84.1904 49.5046 83.0744 49.3065 81.6195C49.2272 81.2807 48.8409 79.7361 46.8991 72.7208C45.7896 68.7348 47.3648 64.5396 50.8024 62.2875L52.0804 61.4505C48.9598 62.9651 45.5419 64.2406 42.4708 64.8286C42.2826 64.8684 42.0943 64.8884 41.9061 64.8884C41.8368 64.8884 41.7674 64.8784 41.6981 64.8684L36.3583 80.7326C36.3385 80.8024 36.2989 80.8522 36.2592 80.9219C36.0512 81.5198 35.6054 82.038 34.9714 82.3071L29.1957 84.6987C28.9084 84.8182 28.6112 84.8681 28.314 84.8681C27.4026 84.8681 26.5407 84.32 26.1741 83.4231C25.6887 82.2373 26.2534 80.8721 27.4323 80.3838L33.2079 77.9922C33.8618 77.7232 34.5751 77.783 35.1596 78.0919L39.8653 64.0513C39.4294 63.6328 39.1025 63.0847 38.9737 62.4469C38.6666 60.8227 39.7167 59.2582 41.3414 58.9493C41.4306 58.9293 41.5197 58.9094 41.6089 58.8895L42.8968 55.043C40.9452 53.9469 39.4988 51.9838 39.0034 49.7217C38.4883 47.3501 39.0629 44.8987 40.5687 43.0054C42.3123 40.7931 45.74 39.4479 48.7022 38.85C48.3951 39.6671 48.2167 40.554 48.2167 41.4807C48.2167 42.7164 48.5239 43.8823 49.0588 44.9087C47.3251 45.377 45.7103 46.1244 45.2249 46.7322C44.7196 47.37 44.7295 48.0177 44.8187 48.4462C44.9475 49.064 45.3438 49.6021 45.849 49.8513C47.3152 50.5986 47.8997 52.4023 47.1567 53.8771C46.6911 54.8038 45.7995 55.3818 44.8385 55.4914L43.8974 58.2816C49.5244 56.5477 55.5973 52.8507 56.8158 51.2364C57.539 50.2798 57.9749 49.353 58.1235 48.5459C60.4021 47.7686 62.1952 45.935 62.8986 43.6232C63.4534 44.5101 63.8398 45.5065 64.028 46.5828C64.3351 48.4562 64.1667 51.4058 61.5612 54.8537C61.373 55.1028 61.1451 55.3619 60.8776 55.6309L81.7513 80.5931C82.8113 81.8586 82.6528 83.742 81.3946 84.8083Z" fill="white"/>
</svg>
