<svg width="111" height="126" viewBox="0 0 111 126" fill="none" xmlns="http://www.w3.org/2000/svg">
<path fill-rule="evenodd" clip-rule="evenodd" d="M48.4531 2.47584C52.8085 -0.0612798 58.1915 -0.0612828 62.5469 2.47584L104.047 26.6506C108.352 29.1585 111 33.7654 111 38.7478V87.2523C111 92.2347 108.352 96.8416 104.047 99.3495L62.5469 123.524C58.1915 126.061 52.8085 126.061 48.4531 123.524L6.95311 99.3495C2.64794 96.8416 0 92.2347 0 87.2523V38.7478C0 33.7654 2.64794 29.1585 6.95311 26.6506L48.4531 2.47584ZM58.5201 9.3885C56.6535 8.30116 54.3465 8.30116 52.4799 9.3885L10.9799 33.5633C9.13483 34.6381 8 36.6125 8 38.7478V87.2523C8 89.3876 9.13483 91.362 10.9799 92.4368L52.4799 116.612C54.3465 117.699 56.6535 117.699 58.5201 116.612L100.02 92.4368C101.865 91.362 103 89.3876 103 87.2523V38.7478C103 36.6125 101.865 34.6381 100.02 33.5633L58.5201 9.3885Z" fill="#FA6900"/>
<path d="M60.9939 56.6965C59.99 56.6965 59.1775 55.8869 59.1775 54.8867V37H52.8225V54.8867C52.8225 55.8869 52.01 56.6965 51.0061 56.6965H25V63.0284H51.0061C52.01 63.0284 52.8225 63.8391 52.8225 64.8381V82.72H59.1775V64.8381C59.1775 63.8391 59.99 63.0284 60.9939 63.0284H87V56.6965H60.9939Z" fill="white"/>
<path d="M62.8103 50.5179L76.2287 37.1484C75.5954 37.0507 74.9463 37 74.2852 37H62.8103V50.5179Z" fill="white"/>
<path d="M65.3787 53.0769H87V49.6685C87 44.7712 84.1955 40.5134 80.1037 38.4068L65.3787 53.0769Z" fill="white"/>
<path d="M65.3714 66.6479L80.0625 81.3349C84.1773 79.2344 87 74.9657 87 70.0515V66.6479H65.3714Z" fill="white"/>
<path d="M49.1897 50.5179V37H37.7148C37.0537 37 36.4046 37.0507 35.7701 37.1484L49.1897 50.5179Z" fill="white"/>
<path d="M62.8103 69.2154V82.7212H74.2852C74.9294 82.7212 75.5615 82.673 76.1791 82.5813L62.8103 69.2154Z" fill="white"/>
<path d="M46.6213 53.0769L31.8963 38.4068C27.8045 40.5134 25 44.7712 25 49.6685V53.0769H46.6213Z" fill="white"/>
<path d="M46.6213 66.6479H25V70.0515C25 74.9512 27.8057 79.2078 31.8999 81.3156L46.6213 66.6479Z" fill="white"/>
<path d="M49.1897 69.2082L35.7749 82.5741C36.407 82.6706 37.0549 82.7212 37.7148 82.7212H39.6015L44.0238 88.3111C44.3689 88.7466 44.8945 89 45.4503 89C46.0061 89 46.5329 88.7454 46.8768 88.3111L49.1885 85.3889V69.2082H49.1897Z" fill="white"/>
</svg>
