<svg width="111" height="126" viewBox="0 0 111 126" fill="none" xmlns="http://www.w3.org/2000/svg">
<path fill-rule="evenodd" clip-rule="evenodd" d="M48.4531 2.47584C52.8085 -0.0612798 58.1915 -0.0612828 62.5469 2.47584L104.047 26.6506C108.352 29.1585 111 33.7654 111 38.7478V87.2523C111 92.2347 108.352 96.8416 104.047 99.3495L62.5469 123.524C58.1915 126.061 52.8085 126.061 48.4531 123.524L6.95311 99.3495C2.64794 96.8416 0 92.2347 0 87.2523V38.7478C0 33.7654 2.64794 29.1585 6.95311 26.6506L48.4531 2.47584ZM58.5201 9.3885C56.6535 8.30116 54.3465 8.30116 52.4799 9.3885L10.9799 33.5633C9.13483 34.6381 8 36.6125 8 38.7478V87.2523C8 89.3876 9.13483 91.362 10.9799 92.4368L52.4799 116.612C54.3465 117.699 56.6535 117.699 58.5201 116.612L100.02 92.4368C101.865 91.362 103 89.3876 103 87.2523V38.7478C103 36.6125 101.865 34.6381 100.02 33.5633L58.5201 9.3885Z" fill="#FA6900"/>
<path d="M75.5419 40.2561C75.5419 42.607 73.6637 44.5122 71.342 44.5122C69.0203 44.5122 67.142 42.607 67.142 40.2561C67.142 37.9053 69.0203 36 71.342 36C73.6637 36 75.5419 37.9053 75.5419 40.2561Z" fill="white"/>
<path d="M82.4275 48.8278C82.4275 48.8278 77.5373 44.9281 77.529 44.9196C76.9015 44.4189 76.2029 44.7499 75.5294 44.9111C75.2491 44.979 74.9521 45.013 74.6802 45.1063C74.0192 45.3312 73.3583 45.5689 72.7057 45.8192C71.48 46.2945 70.1414 46.7867 69.0914 47.6057C68.899 47.7542 68.7024 47.9197 68.5811 48.1361C68.4012 48.2422 68.238 48.3822 68.1042 48.5647L65.3014 52.5153L61.2688 54.5606C60.5242 54.9383 60.223 55.8591 60.5953 56.6102C60.8588 57.1448 61.3901 57.4546 61.9423 57.4546C62.1682 57.4546 62.3982 57.4037 62.6158 57.2934L66.9789 55.0783C67.1964 54.968 67.3846 54.8025 67.5269 54.603L69.5181 51.7939C70.246 53.6822 71.1956 55.893 71.8231 57.3231L66.9663 58.3457C66.2552 58.4942 65.7239 59.0926 65.6444 59.8224L64.3016 72.2513C64.2681 72.5611 64.3267 72.8581 64.4397 73.1212H67.4892C67.5562 72.9642 67.6064 72.7987 67.6273 72.6205L68.8362 61.4179L74.0945 60.3104L75.3955 61.524C75.3411 61.7107 75.316 61.9102 75.3202 62.1181L75.7051 72.1665C75.7176 72.5059 75.8222 72.8369 76.0063 73.1212L80.2188 79.6094H83.8289C83.9795 79.1002 83.9251 78.5273 83.6114 78.0478L79.3612 71.5002L78.9973 61.9738C78.9931 61.7998 78.9596 61.6301 78.9053 61.4731V61.4349L77.0479 48.4204L80.0473 50.8137L80.5242 56.3301C80.5953 57.1279 81.252 57.7219 82.0218 57.7219C82.0636 57.7219 82.1096 57.7177 82.1556 57.7135C82.9839 57.6413 83.5988 56.8987 83.5235 56.0585L82.9881 49.8844C82.9588 49.4728 82.7538 49.0866 82.4275 48.8278Z" fill="white"/>
<path d="M73.9983 74.4918H62.0008V67.8594H49.9992V60.8493H26V88.8557L86 89L85.8703 88.8557H86V80.9757H73.9983V74.4918Z" fill="white"/>
</svg>
