<svg width="111" height="126" viewBox="0 0 111 126" fill="none" xmlns="http://www.w3.org/2000/svg">
<path fill-rule="evenodd" clip-rule="evenodd" d="M48.4531 2.47584C52.8085 -0.0612798 58.1915 -0.0612828 62.5469 2.47584L104.047 26.6506C108.352 29.1585 111 33.7654 111 38.7478V87.2523C111 92.2347 108.352 96.8416 104.047 99.3495L62.5469 123.524C58.1915 126.061 52.8085 126.061 48.4531 123.524L6.95311 99.3495C2.64794 96.8416 0 92.2347 0 87.2523V38.7478C0 33.7654 2.64794 29.1585 6.95311 26.6506L48.4531 2.47584ZM58.5201 9.3885C56.6535 8.30116 54.3465 8.30116 52.4799 9.3885L10.9799 33.5633C9.13483 34.6381 8 36.6125 8 38.7478V87.2523C8 89.3876 9.13483 91.362 10.9799 92.4368L52.4799 116.612C54.3465 117.699 56.6535 117.699 58.5201 116.612L100.02 92.4368C101.865 91.362 103 89.3876 103 87.2523V38.7478C103 36.6125 101.865 34.6381 100.02 33.5633L58.5201 9.3885Z" fill="#FA6900"/>
<path d="M74.3646 73.8915C73.9215 72.8131 72.8527 72.1228 71.833 71.6987L64.9415 68.4774L61.6302 65.6425L56.3098 71.0153H56.3047L58.6013 86.5997C58.6098 86.6529 58.5963 86.7079 58.5641 86.7525L56.1627 90.0889C56.1255 90.1421 56.0629 90.173 55.9986 90.173C55.9344 90.173 55.8735 90.1421 55.8346 90.0889L53.4348 86.7525C53.4027 86.7079 53.3892 86.6529 53.3976 86.5997L55.6942 71.0153H55.6909L50.3705 65.6425L47.0592 68.4774L40.1677 71.6987C39.1479 72.1228 38.1451 72.7685 37.636 73.8915C37.636 73.8915 30.1442 92 34.2081 92H77.7926C81.8548 92 74.3646 73.8915 74.3646 73.8915Z" fill="white"/>
<path d="M55.7839 62.8247C50.6225 62.8247 47.0626 56.6861 46.3438 50.5492C45.6792 44.8742 53.7629 44.6097 54.2331 48.1264C54.3768 49.2081 53.1541 50.3672 53.2928 50.8119C53.9777 53.0167 65.3034 43.6155 65.2256 50.5458C65.1698 55.4378 60.7018 62.8247 55.7839 62.8247ZM74.8415 49.0622C74.9447 49.0502 75.0394 49.0004 75.1037 48.9197C75.1696 48.8372 75.1984 48.7325 75.1865 48.6295C75.1087 47.9598 75.0326 47.2918 74.9548 46.6239L74.7942 45.2245C74.7705 45.015 74.5845 44.8639 74.3782 44.8828H74.0805L74.0873 40.1848L74.2429 40.1281L74.7621 39.9375C75.2034 39.7761 75.496 39.352 75.496 38.8763C75.496 38.4007 75.2034 37.9766 74.7621 37.8152L56.3775 31.067C56.1339 30.9777 55.8667 30.9777 55.6215 31.067L37.2369 37.8135C36.7972 37.9766 36.503 38.399 36.503 38.8746C36.503 39.3503 36.7955 39.7727 37.2369 39.9358L44.0337 42.4307C43.5534 43.9675 43.3352 45.7293 43.3555 47.6885C43.4756 58.8703 49.8682 65.5395 55.7839 65.5395C61.6302 65.5395 68.0921 58.8703 68.2122 47.6885C68.2308 45.7877 68.0262 44.0774 67.5763 42.5733L72.5179 40.76L72.528 44.8845H72.2287C72.0224 44.8673 71.838 45.0184 71.8144 45.2279L71.4271 48.6329C71.4153 48.7376 71.4457 48.8407 71.5116 48.9214C71.5759 49.0021 71.6706 49.0553 71.7721 49.0639" fill="white"/>
</svg>
