<svg width="111" height="126" viewBox="0 0 111 126" fill="none" xmlns="http://www.w3.org/2000/svg">
<path fill-rule="evenodd" clip-rule="evenodd" d="M48.4531 2.47584C52.8085 -0.0612798 58.1915 -0.0612828 62.5469 2.47584L104.047 26.6506C108.352 29.1585 111 33.7654 111 38.7478V87.2523C111 92.2347 108.352 96.8416 104.047 99.3495L62.5469 123.524C58.1915 126.061 52.8085 126.061 48.4531 123.524L6.95311 99.3495C2.64794 96.8416 0 92.2347 0 87.2523V38.7478C0 33.7654 2.64794 29.1585 6.95311 26.6506L48.4531 2.47584ZM58.5201 9.3885C56.6535 8.30116 54.3465 8.30116 52.4799 9.3885L10.9799 33.5633C9.13483 34.6381 8 36.6125 8 38.7478V87.2523C8 89.3876 9.13483 91.362 10.9799 92.4368L52.4799 116.612C54.3465 117.699 56.6535 117.699 58.5201 116.612L100.02 92.4368C101.865 91.362 103 89.3876 103 87.2523V38.7478C103 36.6125 101.865 34.6381 100.02 33.5633L58.5201 9.3885Z" fill="#FA6900"/>
<path d="M79.9338 36.1366L74.0076 38.8339C73.6281 39.0091 73.2778 39.2484 72.98 39.5462L63.3231 49.2085L30.0667 45.2209C29.4653 45.1509 28.8581 45.3552 28.4319 45.7873L26.5811 47.638C25.6002 48.6188 25.9038 50.2769 27.1708 50.8432L51.0037 61.5272L44.1609 68.3696H32.2094C31.684 68.3696 31.1818 68.5798 30.8082 68.9476L29.8098 69.9517C28.8172 70.9442 29.1442 72.6198 30.4287 73.1686L40.5119 77.4889L44.8324 87.5716C45.3812 88.856 47.0627 89.1829 48.0494 88.1904L49.0537 87.1862C49.4273 86.8126 49.6317 86.3105 49.6317 85.7851V73.8342L56.4745 66.9918L67.159 90.8293C67.7253 92.0962 69.3835 92.3998 70.3644 91.419L72.2152 89.5682C72.6472 89.1362 72.8516 88.5349 72.7815 87.9335L68.788 54.6789L78.4508 45.0166C78.7485 44.7189 78.9879 44.3744 79.1631 43.9891L81.8605 38.0633C82.4268 36.8431 81.1657 35.5762 79.9338 36.1366Z" fill="white"/>
</svg>
