<svg width="169" height="169" viewBox="0 0 169 169" fill="none" xmlns="http://www.w3.org/2000/svg">
<path d="M84.5025 159L102.138 141.371C123.314 135.833 140.552 120.569 148.783 100.621C152.147 92.4569 154 83.5145 154 74.1404C154 64.7662 152.147 55.8238 148.778 47.6597C145.253 39.119 140.08 31.4369 133.638 25.005L84.4975 74.1404L35.3521 25C22.7783 37.5776 15 54.9502 15 74.1404C15 106.43 37.0293 133.579 66.872 141.381L84.5025 159Z" fill="#00B7FF"/>
<g filter="url(#filter0_d)">
<path d="M84.5 134C51.6384 134 25 107.362 25 74.5C25 41.6384 51.6384 15 84.5 15C109.333 15 130.611 30.2141 139.527 51.826C142.409 58.8122 144 66.4716 144 74.495C144 82.5234 142.409 90.1778 139.527 97.169C130.611 118.786 109.333 134 84.5 134Z" fill="#F9F9F9"/>
</g>
<path d="M58.0556 80.708C58.6631 81.3127 59.5673 81.4941 60.3548 81.165C61.1437 80.8402 61.657 80.0695 61.657 79.2159V75H72.3445C76.9977 75 80.782 78.7842 80.782 83.4375V108.891C80.782 110.056 81.7255 111 82.8913 111H87.1101C88.2759 111 89.2195 110.056 89.2195 108.891V83.4375C89.2195 74.1323 81.6496 66.5625 72.3445 66.5625H61.657V62.3438C61.657 61.4916 61.1437 60.7209 60.3548 60.3947C59.5645 60.0656 58.6616 60.2513 58.0556 60.8517L49.618 69.2892C48.794 70.1133 48.794 71.4478 49.618 72.2719L58.0556 80.708Z" fill="#7D8189"/>
<path d="M84.9993 66.6708C86.3071 65.6808 87.6979 64.8005 89.218 64.1325V51.6562H93.4368C94.289 51.6562 95.0596 51.143 95.3859 50.3541C95.7135 49.5652 95.5321 48.6595 94.9288 48.0548L86.4913 39.6173C86.0793 39.2053 85.5393 39 84.9993 39C84.4593 39 83.9193 39.2053 83.5087 39.6173L75.0712 48.0548C74.4679 48.6581 74.2865 49.5652 74.6141 50.3541C74.939 51.143 75.7096 51.6562 76.5618 51.6562H80.7805V64.1311C82.3007 64.7991 83.6915 65.6794 84.9993 66.6708Z" fill="#7D8189"/>
<path d="M111.943 60.8531C111.337 60.2527 110.436 60.067 109.644 60.3961C108.855 60.7209 108.342 61.4916 108.342 62.3452V66.5639H97.6541C94.1048 66.5639 90.817 67.6777 88.0973 69.5564C89.9802 71.6911 91.4118 74.1942 92.3132 76.9617C93.7729 75.7552 95.6179 75 97.6555 75H108.343V79.2173C108.343 80.0695 108.856 80.8402 109.645 81.1664C110.433 81.4955 111.337 81.3141 111.944 80.7094L120.382 72.2733C121.206 71.4492 121.206 70.1147 120.382 69.2906L111.943 60.8531Z" fill="#7D8189"/>
<defs>
<filter id="filter0_d" x="0" y="0" width="169" height="169" filterUnits="userSpaceOnUse" color-interpolation-filters="sRGB">
<feFlood flood-opacity="0" result="BackgroundImageFix"/>
<feColorMatrix in="SourceAlpha" type="matrix" values="0 0 0 0 0 0 0 0 0 0 0 0 0 0 0 0 0 0 127 0"/>
<feOffset dy="10"/>
<feGaussianBlur stdDeviation="12.5"/>
<feColorMatrix type="matrix" values="0 0 0 0 0 0 0 0 0 0 0 0 0 0 0 0 0 0 0.2 0"/>
<feBlend mode="normal" in2="BackgroundImageFix" result="effect1_dropShadow"/>
<feBlend mode="normal" in="SourceGraphic" in2="effect1_dropShadow" result="shape"/>
</filter>
</defs>
</svg>
