<svg width="169" height="169" viewBox="0 0 169 169" fill="none" xmlns="http://www.w3.org/2000/svg">
<path d="M84.5025 159L102.138 141.371C123.314 135.833 140.552 120.569 148.783 100.621C152.147 92.4569 154 83.5145 154 74.1404C154 64.7662 152.147 55.8238 148.778 47.6597C145.253 39.119 140.08 31.4369 133.638 25.005L84.4975 74.1404L35.3521 25C22.7783 37.5776 15 54.9502 15 74.1404C15 106.43 37.0293 133.579 66.872 141.381L84.5025 159Z" fill="#00B7FF"/>
<g filter="url(#filter0_d)">
<path d="M84.5 134C51.6384 134 25 107.362 25 74.5C25 41.6384 51.6384 15 84.5 15C109.333 15 130.611 30.2141 139.527 51.826C142.409 58.8122 144 66.4716 144 74.495C144 82.5234 142.409 90.1778 139.527 97.169C130.611 118.786 109.333 134 84.5 134Z" fill="#F9F9F9"/>
</g>
<path d="M92.6834 54.4043H70.8371C69.2353 54.4043 67.9232 55.7149 67.9232 57.3149C67.9232 58.9319 69.2353 60.2255 70.8371 60.2255H92.6834C94.2853 60.2255 95.5974 58.9149 95.5974 57.3149C95.5974 55.7149 94.2853 54.4043 92.6834 54.4043Z" fill="#7D8189"/>
<path d="M95.5974 68.2256C95.5974 66.6085 94.2853 65.3149 92.6834 65.3149H70.8371C69.2353 65.3149 67.9232 66.6256 67.9232 68.2256C67.9232 69.8426 69.2353 71.1361 70.8371 71.1361H92.6834C94.2853 71.1361 95.5974 69.8426 95.5974 68.2256Z" fill="#7D8189"/>
<path d="M81.7603 82.0468C83.3792 82.0468 84.6743 80.7362 84.6743 79.1362C84.6743 77.5191 83.3792 76.2255 81.7603 76.2255H70.8371C69.2353 76.2255 67.9232 77.5362 67.9232 79.1362C67.9232 80.7362 69.2353 82.0468 70.8371 82.0468H81.7603Z" fill="#7D8189"/>
<path d="M103.743 91.9362L100.693 93.9447V101.179H62.828V48.8213H100.693V60.3106L106.521 50.234V45.9106C106.521 44.3106 105.208 43 103.607 43H59.914C58.3121 43 57 44.3106 57 45.9106V104.089C57 105.706 58.3121 107 59.914 107H103.607C105.208 107 106.521 105.689 106.521 104.089V88.0553L105.123 90.4554C104.782 91.0681 104.305 91.5788 103.743 91.9362Z" fill="#7D8189"/>
<path d="M96.2961 90.7447C95.819 90.3532 95.2566 89.9787 94.6602 89.6382C94.0808 89.2978 93.4844 89.0085 92.905 88.7872L93.1095 85.3829C93.8763 85.4851 95.001 85.7915 96.4324 86.6085C97.8638 87.4255 98.6818 88.2426 99.1589 88.8553L96.2961 90.7447ZM120.971 56.4808C120.903 56.2255 120.29 53.8596 116.592 51.7319C112.877 49.6042 110.542 50.234 110.287 50.3191C109.946 50.4383 109.639 50.6596 109.452 50.983L91.252 82.4724C91.1327 82.6596 91.0646 82.8809 91.0646 83.1192L90.3829 94.4723C90.3489 95.034 90.6215 95.5446 91.0986 95.817C91.5758 96.0893 92.1722 96.0724 92.6323 95.766L102.141 89.5022C102.329 89.383 102.482 89.2127 102.601 89.0255L120.801 57.5361C120.988 57.2127 121.039 56.8553 120.971 56.4808Z" fill="#7D8189"/>
<path d="M77.2956 95.4936C77.3978 96.0723 78.0624 96.2595 78.5225 96.4468C78.9486 96.634 79.4768 96.2766 79.8347 96.1064C82.067 95.0341 85.0662 96.2936 87.4519 96.2936C88.8493 96.2936 88.8493 94.1149 87.4519 94.1149C84.6743 94.1149 82.3738 93.4171 79.6131 93.8596C79.6131 93.7064 79.562 93.4851 79.3916 93.1958C78.8804 92.3106 78.2158 92.0724 77.5682 92.1745C77.5171 92.0724 77.483 91.9702 77.4149 91.868C77.2445 91.5957 77.0059 91.4426 76.7333 91.3915C77.5001 90.0468 77.9943 88.6341 77.483 87.4937C77.3297 87.1532 76.8866 86.966 76.5458 86.949C75.0803 86.8979 73.8363 88.4298 72.8991 89.3489C70.5474 91.6468 68.4855 94.2511 66.4747 96.8554C65.6226 97.9618 67.5142 99.051 68.3662 97.9447C70.1385 95.6468 72.0129 93.4171 74.0408 91.3235C73.5637 92.1235 73.0354 92.9064 72.4901 93.6554C71.7062 94.8639 73.5637 95.8681 74.3646 94.7617C74.552 94.4723 74.8076 94.2511 75.0632 94.0809C75.0121 94.2171 74.961 94.3532 74.8928 94.4724C74.8928 94.4724 74.8928 94.4724 74.9099 94.4724C74.8588 94.5575 74.8247 94.6426 74.7906 94.7277C74.2964 95.9533 76.1198 96.515 76.7844 95.5788C76.9548 95.3405 77.1082 95.0851 77.2445 94.8128C77.2786 95 77.2615 95.2383 77.2956 95.4936Z" fill="#7D8189"/>
<defs>
<filter id="filter0_d" x="0" y="0" width="169" height="169" filterUnits="userSpaceOnUse" color-interpolation-filters="sRGB">
<feFlood flood-opacity="0" result="BackgroundImageFix"/>
<feColorMatrix in="SourceAlpha" type="matrix" values="0 0 0 0 0 0 0 0 0 0 0 0 0 0 0 0 0 0 127 0"/>
<feOffset dy="10"/>
<feGaussianBlur stdDeviation="12.5"/>
<feColorMatrix type="matrix" values="0 0 0 0 0 0 0 0 0 0 0 0 0 0 0 0 0 0 0.2 0"/>
<feBlend mode="normal" in2="BackgroundImageFix" result="effect1_dropShadow"/>
<feBlend mode="normal" in="SourceGraphic" in2="effect1_dropShadow" result="shape"/>
</filter>
</defs>
</svg>
