<svg width="169" height="169" viewBox="0 0 169 169" fill="none" xmlns="http://www.w3.org/2000/svg">
<path d="M84.5025 159L102.138 141.371C123.314 135.833 140.552 120.569 148.783 100.621C152.147 92.4569 154 83.5145 154 74.1404C154 64.7662 152.147 55.8238 148.778 47.6597C145.253 39.119 140.08 31.4369 133.638 25.005L84.4975 74.1404L35.3521 25C22.7783 37.5776 15 54.9502 15 74.1404C15 106.43 37.0293 133.579 66.872 141.381L84.5025 159Z" fill="#00B7FF"/>
<g filter="url(#filter0_d)">
<path d="M84.5 134C51.6384 134 25 107.362 25 74.5C25 41.6384 51.6384 15 84.5 15C109.333 15 130.611 30.2141 139.527 51.826C142.409 58.8122 144 66.4716 144 74.495C144 82.5234 142.409 90.1778 139.527 97.169C130.611 118.786 109.333 134 84.5 134Z" fill="#F9F9F9"/>
</g>
<path d="M84.5822 50.4004C88.2814 50.4004 91.2874 47.3937 91.2874 43.7002C91.2874 40.0067 88.2784 37 84.5822 37C80.8859 37 77.8769 40.0067 77.8769 43.7002C77.8769 47.3937 80.8859 50.4004 84.5822 50.4004Z" fill="#7D8189"/>
<path d="M74.0103 70.952H95.1481C96.5256 70.952 97.6401 69.8383 97.6401 68.4618V59.2505C97.6401 56.7006 95.9997 54.4403 93.5763 53.649L93.5644 53.6431L90.0175 53.0578C89.7157 52.9653 89.393 53.1265 89.2854 53.4221L85.2605 64.4548C85.0274 65.0908 84.128 65.0908 83.8949 64.4548L79.87 53.4221C79.7833 53.1803 79.5562 53.031 79.3142 53.031C79.2574 53.031 75.591 53.6431 75.591 53.6431C73.1468 54.4582 71.5123 56.7215 71.5123 59.2833V68.4618C71.5182 69.8353 72.6358 70.952 74.0103 70.952Z" fill="#7D8189"/>
<path d="M115.153 87.9474C115.141 87.9444 115.126 87.9384 115.114 87.9354L113.196 87.3472C112.619 87.171 111.992 87.3114 111.544 87.7145L107.408 91.4527L103.273 87.7145C102.824 87.3114 102.197 87.171 101.62 87.3472L99.7019 87.9354C99.687 87.9384 99.675 87.9444 99.6631 87.9474C96.7646 88.9118 94.8194 91.611 94.8194 94.6625V105.286C94.8194 106.23 95.5873 106.997 96.5315 106.997H118.288C119.232 106.997 120 106.23 120 105.286V94.6625C119.997 91.614 118.052 88.9148 115.153 87.9474Z" fill="#7D8189"/>
<path d="M107.405 86.1678C111.349 86.1678 114.556 82.961 114.556 79.0227C114.556 75.0844 111.346 71.8776 107.405 71.8776C103.461 71.8776 100.255 75.0844 100.255 79.0227C100.255 82.961 103.464 86.1678 107.405 86.1678Z" fill="#7D8189"/>
<path d="M69.3369 87.9474C69.322 87.9444 69.31 87.9384 69.2981 87.9354L67.3797 87.3472C66.803 87.171 66.1755 87.3114 65.7273 87.7145L61.5888 91.4527L57.4533 87.7145C57.0051 87.3114 56.3806 87.171 55.8009 87.3472C55.8009 87.3472 53.8556 87.9444 53.8437 87.9474C50.9482 88.9148 49 91.614 49 94.6655V105.289C49 106.233 49.7679 107 50.7122 107H72.4685C73.4127 107 74.1806 106.233 74.1806 105.289V94.6655C74.1806 91.614 72.2354 88.9148 69.3369 87.9474Z" fill="#7D8189"/>
<path d="M54.4383 79.0197C54.4383 82.961 57.6475 86.1648 61.5888 86.1648C65.5331 86.1648 68.7423 82.958 68.7423 79.0197C68.7423 75.0784 65.5331 71.8746 61.5888 71.8746C57.6475 71.8746 54.4383 75.0814 54.4383 79.0197Z" fill="#7D8189"/>
<path d="M109.359 60.1761C108.774 59.9999 108.113 60.1193 107.62 60.5553C106.858 61.2241 106.784 62.3826 107.453 63.144L109.963 65.9955C110.313 66.3926 110.815 66.6195 111.341 66.6195C111.866 66.6195 112.371 66.3926 112.718 65.9955L115.228 63.144C115.897 62.3826 115.823 61.2241 115.061 60.5553C114.493 60.0566 113.704 59.973 113.062 60.2776C112.688 56.2736 111.125 52.5144 108.538 49.5704C107.868 48.809 106.709 48.7343 105.947 49.4032C105.185 50.072 105.11 51.2305 105.78 51.9919C107.761 54.2402 108.992 57.1007 109.359 60.1761Z" fill="#7D8189"/>
<path d="M56.4403 65.9955C56.7899 66.3926 57.2919 66.6195 57.8179 66.6195C58.3438 66.6195 58.8487 66.3926 59.1954 65.9955L61.7054 63.144C62.3747 62.3826 62.3 61.2241 61.538 60.5553C61.045 60.1223 60.3846 60.0029 59.799 60.1761C60.1695 57.1037 61.3976 54.2402 63.3787 51.9889C64.048 51.2275 63.9733 50.069 63.2114 49.4002C62.4494 48.7314 61.29 48.806 60.6207 49.5674C58.033 52.5084 56.4702 56.2676 56.0967 60.2746C55.4543 59.9701 54.6654 60.0537 54.0947 60.5523C53.3327 61.2211 53.258 62.3796 53.9274 63.141L56.4403 65.9955Z" fill="#7D8189"/>
<path d="M85.9597 53.1623C85.8073 52.9922 85.5802 52.9085 85.3501 52.9085H83.6439C83.4168 52.9085 83.1897 52.9922 83.0343 53.1623C82.7953 53.4221 82.7594 53.7983 82.9298 54.0939L83.8411 55.4674L83.4138 59.0683L84.2535 61.3047C84.3342 61.5287 84.6539 61.5287 84.7346 61.3047L85.5772 59.0683L85.1499 55.4674L86.0613 54.0939C86.2346 53.7983 86.2017 53.4221 85.9597 53.1623Z" fill="#7D8189"/>
<defs>
<filter id="filter0_d" x="0" y="0" width="169" height="169" filterUnits="userSpaceOnUse" color-interpolation-filters="sRGB">
<feFlood flood-opacity="0" result="BackgroundImageFix"/>
<feColorMatrix in="SourceAlpha" type="matrix" values="0 0 0 0 0 0 0 0 0 0 0 0 0 0 0 0 0 0 127 0"/>
<feOffset dy="10"/>
<feGaussianBlur stdDeviation="12.5"/>
<feColorMatrix type="matrix" values="0 0 0 0 0 0 0 0 0 0 0 0 0 0 0 0 0 0 0.2 0"/>
<feBlend mode="normal" in2="BackgroundImageFix" result="effect1_dropShadow"/>
<feBlend mode="normal" in="SourceGraphic" in2="effect1_dropShadow" result="shape"/>
</filter>
</defs>
</svg>
