<svg width="169" height="169" viewBox="0 0 169 169" fill="none" xmlns="http://www.w3.org/2000/svg">
<path d="M84.5025 159L102.138 141.371C123.314 135.833 140.552 120.569 148.783 100.621C152.147 92.4569 154 83.5145 154 74.1404C154 64.7662 152.147 55.8238 148.778 47.6597C145.253 39.119 140.08 31.4369 133.638 25.005L84.4975 74.1404L35.3521 25C22.7783 37.5776 15 54.9502 15 74.1404C15 106.43 37.0293 133.579 66.872 141.381L84.5025 159Z" fill="#00B7FF"/>
<g filter="url(#filter0_d)">
<path d="M84.5 134C51.6384 134 25 107.362 25 74.5C25 41.6384 51.6384 15 84.5 15C109.333 15 130.611 30.2141 139.527 51.826C142.409 58.8122 144 66.4716 144 74.495C144 82.5234 142.409 90.1778 139.527 97.169C130.611 118.786 109.333 134 84.5 134Z" fill="#F9F9F9"/>
</g>
<path d="M109.414 77.6417C109.26 77.5653 109.107 77.5241 108.953 77.5241C108.623 77.5241 108.328 77.6535 108.068 77.9065L105.606 80.36C105.376 80.5953 105.258 80.8719 105.258 81.2013V90.9388C105.258 92.6274 104.655 94.0689 103.451 95.275C102.246 96.4753 100.794 97.0754 99.0996 97.0754H67.0819C65.3874 97.0754 63.941 96.4753 62.7365 95.275C61.5321 94.0747 60.9299 92.6274 60.9299 90.9388V59.0436C60.9299 57.355 61.5321 55.9135 62.7365 54.7132C63.941 53.513 65.3933 52.907 67.0819 52.907H99.0996C99.6664 52.907 100.239 52.9835 100.83 53.1364C100.983 53.1894 101.101 53.2129 101.178 53.2129C101.514 53.2129 101.81 53.0835 102.063 52.8305L103.947 50.9536C104.254 50.6476 104.372 50.277 104.295 49.8416C104.218 49.4297 103.988 49.1355 103.604 48.959C102.217 48.3177 100.717 48 99.1055 48H67.0878C64.0354 48 61.4258 49.0826 59.259 51.2419C57.0922 53.4012 56 56.0018 56 59.0436V90.9505C56 93.9924 57.0864 96.5929 59.2531 98.7581C61.4199 100.923 64.0295 102 67.0819 102H99.0996C102.152 102 104.762 100.917 106.934 98.7581C109.107 96.5988 110.187 93.9982 110.187 90.9505V78.7538C110.182 78.2183 109.928 77.8477 109.414 77.6417Z" fill="#7D8189"/>
<path d="M119.073 55.6311L114.84 51.4125C114.226 50.8006 113.488 50.4888 112.644 50.4888C111.799 50.4888 111.067 50.7948 110.453 51.4125L85.5557 76.2238L75.4362 66.1334C74.8221 65.5215 74.09 65.2155 73.2457 65.2155C72.4015 65.2155 71.6694 65.5215 71.0553 66.1334L66.8221 70.3519C66.2081 70.9638 65.8952 71.6934 65.8952 72.5406C65.8952 73.382 66.2022 74.1116 66.8221 74.7235L83.3653 91.2153C83.9852 91.8272 84.7173 92.1331 85.5616 92.1331C86.4059 92.1331 87.138 91.8272 87.752 91.2153L119.073 60.0026C119.687 59.3907 120 58.6611 120 57.8139C120 56.9725 119.687 56.243 119.073 55.6311Z" fill="#7D8189"/>
<defs>
<filter id="filter0_d" x="0" y="0" width="169" height="169" filterUnits="userSpaceOnUse" color-interpolation-filters="sRGB">
<feFlood flood-opacity="0" result="BackgroundImageFix"/>
<feColorMatrix in="SourceAlpha" type="matrix" values="0 0 0 0 0 0 0 0 0 0 0 0 0 0 0 0 0 0 127 0"/>
<feOffset dy="10"/>
<feGaussianBlur stdDeviation="12.5"/>
<feColorMatrix type="matrix" values="0 0 0 0 0 0 0 0 0 0 0 0 0 0 0 0 0 0 0.2 0"/>
<feBlend mode="normal" in2="BackgroundImageFix" result="effect1_dropShadow"/>
<feBlend mode="normal" in="SourceGraphic" in2="effect1_dropShadow" result="shape"/>
</filter>
</defs>
</svg>
