<svg width="169" height="169" viewBox="0 0 169 169" fill="none" xmlns="http://www.w3.org/2000/svg">
<path d="M84.5025 159L102.138 141.371C123.314 135.833 140.552 120.569 148.783 100.621C152.147 92.4569 154 83.5145 154 74.1404C154 64.7662 152.147 55.8238 148.778 47.6597C145.253 39.119 140.08 31.4369 133.638 25.005L84.4975 74.1404L35.3521 25C22.7783 37.5776 15 54.9502 15 74.1404C15 106.43 37.0293 133.579 66.872 141.381L84.5025 159Z" fill="#00B7FF"/>
<g filter="url(#filter0_d)">
<path d="M84.5 134C51.6384 134 25 107.362 25 74.5C25 41.6384 51.6384 15 84.5 15C109.333 15 130.611 30.2141 139.527 51.826C142.409 58.8122 144 66.4716 144 74.495C144 82.5234 142.409 90.1778 139.527 97.169C130.611 118.786 109.333 134 84.5 134Z" fill="#F9F9F9"/>
</g>
<path d="M92.7969 69.0703C88.5314 69.0703 85.0625 72.5392 85.0625 76.8047H100.531C100.531 72.5392 97.0624 69.0703 92.7969 69.0703Z" fill="#7D8189"/>
<path d="M92.7969 61.3359C94.9327 61.3359 96.6641 59.6045 96.6641 57.4688C96.6641 55.333 94.9327 53.6016 92.7969 53.6016C90.6611 53.6016 88.9297 55.333 88.9297 57.4688C88.9297 59.6045 90.6611 61.3359 92.7969 61.3359Z" fill="#7D8189"/>
<path d="M104.398 80.6719H81.1953V76.8047C81.1953 70.4071 86.3993 65.2031 92.7969 65.2031C88.5314 65.2031 85.0625 61.7343 85.0625 57.4688C85.0625 53.2032 88.5314 49.7344 92.7969 49.7344C97.0624 49.7344 100.531 53.2032 100.531 57.4688C100.531 61.7343 97.0624 65.2031 92.7969 65.2031C99.1945 65.2031 104.398 70.4071 104.398 76.8047V80.6719ZM92.7969 42C80.0016 42 69.5938 52.4079 69.5938 65.2031C69.5938 70.9059 71.6704 76.1266 75.0955 80.1704L72.2054 83.0605L69.4713 80.3264L50 99.7977L58.2023 108L77.6736 88.5287L74.9395 85.7946L77.8296 82.9045C81.8734 86.3296 87.0941 88.4062 92.7969 88.4062C105.592 88.4062 116 77.9984 116 65.2031C116 52.4079 105.592 42 92.7969 42Z" fill="#7D8189"/>
<defs>
<filter id="filter0_d" x="0" y="0" width="169" height="169" filterUnits="userSpaceOnUse" color-interpolation-filters="sRGB">
<feFlood flood-opacity="0" result="BackgroundImageFix"/>
<feColorMatrix in="SourceAlpha" type="matrix" values="0 0 0 0 0 0 0 0 0 0 0 0 0 0 0 0 0 0 127 0"/>
<feOffset dy="10"/>
<feGaussianBlur stdDeviation="12.5"/>
<feColorMatrix type="matrix" values="0 0 0 0 0 0 0 0 0 0 0 0 0 0 0 0 0 0 0.2 0"/>
<feBlend mode="normal" in2="BackgroundImageFix" result="effect1_dropShadow"/>
<feBlend mode="normal" in="SourceGraphic" in2="effect1_dropShadow" result="shape"/>
</filter>
</defs>
</svg>
