<svg width="76" height="76" viewBox="0 0 76 76" fill="none" xmlns="http://www.w3.org/2000/svg">
<path d="M66.4001 35.3684L57.4932 26.463V16.1742C57.4932 14.3149 55.9865 12.8069 54.1224 12.8069C52.2627 12.8069 50.756 14.3149 50.756 16.1742V19.7254L44.1241 13.0946C40.8452 9.81771 35.1432 9.82364 31.8717 13.1005L9.59873 35.3684C8.2848 36.6851 8.2848 38.8173 9.59873 40.131C10.9141 41.4477 13.0496 41.4477 14.365 40.131L36.6351 17.8631C37.3617 17.141 38.64 17.141 39.3608 17.8616L61.6337 40.131C62.2952 40.7893 63.1553 41.117 64.0169 41.117C64.88 41.117 65.7416 40.7893 66.4001 40.131C67.7155 38.8173 67.7155 36.6851 66.4001 35.3684Z" fill="#7D8189"/>
<path d="M39.1695 24.2567C38.5229 23.6102 37.4744 23.6102 36.8293 24.2567L17.2391 43.8378C16.9291 44.1462 16.7541 44.5688 16.7541 45.0092V59.2925C16.7541 62.6435 19.4724 65.3599 22.824 65.3599H32.5227V50.3412H43.4731V65.3599H53.1733C56.5248 65.3599 59.2432 62.6435 59.2432 59.2925V45.0092C59.2432 44.5688 59.0697 44.1462 58.7582 43.8378L39.1695 24.2567Z" fill="#7D8189"/>
</svg>
