<svg width="76" height="76" viewBox="0 0 76 76" fill="none" xmlns="http://www.w3.org/2000/svg">
<path d="M40.5217 19.1092C40.5627 19.1595 40.6036 19.211 40.6527 19.2718H43.9869C44.5964 19.2707 45.0912 18.7769 45.0924 18.1674C45.0924 17.5485 45.4972 17.2454 46.1055 17.2454H51.5267C51.6835 17.2454 51.8402 17.2255 51.9923 17.1846C53.1868 16.7915 53.8992 15.57 53.6547 14.338C52.9458 12.0788 51.1114 9.12107 46.3278 9.12107C38.7482 9.12107 37.0671 14.9148 40.3895 18.9571C40.4305 19.0098 40.4749 19.0601 40.5217 19.1092Z" fill="#7D8189"/>
<path d="M53.9261 56.8049L36.1955 38.9533L36.1862 38.9451C36.1663 38.9662 36.1522 38.9896 36.1312 39.0095C35.462 39.6342 34.5647 39.9536 33.6511 39.8928L54.0501 62.828C54.7602 63.6271 55.8377 63.9933 56.8871 63.7956L64.1543 62.4232C66.0413 62.2629 67.4662 60.6413 67.3832 58.7494C67.4089 57.9995 67.0977 57.2788 66.535 56.7815C65.9735 56.2843 65.2189 56.0655 64.4772 56.1825C64.3333 56.2035 64.1824 56.2293 64.0245 56.2597L56.6414 57.6508C55.654 57.8357 54.6362 57.5186 53.9261 56.8049Z" fill="#7D8189"/>
<path d="M34.4126 67.3476C35.1766 67.8495 36.1136 68.0145 37.0039 67.8039C37.893 67.5933 38.6569 67.0247 39.1144 66.2338L40.138 64.5315L34.2208 61.5726C34.1986 61.5632 34.1775 61.5492 34.16 61.5328L33.451 62.7379C32.5069 64.287 32.9269 66.304 34.4126 67.3476Z" fill="#7D8189"/>
<path d="M13.7936 67.3266L15.3835 66.3134L11.6048 60.9022C11.5943 60.8917 11.5849 60.8718 11.5744 60.8612L10.0851 61.8031C8.55964 62.828 8.15486 64.8942 9.1785 66.4198C10.2021 67.9455 12.2681 68.3515 13.7936 67.3266Z" fill="#7D8189"/>
<path d="M17.0962 65.2194C21.3791 62.4969 25.0466 58.9109 27.8672 54.6907L28.5258 53.6881C28.9353 53.075 29.6232 52.7065 30.3602 52.7053H39.3788L35.1941 59.7884L41.1113 62.7473C41.1359 62.759 41.1593 62.7718 41.1815 62.7882L45.255 55.9894L29.732 38.538C28.9412 40.3772 27.9924 42.1438 26.895 43.8169L21.282 52.3484C19.5401 54.9985 17.2576 57.2495 14.5845 58.9553L13.2883 59.7767L17.0775 65.1878C17.0857 65.1995 17.0857 65.2089 17.0962 65.2194Z" fill="#7D8189"/>
<path d="M24.4722 23.3071C22.2413 25.4002 22.1243 28.902 24.209 31.1402L29.3459 36.6227L34.0476 31.9205L32.6496 30.4709C32.5935 30.4136 32.5455 30.3481 32.5081 30.2779L30.1578 27.7542L34.5343 27.1458L33.8148 28.8482C33.9248 28.9008 34.0242 28.9733 34.1085 29.0611L38.3235 33.4181C39.539 34.7051 39.5297 36.9339 38.7692 38.6667L41.4541 41.3728L43.43 38.1402L43.5412 40.4708C43.5809 41.6618 43.7541 42.8447 44.0582 43.9971L51.4659 51.4546L54.3133 49.4679C54.3344 49.4516 54.359 49.4375 54.3835 49.4282L52.0321 45.3753C50.8844 43.3618 50.2305 41.1037 50.1275 38.7883L49.7824 30.8535C49.697 29.0482 48.7412 27.3974 47.2192 26.4251L43.4136 24.0033C44.4244 24.5929 45.5732 24.9053 46.7431 24.9053C50.0644 24.9112 52.803 22.3056 52.9645 18.9875C52.8323 19.0378 52.6907 19.0893 52.5492 19.1291C52.2169 19.2239 51.8718 19.2718 51.5255 19.2707H46.9162C46.4541 20.4875 45.2901 21.2936 43.988 21.2971H40.9078C41.3816 22.2951 42.1174 23.1468 43.0358 23.7599L39.3062 21.3883C38.1176 20.6267 36.6799 20.3541 35.2936 20.6279L26.3768 22.3302C25.6632 22.4706 25.0022 22.8075 24.4722 23.3071Z" fill="#7D8189"/>
<path d="M55.3662 55.3799C55.4235 55.436 55.4891 55.4828 55.5593 55.5214C56.3688 54.4626 56.4659 53.02 55.8026 51.8629L55.4072 51.1738L52.9153 52.9171L55.3662 55.3799Z" fill="#7D8189"/>
<path d="M36.2061 36.095L37.1689 37.0685C37.4239 36.3103 37.3069 35.4785 36.8542 34.8186L35.4562 33.369L31.1195 37.7073L33.7938 37.8687C34.1155 37.8851 34.4325 37.7845 34.6852 37.5856L36.2061 36.095Z" fill="#7D8189"/>
<path d="M22.8005 10.1331H33.9459C34.5051 10.1331 34.959 9.67915 34.959 9.11989C34.959 8.55947 34.5051 8.10669 33.9459 8.10669H22.8005C22.2401 8.10669 21.7874 8.56064 21.7874 9.11989C21.7874 9.67915 22.2413 10.1331 22.8005 10.1331Z" fill="#7D8189"/>
<path d="M33.9459 14.1859C34.5051 14.1859 34.959 13.732 34.959 13.1727C34.959 12.6123 34.5051 12.1595 33.9459 12.1595H28.8803C28.3211 12.1595 27.866 12.6135 27.866 13.1727C27.866 13.732 28.3199 14.1859 28.8803 14.1859H33.9459Z" fill="#7D8189"/>
<path d="M16.7207 38.5075H23.8136C24.3728 38.5075 24.8267 38.0536 24.8267 37.4943C24.8267 36.9351 24.3728 36.4811 23.8136 36.4811H16.7207C16.1615 36.4811 15.7076 36.9351 15.7076 37.4943C15.7076 38.0536 16.1615 38.5075 16.7207 38.5075Z" fill="#7D8189"/>
<path d="M23.8148 40.534H20.7743C20.2151 40.534 19.7612 40.9879 19.7612 41.5472C19.7612 42.1064 20.2151 42.5604 20.7743 42.5604H23.8148C24.374 42.5604 24.8279 42.1064 24.8279 41.5472C24.8267 40.9879 24.374 40.534 23.8148 40.534Z" fill="#7D8189"/>
</svg>
