<svg width="76" height="76" viewBox="0 0 76 76" fill="none" xmlns="http://www.w3.org/2000/svg">
<path d="M37.7472 37.5345C44.1298 37.5345 49.3207 32.3826 49.3207 26.0495V20.0983C49.3207 13.7651 44.1298 8.61328 37.7472 8.61328C31.3646 8.61328 26.1737 13.7651 26.1737 20.0983V26.0483C26.1737 32.3814 31.3646 37.5345 37.7472 37.5345Z" fill="#7D8189"/>
<path d="M63.2693 52.4999C59.5639 46.2338 53.6397 41.5873 46.5902 39.4187C46.4267 39.3681 46.2502 39.4116 46.1282 39.5303C42.8492 42.7392 38.7742 45.2417 37.7555 45.847C36.668 45.1571 32.0872 42.195 29.3638 39.5303C29.243 39.4105 29.0641 39.3681 28.9018 39.4187C21.8511 41.5885 15.9281 46.2338 12.2239 52.5011C12.1386 52.6445 12.1386 52.8232 12.2239 52.9666C17.4847 61.861 27.2635 67.3866 37.746 67.3866C48.2285 67.3866 58.0085 61.861 63.2693 52.9666C63.3546 52.822 63.3546 52.6433 63.2693 52.4999ZM45.1864 56.3729H41.9169C41.6611 56.3729 41.4502 56.179 41.4502 55.9263V53.157C41.4502 52.9031 41.6611 52.6986 41.9169 52.6986H45.1864C45.4423 52.6986 45.6164 52.4917 45.6164 52.2378V49.0172C45.6164 48.7633 45.8569 48.5634 46.1128 48.5634H48.8978C49.1524 48.5634 49.3207 48.7633 49.3207 49.0172V52.2472C49.3207 52.5011 49.5682 52.6986 49.8241 52.6986H52.9894C53.244 52.6986 53.4869 52.9125 53.4869 53.1664V55.9263C53.4869 56.1802 53.244 56.3729 52.9894 56.3729H49.8549C49.599 56.3729 49.3207 56.5904 49.3207 56.8443V60.0602C49.3207 60.3129 49.1844 60.5069 48.9286 60.5069H46.114C45.8581 60.5069 45.6176 60.3141 45.6176 60.0602V56.8443C45.6164 56.5904 45.4423 56.3729 45.1864 56.3729Z" fill="#7D8189"/>
</svg>
