<svg width="76" height="76" viewBox="0 0 76 76" fill="none" xmlns="http://www.w3.org/2000/svg">
<path d="M36.0108 8.56748V14.5099C36.0108 15.6046 36.9006 16.4907 37.9999 16.4907C39.0992 16.4907 39.9889 15.6046 39.9889 14.5099V8.56748C39.9889 7.47275 39.0992 6.58667 37.9999 6.58667C36.9006 6.58667 36.0108 7.47275 36.0108 8.56748Z" fill="#7D8189"/>
<path d="M20.6818 15.0909C19.9047 15.8648 19.9047 17.118 20.6818 17.8918L24.6599 21.8534C25.437 22.6273 26.6954 22.6273 27.4724 21.8534C28.2495 21.0796 28.2495 19.8264 27.4724 19.0526L23.4943 15.0909C22.7173 14.3171 21.4588 14.3171 20.6818 15.0909Z" fill="#7D8189"/>
<path d="M52.5068 15.0909L48.5287 19.0526C47.7516 19.8264 47.7516 21.0796 48.5287 21.8534C49.3057 22.6273 50.5641 22.6273 51.3412 21.8534L55.3193 17.8918C56.0964 17.118 56.0964 15.8648 55.3193 15.0909C54.5423 14.3171 53.2838 14.3171 52.5068 15.0909Z" fill="#7D8189"/>
<path d="M69.9575 34.318H63.8577V62.0493H69.9575C71.0568 62.0493 71.9465 61.1632 71.9465 60.0685V36.2988C71.9465 35.2041 71.0568 34.318 69.9575 34.318Z" fill="#7D8189"/>
<path d="M4.05322 36.2988V60.0685C4.05322 61.1632 4.943 62.0493 6.04229 62.0493H12.1421V34.318H6.04229C4.943 34.318 4.05322 35.2041 4.05322 36.2988Z" fill="#7D8189"/>
<path d="M32.9225 38.4882L26.8678 50.5514C27.8822 50.9937 28.9536 51.2182 30.0489 51.2182C33.0776 51.2182 35.8026 49.5372 37.1605 46.8288L38.4693 44.2207H42.3188C43.3664 44.2207 44.3914 44.6446 45.1313 45.3814L59.8783 60.0671V36.2975H36.4816C34.9646 36.2988 33.6001 37.1386 32.9225 38.4882Z" fill="#7D8189"/>
<path d="M40.9291 48.1836L40.8138 48.4121C38.9347 52.1545 35.2709 54.7956 31.0833 55.1363C28.0029 55.3872 25.8679 54.505 23.3352 53.3575C22.3062 52.8913 21.858 51.6659 22.3632 50.6596L29.3607 36.7174C30.708 34.0327 33.4648 32.3359 36.4789 32.3359H45.0624C45.6127 31.121 45.9535 29.7938 45.9535 28.3742C45.9535 27.2795 45.0637 26.3934 43.9644 26.3934H28.5253C26.2644 26.3934 24.1984 27.6651 23.1867 29.6789L21.4085 33.2219C21.0716 33.8928 20.3821 34.3167 19.6289 34.3167H16.1202V62.048H25.242L30.8777 67.6589C32.5114 69.2858 34.8638 69.7995 36.894 69.1234L53.8806 63.8056C54.8963 63.5204 55.7516 62.9644 56.4491 62.2513L42.3201 48.1836H40.9291Z" fill="#7D8189"/>
</svg>
