<svg width="76" height="76" viewBox="0 0 76 76" fill="none" xmlns="http://www.w3.org/2000/svg">
<path d="M31.1373 23.1156H44.3622C45.9944 23.1156 47.3223 21.7985 47.3223 20.1761V13.735H44.9706C44.1772 10.5075 41.2406 8.10669 37.7505 8.10669C34.2605 8.10669 31.3239 10.5091 30.5305 13.735H28.1787V20.1761C28.1772 21.7969 29.5051 23.1156 31.1373 23.1156Z" fill="#7D8189"/>
<path d="M50.9755 39.627H37.7505C36.7753 39.627 35.9867 38.8423 35.9867 37.8755C35.9867 36.9086 36.7769 36.1239 37.7505 36.1239H50.9739C51.9475 36.1239 52.7377 36.9086 52.7377 37.8755C52.7393 38.8423 51.9491 39.627 50.9755 39.627ZM50.9755 50.8837H37.7505C36.7753 50.8837 35.9867 50.099 35.9867 49.1322C35.9867 48.1653 36.7769 47.3806 37.7505 47.3806H50.9739C51.9475 47.3806 52.7377 48.1653 52.7377 49.1322C52.7393 50.099 51.9491 50.8837 50.9755 50.8837ZM50.9755 62.1404H37.7505C36.7753 62.1404 35.9867 61.3573 35.9867 60.3889C35.9867 59.422 36.7769 58.6373 37.7505 58.6373H50.9739C51.9475 58.6373 52.7377 59.422 52.7377 60.3889C52.7393 61.3557 51.9491 62.1404 50.9755 62.1404ZM31.4399 35.361L27.6613 39.1132C27.3164 39.4558 26.8664 39.627 26.4149 39.627C25.9633 39.627 25.5118 39.4558 25.1684 39.1132L23.2776 37.2371C22.5893 36.5536 22.5893 35.4435 23.2776 34.76C23.9659 34.0765 25.0838 34.0765 25.7721 34.76L26.4149 35.3984L28.9454 32.8855C29.6337 32.202 30.7516 32.202 31.4399 32.8855C32.1282 33.569 32.1282 34.6775 31.4399 35.361ZM31.4399 46.6177L27.6613 50.3699C27.3164 50.7125 26.8664 50.8837 26.4149 50.8837C25.9633 50.8837 25.5118 50.7125 25.1684 50.3699L23.2791 48.4938C22.5909 47.8103 22.5909 46.7002 23.2791 46.0167C23.969 45.3332 25.0853 45.3332 25.7736 46.0167L26.4164 46.6535L28.9485 44.1406C29.6368 43.4571 30.7547 43.4571 31.443 44.1406C32.1282 44.8257 32.1282 45.9342 31.4399 46.6177ZM31.4399 57.8744L27.6613 61.6267C27.3164 61.9676 26.8664 62.1404 26.4149 62.1404C25.9633 62.1404 25.5118 61.9692 25.1684 61.6267L23.2791 59.7505C22.5909 59.067 22.5909 57.9569 23.2791 57.2734C23.969 56.5884 25.0853 56.5884 25.7736 57.2734L26.4164 57.9118L28.947 55.3973C29.6353 54.7138 30.7532 54.7138 31.4414 55.3973C32.1282 56.0824 32.1282 57.1909 31.4399 57.8744ZM53.8086 13.735H50.8485V20.1761C50.8485 23.7291 47.9385 26.6188 44.3607 26.6188H31.1357C27.5594 26.6188 24.6479 23.7291 24.6479 20.1761V13.735H21.6878C18.1115 13.735 15.2 16.6247 15.2 20.1761V61.4507C15.2 65.0021 18.1099 67.8934 21.6878 67.8934H53.8055C57.3818 67.8934 60.2933 65.0037 60.2933 61.4507V20.1761C60.2949 16.6247 57.3849 13.735 53.8086 13.735Z" fill="#7D8189"/>
</svg>
