<svg width="76" height="76" viewBox="0 0 76 76" fill="none" xmlns="http://www.w3.org/2000/svg">
<path d="M16.4689 44.6677C12.9759 44.6677 10.1346 47.4904 10.1346 50.9605C10.1346 54.4306 12.9759 57.2533 16.4689 57.2533C19.9619 57.2533 22.8032 54.4306 22.8032 50.9605C22.8018 47.4904 19.9605 44.6677 16.4689 44.6677ZM16.4689 54.7344C14.3743 54.7344 12.6686 53.0399 12.6686 50.959C12.6686 48.8782 14.3743 47.1837 16.4689 47.1837C18.5636 47.1837 20.2692 48.8782 20.2692 50.959C20.2692 53.0414 18.5636 54.7344 16.4689 54.7344Z" fill="#7D8189"/>
<path d="M59.5384 44.6677C56.0454 44.6677 53.2041 47.4904 53.2041 50.9605C53.2041 54.4306 56.0454 57.2533 59.5384 57.2533C63.0315 57.2533 65.8727 54.4306 65.8727 50.9605C65.8727 47.4904 63.0315 44.6677 59.5384 44.6677ZM59.5384 54.7344C57.4438 54.7344 55.7381 53.0399 55.7381 50.959C55.7381 48.8782 57.4438 47.1837 59.5384 47.1837C61.6331 47.1837 63.3387 48.8782 63.3387 50.959C63.3387 53.0414 61.6331 54.7344 59.5384 54.7344Z" fill="#7D8189"/>
<path d="M74.7396 44.6677V37.1169C74.7396 36.5742 74.3908 36.0934 73.8727 35.9224L66.7219 33.5554C63.603 28.3952 59.2133 25.1817 52.9829 23.5019L51.8993 19.1927C51.7567 18.6338 51.252 18.24 50.6701 18.24H36.7352C36.1533 18.24 35.6485 18.6338 35.506 19.1927L34.2398 24.226C34.2383 24.229 34.2398 24.2319 34.2398 24.2349C27.4304 25.748 22.2495 28.7595 18.4077 33.3519C10.7611 33.4595 2.6513 35.6451 1.26627 39.6329V44.6662C0.565595 44.6662 0 45.2296 0 45.9242V50.9576C0 51.6522 0.565595 52.2155 1.26627 52.2155H6.33284C7.03352 52.2155 7.59911 51.6522 7.59911 50.9576C7.59911 46.0997 11.5775 42.1488 16.466 42.1488C21.3544 42.1488 25.3328 46.0997 25.3328 50.9576C25.3328 51.6522 25.8984 52.2155 26.5991 52.2155H49.4009C50.1015 52.2155 50.6671 51.6522 50.6671 50.9576C50.6671 46.0997 54.6456 42.1488 59.534 42.1488C64.4224 42.1488 68.4008 46.0997 68.4008 50.9576C68.4008 51.6522 68.9664 52.2155 69.6671 52.2155H74.7337C75.4344 52.2155 76 51.6522 76 50.9576V45.9257C76.0059 45.2311 75.4403 44.6677 74.7396 44.6677ZM30.4024 41.5206C30.4024 41.8671 30.1188 42.1503 29.7685 42.1503H27.2345C26.8841 42.1503 26.6006 41.8686 26.6006 41.5206V39.0032C26.6006 38.6566 26.8841 38.3734 27.2345 38.3734H29.7685C30.1188 38.3734 30.4024 38.6551 30.4024 39.0032V41.5206ZM35.4704 47.8134C35.4704 48.1614 35.1869 48.4431 34.8365 48.4431H32.3025C31.9536 48.4431 31.6686 48.1614 31.6686 47.8134V45.296C31.6686 44.9479 31.9522 44.6662 32.3025 44.6662H34.8365C35.1854 44.6662 35.4704 44.9479 35.4704 45.296V47.8134ZM40.537 41.5206C40.537 41.8671 40.2534 42.1503 39.9031 42.1503H37.3691C37.0187 42.1503 36.7352 41.8686 36.7352 41.5206V39.0032C36.7352 38.6566 37.0187 38.3734 37.3691 38.3734H39.9031C40.2534 38.3734 40.537 38.6551 40.537 39.0032V41.5206ZM39.5483 33.3415H21.8116C25.174 29.9761 30.7661 26.537 41.4574 25.7524L39.5483 33.3415ZM45.6035 47.8134C45.6035 48.1614 45.32 48.4431 44.9697 48.4431H42.4356C42.0853 48.4431 41.8017 48.1614 41.8017 47.8134V45.296C41.8017 44.9479 42.0853 44.6662 42.4356 44.6662H44.9697C45.32 44.6662 45.6035 44.9479 45.6035 45.296V47.8134ZM50.6716 41.5206C50.6716 41.8671 50.3881 42.1503 50.0377 42.1503H47.5037C47.1548 42.1503 46.8698 41.8686 46.8698 41.5206V39.0032C46.8698 38.6566 47.1533 38.3734 47.5037 38.3734H50.0377C50.3866 38.3734 50.6716 38.6551 50.6716 39.0032V41.5206ZM55.9326 33.3415H42.161L44.1027 25.6212C46.4215 25.5519 48.954 25.5946 51.7285 25.7804C53.6435 26.2553 55.3537 26.8703 56.8901 27.6416L55.9326 33.3415ZM58.4993 33.3415L59.2193 29.0485C60.8804 30.2136 62.3159 31.6205 63.5555 33.3415H58.4993Z" fill="#7D8189"/>
</svg>
