<svg width="76" height="76" viewBox="0 0 76 76" fill="none" xmlns="http://www.w3.org/2000/svg">
<path d="M49.0075 45.7953C47.5305 47.9675 46.1237 50.0172 46.1237 52.7499C46.1237 53.9586 45.0335 54.9221 44.2246 55.4827H31.7926C30.9837 54.9221 29.8935 53.9586 29.8935 52.7499C29.8935 50.0172 28.4868 47.9676 26.9921 45.7604C25.1106 43.0101 23.0005 39.9094 23.0005 34.549C23.0005 26.666 29.7353 20.2546 38.0174 20.2371C46.3172 20.2371 53.0519 26.6485 53.0519 34.549C53.0343 39.9269 50.9066 43.0451 49.0075 45.7953ZM37.9998 15.1919C26.9218 15.1919 17.8835 23.8807 17.8835 34.5665C17.8835 41.5035 20.7146 45.6202 22.7895 48.6683C24.0731 50.5427 24.7941 51.6463 24.7941 52.7675C24.7941 55.2725 26.1481 57.6374 28.5395 59.4242C28.5923 60.9132 28.8209 64.5568 28.8209 64.5568C28.856 65.5904 29.4012 67.7101 32.9883 68.8838C33.4104 69.4969 33.9555 70.0399 34.6237 70.4954C35.0457 70.7757 35.538 70.9333 36.048 70.9333H39.9341C40.444 70.9333 40.9364 70.7757 41.3584 70.4954C42.0266 70.0399 42.5893 69.4969 43.0113 68.8838C46.6161 67.6926 47.1436 65.5378 47.1612 64.5393C47.1612 64.5393 47.3722 60.9132 47.4425 59.4066C49.8516 57.6373 51.188 55.255 51.188 52.7499C51.188 51.6288 51.9089 50.5252 53.2102 48.6333C55.2675 45.6203 58.0986 41.5035 58.0986 34.5665C58.1162 23.8807 49.0955 15.1919 37.9998 15.1919Z" fill="#7D8189"/>
<path d="M37.9998 11.3906C38.7032 11.3906 39.2659 10.83 39.2659 10.1293V6.32798C39.2659 5.62727 38.7032 5.06665 37.9998 5.06665C37.2965 5.06665 36.7338 5.62727 36.7338 6.32798V10.1293C36.7338 10.83 37.2965 11.3906 37.9998 11.3906Z" fill="#7D8189"/>
<path d="M24.4952 14.0708C24.7413 14.4737 25.1634 14.7014 25.603 14.7014C25.814 14.7014 26.0426 14.6489 26.236 14.5263C26.8514 14.1759 27.0449 13.4052 26.7108 12.7921L24.7941 9.49871C24.4424 8.88559 23.6687 8.69288 23.0533 9.04324C22.4554 9.39359 22.2444 10.1644 22.5961 10.7775L24.4952 14.0708Z" fill="#7D8189"/>
<path d="M17.145 21.3757L13.8391 19.4838C13.2413 19.1335 12.45 19.3436 12.0983 19.9568C11.7466 20.5524 11.9576 21.3407 12.5731 21.6911L15.8789 23.5829C16.0723 23.7056 16.3009 23.7582 16.5119 23.7582C16.9515 23.7582 17.3736 23.5304 17.6197 23.1275C17.9714 22.5143 17.7604 21.7436 17.145 21.3757Z" fill="#7D8189"/>
<path d="M14.4546 34.8468C14.4546 34.1461 13.8919 33.5855 13.1885 33.5855H9.37275C8.66938 33.5855 8.10669 34.1636 8.10669 34.8468C8.10669 35.5475 8.66938 36.1081 9.37275 36.1081H13.1885C13.8919 36.1081 14.4546 35.5475 14.4546 34.8468Z" fill="#7D8189"/>
<path d="M15.8789 46.1107L12.5731 48.0201C11.9576 48.3704 11.7642 49.1412 12.0983 49.7368C12.3269 50.1397 12.7665 50.3675 13.1885 50.3675C13.3995 50.3675 13.6281 50.3149 13.8216 50.1922L17.1274 48.3004C17.7252 47.9501 17.9363 47.1617 17.5846 46.5661C17.2681 45.9529 16.4944 45.7603 15.8789 46.1107Z" fill="#7D8189"/>
<path d="M63.4442 48.0026L60.1383 46.0932C59.5405 45.7429 58.7668 45.9531 58.3975 46.5487C58.0458 47.1443 58.2568 47.9326 58.8723 48.2829L62.1781 50.1748C62.3715 50.2974 62.6001 50.35 62.8111 50.35C63.2507 50.35 63.6728 50.1223 63.9189 49.7194C64.253 49.1238 64.042 48.3529 63.4442 48.0026Z" fill="#7D8189"/>
<path d="M66.6269 33.568H62.8111C62.1078 33.568 61.5451 34.1461 61.5451 34.8293C61.5451 35.53 62.1078 36.0906 62.8111 36.0906H66.6269C67.3303 36.0906 67.893 35.53 67.893 34.8293C67.9106 34.1461 67.3303 33.568 66.6269 33.568Z" fill="#7D8189"/>
<path d="M59.5053 23.7406C59.7163 23.7406 59.9449 23.688 60.1383 23.5654L63.4442 21.6736C64.0596 21.3232 64.2706 20.5524 63.9014 19.9393C63.5497 19.3262 62.776 19.1335 62.1605 19.4663L58.8547 21.3582C58.2568 21.7086 58.0282 22.4794 58.3799 23.0925C58.6261 23.5129 59.0657 23.7406 59.5053 23.7406Z" fill="#7D8189"/>
<path d="M49.7812 14.5263C49.9747 14.6489 50.2033 14.7014 50.4143 14.7014C50.8539 14.7014 51.2759 14.4737 51.5221 14.0708L53.4212 10.7774C53.7729 10.1818 53.5618 9.39356 52.9464 9.04321C52.3485 8.69285 51.5748 8.90308 51.2231 9.49869L49.3065 12.792C48.9548 13.4051 49.1658 14.1759 49.7812 14.5263Z" fill="#7D8189"/>
<path d="M36.2942 42.4846C36.4524 43.6057 36.9975 43.921 37.9998 43.921C39.0021 43.921 39.5472 43.6057 39.7055 42.4846L40.9012 33.4454C40.9716 32.8322 41.0595 32.2017 41.0595 31.6411V27.1566C41.0595 25.1946 39.9341 24.1961 37.9998 24.1961C36.0656 24.1961 34.9402 25.1946 34.9402 27.1566V31.6411C34.9402 32.2192 35.0105 32.8322 35.0984 33.4454L36.2942 42.4846Z" fill="#7D8189"/>
<path d="M37.9998 46.4261C36.259 46.4261 34.8171 47.845 34.8171 49.5792C34.8171 51.3135 36.259 52.7499 37.9998 52.7499C39.7407 52.7499 41.1826 51.3135 41.1826 49.5792C41.1826 47.8625 39.7582 46.4261 37.9998 46.4261Z" fill="#7D8189"/>
</svg>
