<svg width="89" height="100" viewBox="0 0 89 100" fill="none" xmlns="http://www.w3.org/2000/svg">
<path d="M39.4812 5.91213C42.5848 4.11131 46.4152 4.11131 49.5188 5.91213L80.0188 23.6097C83.1022 25.3988 85 28.6941 85 32.259V67.741C85 71.3059 83.1022 74.6012 80.0188 76.3903L49.5188 94.0879C46.4152 95.8887 42.5848 95.8887 39.4812 94.0879L8.98122 76.3903C5.8978 74.6012 4 71.3059 4 67.741V32.259C4 28.6941 5.8978 25.3988 8.98122 23.6097L39.4812 5.91213Z" stroke="#00B6F0" stroke-width="8" stroke-linecap="round" stroke-linejoin="round"/>
<path d="M37.1245 64.0101L34.3871 65.9885C33.9805 66.2828 33.8097 66.8043 33.9649 67.2808L35.0673 70.4816C35.1142 70.6241 35.1316 70.763 35.1261 70.8964C35.0866 71.7564 34.0117 72.3441 33.2231 71.7738L30.4858 69.7945C30.282 69.6473 30.0424 69.5738 29.8028 69.5738C29.5632 69.5738 29.3236 69.6473 29.1199 69.7945L26.3834 71.7738C25.5949 72.3441 24.5144 71.7554 24.4805 70.8964C24.475 70.763 24.4933 70.6241 24.5401 70.4816L25.6417 67.2808C25.7977 66.8043 25.627 66.2828 25.2194 65.9885L22.4811 64.0101C21.5705 63.3515 22.0387 61.7907 23.1641 61.7907H26.5468C27.0508 61.7907 27.496 61.5966 27.652 61.1202L28.6976 57.8982C28.872 57.3666 29.3374 57.0999 29.8028 57.0999C30.2682 57.0999 30.7336 57.3666 30.908 57.8982L31.9536 61.1202C32.1087 61.5966 32.5549 61.7907 33.0588 61.7907H36.4415C37.5669 61.7907 38.0351 63.3515 37.1245 64.0101ZM68.5188 64.0101L65.7814 65.9885C65.3748 66.2828 65.204 66.8043 65.3592 67.2808L66.4617 70.4816C66.5085 70.6241 66.5259 70.763 66.5204 70.8964C66.4809 71.7564 65.406 72.3441 64.6175 71.7738L61.8801 69.7945C61.6763 69.6473 61.4367 69.5738 61.1971 69.5738C60.9575 69.5738 60.718 69.6473 60.5142 69.7945L57.7768 71.7738C56.9883 72.3441 55.9078 71.7554 55.8739 70.8964C55.8684 70.763 55.8867 70.6241 55.9335 70.4816L57.0351 67.2808C57.1911 66.8043 57.0204 66.2828 56.6128 65.9885L53.8755 64.0101C52.9648 63.3515 53.433 61.7907 54.5584 61.7907H57.9411C58.4442 61.7907 58.8912 61.5966 59.0463 61.1202L60.0919 57.8982C60.2654 57.3657 60.7308 57.0999 61.1971 57.0999C61.6625 57.0999 62.1279 57.3666 62.3024 57.8982L63.3479 61.1202C63.504 61.5966 63.9492 61.7907 64.4531 61.7907H67.8368C68.9613 61.7907 69.4294 63.3515 68.5188 64.0101ZM52.8216 57.5717L50.0843 59.5501C49.6776 59.8445 49.5069 60.366 49.662 60.8424L50.7645 64.0432C50.8113 64.1858 50.8287 64.3246 50.8232 64.458C50.7838 65.318 49.7088 65.9057 48.9203 65.3355L46.1829 63.3561C45.9792 63.209 45.7396 63.1354 45.5 63.1354C45.2604 63.1354 45.0208 63.209 44.817 63.3561L42.0796 65.3355C41.2911 65.9057 40.2107 65.318 40.1767 64.458C40.1712 64.3246 40.1896 64.1858 40.2364 64.0432L41.3379 60.8424C41.494 60.366 41.3232 59.8445 40.9157 59.5501L38.1783 57.5717C37.2677 56.9132 37.7358 55.3523 38.8613 55.3523H42.244C42.7479 55.3523 43.1941 55.1582 43.3492 54.6818L44.3948 51.4599C44.5682 50.9273 45.0337 50.6615 45.5 50.6615C45.9654 50.6615 46.4308 50.9282 46.6052 51.4599L47.6508 54.6818C47.8068 55.1582 48.252 55.3523 48.756 55.3523H52.1396C53.2641 55.3523 53.7323 56.9132 52.8216 57.5717ZM45.5 28.6791C49.1948 28.6791 52.2011 31.6913 52.2011 35.3934C52.2011 39.0954 49.1948 42.1077 45.5 42.1077C41.8052 42.1077 38.7989 39.0954 38.7989 35.3934C38.7989 31.6913 41.8052 28.6791 45.5 28.6791ZM29.6082 53.5698C29.9212 53.7804 30.2765 53.8807 30.6271 53.8807C31.2192 53.8807 31.8012 53.5937 32.1546 53.0639C35.1215 48.6224 40.0803 45.9707 45.4201 45.9707C50.7443 45.9707 55.6949 48.6104 58.6636 53.0317C59.229 53.8743 60.3701 54.0987 61.2118 53.5312C62.0527 52.9646 62.2757 51.8213 61.7103 50.9779C59.3383 47.4451 55.9372 44.8385 52.0515 43.4441C54.3822 41.5374 55.873 38.6365 55.873 35.3934C55.873 29.6623 51.2198 25 45.5 25C39.7802 25 35.127 29.6623 35.127 35.3934C35.127 38.6135 36.5957 41.496 38.8971 43.4036C34.9498 44.7934 31.4983 47.4313 29.1024 51.0184C28.5388 51.8627 28.7646 53.0051 29.6082 53.5698Z" fill="white"/>
</svg>
