<svg width="89" height="100" viewBox="0 0 89 100" fill="none" xmlns="http://www.w3.org/2000/svg">
<g opacity="0.9">
<path d="M39.4812 5.91213C42.5848 4.11131 46.4152 4.11131 49.5188 5.91213L80.0188 23.6097C83.1022 25.3988 85 28.6941 85 32.259V67.741C85 71.3059 83.1022 74.6012 80.0188 76.3903L49.5188 94.0879C46.4152 95.8887 42.5848 95.8887 39.4812 94.0879L8.98122 76.3903C5.8978 74.6012 4 71.3059 4 67.741V32.259C4 28.6941 5.8978 25.3988 8.98122 23.6097L39.4812 5.91213Z" stroke="#00B6F0" stroke-width="8" stroke-linecap="round" stroke-linejoin="round"/>
<path d="M60.8973 67.5579C60.8973 68.1537 60.4147 68.6362 59.819 68.6362H52.5814C51.9856 68.6362 51.5031 68.1537 51.5031 67.5579V64.1965C51.5031 63.6008 51.9856 63.1183 52.5814 63.1183H59.819C60.4147 63.1183 60.8973 63.6008 60.8973 64.1965V67.5579ZM61.2261 57.4063L51.7996 53.6352C51.5301 53.5274 51.2255 53.5328 50.9586 53.6541C50.6918 53.7727 50.4842 53.9964 50.3872 54.2714L48.0177 60.8217L47.5487 59.4739L48.2954 57.6489C48.4301 57.3174 48.3924 56.9373 48.1929 56.6408C47.9935 56.3416 47.6565 56.1637 47.298 56.1637H42.6939C42.3354 56.1637 41.9985 56.3416 41.799 56.6408C41.5968 56.94 41.5591 57.3174 41.6966 57.6489L42.4432 59.4739L41.9742 60.8217L39.6048 54.2714C39.505 53.9964 39.2975 53.7727 39.0333 53.6541C38.7665 53.5328 38.4619 53.5274 38.1923 53.6352L28.7658 57.4063C25.8707 58.5654 24 61.3284 24 64.4445V72.0569C24 72.6526 24.4825 73.1351 25.0782 73.1351H64.9218C65.5175 73.1351 66 72.6526 66 72.0569V64.4445C65.9919 61.3284 64.1212 58.5654 61.2261 57.4063ZM54.3119 43.0065C53.8644 44.7155 53.0666 44.9716 52.6299 44.9716C52.5975 44.9716 52.576 44.9689 52.5625 44.9689C52.0638 44.8422 51.6028 45.1037 51.3818 45.5754C50.9559 46.4946 49.6108 49.0958 48.5299 50.104C48.2334 50.3816 47.8182 50.6269 47.2953 50.8345C45.8289 51.4167 44.1549 51.4167 42.6912 50.8345C42.1683 50.6269 41.7532 50.3816 41.4567 50.104C40.3757 49.0958 39.0306 46.4946 38.6047 45.5754C38.4241 45.1845 38.0737 44.9392 37.6747 44.9392C37.5939 44.9392 37.5103 44.95 37.4267 44.9716C37.4132 44.9743 37.389 44.9743 37.3593 44.9743C36.9227 44.9743 36.1221 44.7182 35.6746 43.0092C35.4536 42.1682 35.4563 41.4969 35.68 41.1196C35.8094 40.9012 35.9954 40.8258 36.0547 40.8069C36.6342 40.7449 36.982 40.2381 36.9334 39.6532C36.9334 39.6397 36.893 39.1383 36.9442 38.3755C37.6855 38.0574 38.8716 37.4266 39.8716 36.3484C40.3811 35.7985 40.7531 35.1246 41.0173 34.5073C41.7397 35.0976 42.764 35.7904 44.1172 36.3888C46.4354 37.4131 51.0691 37.9037 53.0261 38.0682C53.107 38.9981 53.0585 39.6343 53.0585 39.6505C53.0072 40.2354 53.355 40.7422 53.9372 40.8069C53.9992 40.8258 54.1825 40.8985 54.3119 41.1196C54.5303 41.4943 54.533 42.1655 54.3119 43.0065ZM56.0991 39.9173C55.8376 39.5157 55.5222 39.2407 55.2257 39.0547C55.2257 38.5534 55.1934 37.8471 55.0721 37.0304C55.153 36.0572 55.4333 30.6957 52.1527 28.2778C50.1284 26.7871 47.8776 26 45.6375 26C43.818 26 42.0847 26.5175 40.7585 27.4556C39.5643 28.302 38.9039 29.2212 38.5562 29.8682C37.5265 29.9032 35.3889 30.3237 34.4454 33.049C33.5532 35.6233 34.2729 37.2163 34.8039 37.9522C34.7689 38.3781 34.7554 38.7555 34.7554 39.0547C34.4616 39.2407 34.1435 39.5157 33.8847 39.9173C33.2944 40.8285 33.192 42.0522 33.5855 43.5537C34.3187 46.3598 36.0304 46.9771 36.9469 47.1011C37.5103 48.2251 38.7449 50.5272 39.9848 51.6809C40.4781 52.1418 41.1224 52.5327 41.896 52.84C42.8826 53.2309 43.9258 53.4303 44.9933 53.4303C46.0607 53.4303 47.1039 53.2336 48.0932 52.84C48.8668 52.5327 49.5084 52.1418 50.0044 51.6809C51.2416 50.5245 52.4789 48.2251 53.0423 47.1011C53.9561 46.9771 55.6678 46.3598 56.401 43.5537C56.7919 42.0522 56.6894 40.8285 56.0991 39.9173Z" fill="white"/>
</g>
</svg>
