<svg width="89" height="100" viewBox="0 0 89 100" fill="none" xmlns="http://www.w3.org/2000/svg">
<path d="M39.4812 5.91213C42.5848 4.11131 46.4152 4.11131 49.5188 5.91213L80.0188 23.6097C83.1022 25.3988 85 28.6941 85 32.259V67.741C85 71.3059 83.1022 74.6012 80.0188 76.3903L49.5188 94.0879C46.4152 95.8887 42.5848 95.8887 39.4812 94.0879L8.98122 76.3903C5.8978 74.6012 4 71.3059 4 67.741V32.259C4 28.6941 5.8978 25.3988 8.98122 23.6097L39.4812 5.91213Z" stroke="#00B6F0" stroke-width="8" stroke-linecap="round" stroke-linejoin="round"/>
<path d="M50.2487 51.0864L41.0176 56.0716C40.8118 56.1835 40.5847 56.2385 40.3594 56.2385C40.1039 56.2385 39.8484 56.167 39.6248 56.0258C39.199 55.7599 38.94 55.2832 38.94 54.7717V44.8323C38.94 44.3208 39.199 43.844 39.6231 43.5782C40.0471 43.3123 40.574 43.294 41.014 43.5305L50.2452 48.4846C50.7153 48.7376 51.0098 49.2382 51.0098 49.7846C51.0116 50.3328 50.7171 50.8333 50.2487 51.0864ZM64.2844 36.7466C62.6965 34.7957 59.7637 34 54.1643 34H33.8356C28.1068 34 25.1261 34.8471 23.5436 36.9244C22 38.9505 22 41.9335 22 46.0644V53.9356C22 61.937 23.831 66 33.8356 66H54.1643C59.0221 66 61.7118 65.2978 63.454 63.5761C65.2389 61.8105 66 58.9264 66 53.9356V46.0644C66 41.708 65.8811 38.7066 64.2844 36.7466Z" fill="white"/>
</svg>
