<svg width="89" height="100" viewBox="0 0 89 100" fill="none" xmlns="http://www.w3.org/2000/svg">
<path d="M39.4812 5.91213C42.5848 4.11131 46.4152 4.11131 49.5188 5.91213L80.0188 23.6097C83.1022 25.3988 85 28.6941 85 32.259V67.741C85 71.3059 83.1022 74.6012 80.0188 76.3903L49.5188 94.0879C46.4152 95.8887 42.5848 95.8887 39.4812 94.0879L8.98122 76.3903C5.8978 74.6012 4 71.3059 4 67.741V32.259C4 28.6941 5.8978 25.3988 8.98122 23.6097L39.4812 5.91213Z" stroke="#00B6F0" stroke-width="8" stroke-linecap="round" stroke-linejoin="round"/>
<path d="M28.5312 47.625C29.5711 47.625 30.5121 47.2073 31.2082 46.5379L35.0238 48.4457C35.0049 48.6012 34.9766 48.7542 34.9766 48.9141C34.9766 51.0462 36.7116 52.7812 38.8438 52.7812C40.9759 52.7812 42.7109 51.0462 42.7109 48.9141C42.7109 48.3185 42.5648 47.7616 42.3234 47.2572L47.4994 42.0812C48.0038 42.3227 48.5607 42.4688 49.1562 42.4688C51.2884 42.4688 53.0234 40.7337 53.0234 38.6016C53.0234 38.2002 52.9444 37.8204 52.8301 37.456L57.328 34.0838C57.9416 34.4938 58.6773 34.7344 59.4688 34.7344C61.6009 34.7344 63.3359 32.9993 63.3359 30.8672C63.3359 28.7351 61.6009 27 59.4688 27C57.3366 27 55.6016 28.7351 55.6016 30.8672C55.6016 31.2685 55.6806 31.6484 55.7949 32.0127L51.297 35.3849C50.6834 34.975 49.9477 34.7344 49.1562 34.7344C47.0241 34.7344 45.2891 36.4695 45.2891 38.6016C45.2891 39.1971 45.4352 39.754 45.6766 40.2584L40.5006 45.4345C39.9962 45.193 39.4393 45.0469 38.8438 45.0469C37.8039 45.0469 36.8629 45.4645 36.1668 46.134L32.3512 44.2262C32.3701 44.0706 32.3984 43.9177 32.3984 43.7578C32.3984 41.6257 30.6634 39.8906 28.5312 39.8906C26.3991 39.8906 24.6641 41.6257 24.6641 43.7578C24.6641 45.8899 26.3991 47.625 28.5312 47.625Z" fill="white"/>
<path d="M64.7109 68.4219H63.3359V41.1797C63.3359 40.4673 62.7593 39.8906 62.0469 39.8906H56.8906C56.1782 39.8906 55.6016 40.4673 55.6016 41.1797V68.4219H53.0234V48.9141C53.0234 48.2016 52.4468 47.625 51.7344 47.625H46.5781C45.8657 47.625 45.2891 48.2016 45.2891 48.9141V68.4219H42.7109V59.2266C42.7109 58.5141 42.1343 57.9375 41.4219 57.9375H36.2656C35.5532 57.9375 34.9766 58.5141 34.9766 59.2266V68.4219H32.3984V54.0703C32.3984 53.3579 31.8218 52.7812 31.1094 52.7812H25.9531C25.2407 52.7812 24.6641 53.3579 24.6641 54.0703V68.4219H23.2891C22.5766 68.4219 22 68.9985 22 69.7109C22 70.4234 22.5766 71 23.2891 71H64.7109C65.4234 71 66 70.4234 66 69.7109C66 68.9985 65.4234 68.4219 64.7109 68.4219Z" fill="white"/>
</svg>
