<svg width="89" height="100" viewBox="0 0 89 100" fill="none" xmlns="http://www.w3.org/2000/svg">
<path d="M39.4812 5.91213C42.5848 4.11131 46.4152 4.11131 49.5188 5.91213L80.0188 23.6097C83.1022 25.3988 85 28.6941 85 32.259V67.741C85 71.3059 83.1022 74.6012 80.0188 76.3903L49.5188 94.0879C46.4152 95.8887 42.5848 95.8887 39.4812 94.0879L8.98122 76.3903C5.8978 74.6012 4 71.3059 4 67.741V32.259C4 28.6941 5.8978 25.3988 8.98122 23.6097L39.4812 5.91213Z" stroke="#00B6F0" stroke-width="8" stroke-linecap="round" stroke-linejoin="round"/>
<path d="M25.2886 53.9639C25.7105 54.3838 26.3384 54.5098 26.8853 54.2812C27.4331 54.0557 27.7896 53.5205 27.7896 52.9277V50H35.2114C38.4429 50 41.0708 52.6279 41.0708 55.8594V73.5352C41.0708 74.3447 41.7261 75 42.5356 75H45.4653C46.2749 75 46.9302 74.3447 46.9302 73.5352V55.8594C46.9302 49.3975 41.6733 44.1406 35.2114 44.1406H27.7896V41.2109C27.7896 40.6191 27.4331 40.084 26.8853 39.8574C26.3364 39.6289 25.7095 39.7578 25.2886 40.1748L19.4292 46.0342C18.8569 46.6064 18.8569 47.5332 19.4292 48.1055L25.2886 53.9639Z" fill="white"/>
<path d="M43.9995 44.2158C44.9077 43.5283 45.8735 42.917 46.9292 42.4531V33.7891H49.8589C50.4507 33.7891 50.9858 33.4326 51.2124 32.8848C51.4399 32.3369 51.314 31.708 50.895 31.2881L45.0356 25.4287C44.7495 25.1426 44.3745 25 43.9995 25C43.6245 25 43.2495 25.1426 42.9644 25.4287L37.105 31.2881C36.686 31.707 36.5601 32.3369 36.7876 32.8848C37.0132 33.4326 37.5483 33.7891 38.1401 33.7891H41.0698V42.4521C42.1255 42.916 43.0913 43.5273 43.9995 44.2158Z" fill="white"/>
<path d="M62.7104 40.1758C62.2895 39.7588 61.6636 39.6299 61.1138 39.8584C60.5659 40.084 60.2095 40.6191 60.2095 41.2119V44.1416H52.7876C50.3228 44.1416 48.0396 44.915 46.1509 46.2197C47.4585 47.7021 48.4526 49.4404 49.0786 51.3623C50.0923 50.5244 51.3735 50 52.7886 50H60.2104V52.9287C60.2104 53.5205 60.5669 54.0557 61.1147 54.2822C61.6616 54.5107 62.2895 54.3848 62.7114 53.9648L68.5708 48.1064C69.1431 47.5342 69.1431 46.6074 68.5708 46.0352L62.7104 40.1758Z" fill="white"/>
</svg>
