<?xml version="1.0" standalone="no"?>
<!DOCTYPE svg PUBLIC "-//W3C//DTD SVG 20010904//EN"
 "http://www.w3.org/TR/2001/REC-SVG-20010904/DTD/svg10.dtd">
<svg version="1.0" xmlns="http://www.w3.org/2000/svg"
 width="256.000000pt" height="256.000000pt" viewBox="0 0 256.000000 256.000000"
 preserveAspectRatio="xMidYMid meet">
<metadata>
Created by potrace 1.14, written by Peter Selinger 2001-2017
</metadata>
<g transform="translate(0.000000,256.000000) scale(0.100000,-0.100000)"
fill="#000000" stroke="none">
<path d="M195 2542 c-35 -11 -67 -33 -107 -73 -95 -94 -89 -8 -86 -1210 l3
-1044 31 -55 c36 -64 107 -122 173 -142 37 -10 246 -13 1081 -13 l1035 0 55
26 c70 34 116 80 149 149 l26 55 0 1040 c0 813 -3 1049 -13 1082 -18 61 -80
133 -143 168 l-54 30 -1050 2 c-953 2 -1055 0 -1100 -15z m1060 -353 c120 -10
292 -42 307 -57 6 -6 -19 -260 -27 -270 -1 -1 -22 6 -46 17 -110 48 -327 66
-442 36 -108 -28 -197 -91 -249 -176 -47 -76 -62 -234 -31 -324 23 -68 92
-136 169 -165 62 -24 208 -34 267 -17 l27 7 0 100 0 100 -70 0 -70 0 0 120 0
120 223 0 222 0 -22 -317 c-12 -175 -22 -323 -22 -330 -1 -12 -118 -42 -251
-64 -123 -20 -329 -16 -434 10 -224 54 -382 198 -427 387 -16 70 -14 218 6
294 61 241 158 368 349 455 106 48 193 67 386 84 8 0 69 -4 135 -10z m935
-706 c0 -10 -7 -119 -15 -243 -8 -124 -18 -370 -21 -547 l-7 -323 -184 0
c-140 0 -183 3 -183 13 0 6 7 84 15 172 8 88 15 184 15 213 l0 52 -225 0 -225
0 0 -97 c0 -54 -3 -155 -7 -225 l-6 -128 -179 0 -178 0 0 31 c0 46 30 422 35
437 3 8 28 12 77 12 126 0 445 61 485 92 7 5 13 40 15 76 l3 67 101 3 102 3 5
28 c3 15 9 107 13 204 l7 177 178 0 c164 0 179 -1 179 -17z"/>
</g>
</svg>
