<svg width="12" height="12" viewBox="0 0 12 12" fill="none" xmlns="http://www.w3.org/2000/svg">
  <path fill-rule="evenodd" clip-rule="evenodd" d="M0.71967 0.71967C0.426777 1.01256 0.426777 1.48744 0.71967 1.78033L4.96231 6.02297L0.71967 10.2656C0.426777 10.5585 0.426777 11.0334 0.71967 11.3263C1.01256 11.6192 1.48744 11.6192 1.78033 11.3263L6.02297 7.08363L10.2656 11.3263C10.5585 11.6192 11.0334 11.6192 11.3263 11.3263C11.6192 11.0334 11.6192 10.5585 11.3263 10.2656L7.08363 6.02297L11.3263 1.78033C11.6192 1.48744 11.6192 1.01256 11.3263 0.71967C11.0334 0.426777 10.5585 0.426777 10.2656 0.71967L6.02297 4.96231L1.78033 0.71967C1.48744 0.426777 1.01256 0.426777 0.71967 0.71967Z" fill="#ffffff"/>
</svg>
