<svg width="32" height="32" viewBox="0 0 32 32" fill="none" xmlns="http://www.w3.org/2000/svg">
  <path fill-rule="evenodd" clip-rule="evenodd" d="M16 32C24.8366 32 32 24.8366 32 16C32 7.16344 24.8366 0 16 0C7.16344 0 0 7.16344 0 16C0 24.8366 7.16344 32 16 32ZM20.0552 17.2137L23.7062 20.5332C24.0654 20.8592 24.1005 21.4125 23.7825 21.7816L22.1119 23.7315C21.9566 23.8877 21.75 23.9802 21.5299 23.9928C21.5003 23.9946 21.3889 24 21.2075 24C19.9663 24 15.4594 23.7368 11.8614 20.1398C7.7371 16.0138 7.99397 10.6951 8.00744 10.4706C8.02001 10.2505 8.11252 10.044 8.2679 9.8877L10.2169 8.21629C10.586 7.90014 11.1402 7.93427 11.4662 8.29442L14.7849 11.9444C15.1109 12.3037 15.0947 12.856 14.7462 13.1937L12.5377 15.3438C12.6338 15.8576 12.958 16.9003 14.0286 17.9718C15.0992 19.0396 16.1393 19.3639 16.6566 19.4627L18.8059 17.2524C19.1436 16.9048 19.6968 16.8877 20.0552 17.2137Z" fill="#FA6900"/>
</svg>
