<svg width="46" height="46" viewBox="0 0 46 46" fill="none" xmlns="http://www.w3.org/2000/svg">
<path d="M32.8184 3.7666H13.985C8.78434 3.7666 4.56836 7.98259 4.56836 13.1833V32.0166C4.56836 37.2173 8.78434 41.4333 13.985 41.4333H32.8184C38.019 41.4333 42.235 37.2173 42.235 32.0166V13.1833C42.235 7.98259 38.019 3.7666 32.8184 3.7666Z" stroke="#474B54" stroke-width="4" stroke-linecap="round" stroke-linejoin="round"/>
<path d="M30.9344 21.4137C31.1668 22.9811 30.8991 24.5818 30.1693 25.9883C29.4395 27.3948 28.2848 28.5353 26.8695 29.2477C25.4541 29.9601 23.8502 30.2081 22.2857 29.9563C20.7213 29.7046 19.2761 28.966 18.1557 27.8456C17.0353 26.7251 16.2966 25.2799 16.0449 23.7155C15.7932 22.1511 16.0411 20.5471 16.7535 19.1318C17.4659 17.7164 18.6065 16.5617 20.0129 15.8319C21.4194 15.1021 23.0202 14.8344 24.5876 15.0668C26.1864 15.3039 27.6665 16.0489 28.8094 17.1918C29.9523 18.3347 30.6973 19.8149 30.9344 21.4137Z" stroke="#474B54" stroke-width="4" stroke-linecap="round" stroke-linejoin="round"/>
<path d="M33.7578 12.2412H33.7763" stroke="#474B54" stroke-width="4" stroke-linecap="round" stroke-linejoin="round"/>
</svg>
