<svg width="27" height="24" viewBox="0 0 27 24" fill="none" xmlns="http://www.w3.org/2000/svg">
<path class="stroke-colored-el" d="M27 2.37469C26.8411 3.16805 26.6794 3.95843 26.5263 4.75179C25.6185 9.4523 24.7164 14.1528 23.8086 18.8503C23.6072 19.8912 23.4086 20.9292 23.2072 21.9671C23.1902 22.0476 23.1732 22.1282 23.1533 22.2087C22.7391 23.9087 21.1902 24.5321 19.8399 23.4942C18.8981 22.7724 18.0102 21.9671 17.0996 21.2006C16.5379 20.7264 15.979 20.2521 15.4031 19.766C14.9237 20.2283 14.4528 20.6816 13.9847 21.1379C13.494 21.6122 13.0032 22.0894 12.5124 22.5636C11.9337 23.1213 11.2728 23.4554 10.4728 23.2943C9.61607 23.1213 9.09694 22.5189 8.81042 21.6867C8.37922 20.44 7.97072 19.1844 7.55371 17.9317C7.14238 16.6969 6.7282 15.4621 6.32822 14.2214C6.26013 14.0096 6.15801 13.8993 5.94525 13.8367C4.46727 13.4042 2.9893 12.9717 1.51983 12.5005C1.15956 12.3842 0.79645 12.1933 0.501422 11.9487C-0.148206 11.4118 -0.168063 10.529 0.45036 9.95635C0.719856 9.70581 1.0546 9.503 1.38934 9.3658C8.96928 6.31167 16.5549 3.26648 24.1405 0.230235C24.4866 0.0930378 24.8724 0.0125089 25.2412 0.000578635C26.061 -0.0202993 26.7021 0.525508 26.9206 1.36062C26.9461 1.45607 26.9716 1.55449 26.9972 1.64993C27 1.8945 27 2.13311 27 2.37469ZM2.04464 10.878C2.04748 10.8988 2.04748 10.9167 2.05032 10.9376C2.09003 10.9495 2.12975 10.9645 2.1723 10.9764C3.64744 11.4208 5.12257 11.8682 6.59771 12.3006C6.69984 12.3305 6.84168 12.3036 6.93813 12.2499C10.5579 10.3113 14.1748 8.36963 17.7917 6.425C18.6031 5.98955 19.4144 5.55111 20.2285 5.11864C20.6285 4.90688 21.0314 4.98443 21.2725 5.31549C21.5221 5.6555 21.4853 6.08499 21.1789 6.44886C21.125 6.5115 21.0711 6.57115 21.0172 6.6308C18.4045 9.55072 15.7918 12.4677 13.1791 15.3876C13.1224 15.4502 13.0713 15.5218 13.0117 15.5934C13.0968 15.6709 13.1621 15.7306 13.2302 15.7872C15.6726 17.8542 18.1151 19.9241 20.5548 21.991C21.2158 22.5487 21.5108 22.4294 21.6782 21.5525C22.5604 16.9504 23.4483 12.3484 24.3334 7.74926C24.688 5.91499 25.0426 4.08072 25.3944 2.24346C25.4993 1.69169 25.3461 1.55151 24.844 1.7245C24.793 1.74239 24.7447 1.76327 24.6965 1.78116C17.84 4.53406 10.9834 7.28398 4.12686 10.0369C3.429 10.3172 2.73682 10.5976 2.04464 10.878ZM7.80619 13.6607C8.51823 15.8022 9.22743 17.9287 9.95649 20.1269C9.9962 19.9986 10.0132 19.9479 10.0246 19.8942C10.3508 18.5073 10.6855 17.1234 11.0004 15.7336C11.0742 15.4055 11.2189 15.143 11.4345 14.9014C13.1961 12.9449 14.9521 10.9794 16.7081 9.01684C16.7563 8.96316 16.796 8.90351 16.8386 8.84684C16.8301 8.83789 16.8215 8.83193 16.813 8.82298C13.8174 10.4306 10.8217 12.0412 7.80619 13.6607ZM11.304 21.4004C11.321 21.4094 11.3352 21.4183 11.3522 21.4273C12.2827 20.5265 13.2131 19.6228 14.1578 18.7101C13.5309 18.1793 12.9323 17.6752 12.3054 17.1443C11.9649 18.5879 11.633 19.9926 11.304 21.4004Z" fill="#474B54"/>
</svg>
