<svg width="28" height="28" viewBox="0 0 28 28" fill="none" xmlns="http://www.w3.org/2000/svg">
  <path class="stroke-colored-el" d="M25.1784 5.98593C25.0524 5.26965 24.7958 4.61336 24.4346 4.08335C24.0733 3.55335 23.6202 3.1684 23.1209 2.96739C21.2968 2.3335 14.0002 2.3335 14.0002 2.3335C14.0002 2.3335 6.70357 2.3335 4.87942 3.02776C4.38017 3.22877 3.92703 3.61372 3.56577 4.14373C3.20451 4.67373 2.94794 5.33002 2.82196 6.0463C2.48811 8.68082 2.32481 11.3534 2.3341 14.0303C2.3222 16.7275 2.48551 19.4204 2.82196 22.0748C2.96084 22.7688 3.22317 23.4001 3.58358 23.9077C3.944 24.4154 4.39032 24.7821 4.87942 24.9726C6.70357 25.6668 14.0002 25.6668 14.0002 25.6668C14.0002 25.6668 21.2968 25.6668 23.1209 24.9726C23.6202 24.7716 24.0733 24.3866 24.4346 23.8566C24.7958 23.3266 25.0524 22.6703 25.1784 21.954C25.5096 19.3393 25.6729 16.6872 25.6662 14.0303C25.6781 11.3332 25.5148 8.64029 25.1784 5.98593Z" stroke="#474B54" stroke-width="2" stroke-linecap="round" stroke-linejoin="round"/>
  <path class="stroke-colored-el" d="M11.6668 18.1302L18.3752 14.3152L11.6668 10.5002V18.1302Z" stroke="#474B54" stroke-width="2" stroke-linecap="round" stroke-linejoin="round"/>
</svg>
