<svg width="20" height="20" viewBox="0 0 20 20" fill="none" xmlns="http://www.w3.org/2000/svg">
  <path class="stroke-colored-el" d="M17.9843 4.27588C17.8943 3.76424 17.711 3.29547 17.453 2.91689C17.1949 2.53832 16.8713 2.26335 16.5147 2.11977C15.2117 1.66699 9.99984 1.66699 9.99984 1.66699C9.99984 1.66699 4.78799 1.66699 3.48502 2.1629C3.12841 2.30648 2.80474 2.58144 2.5467 2.96001C2.28866 3.33859 2.10539 3.80737 2.0154 4.319C1.77694 6.2008 1.6603 8.10976 1.66694 10.0219C1.65844 11.9484 1.77509 13.8719 2.0154 15.7679C2.11461 16.2636 2.30198 16.7146 2.55942 17.0772C2.81686 17.4398 3.13566 17.7017 3.48502 17.8378C4.78799 18.3337 9.99984 18.3337 9.99984 18.3337C9.99984 18.3337 15.2117 18.3337 16.5147 17.8378C16.8713 17.6942 17.1949 17.4192 17.453 17.0406C17.711 16.6621 17.8943 16.1933 17.9843 15.6817C18.2209 13.814 18.3375 11.9196 18.3327 10.0219C18.3412 8.09536 18.2246 6.17184 17.9843 4.27588Z" stroke="#474B54" stroke-width="2" stroke-linecap="round" stroke-linejoin="round"/>
  <path class="stroke-colored-el" d="M8.33317 12.9503L13.1248 10.2253L8.33317 7.50033V12.9503Z" stroke="#474B54" stroke-width="2" stroke-linecap="round" stroke-linejoin="round"/>
</svg>
