<svg width="46" height="46" viewBox="0 0 46 46" fill="none" xmlns="http://www.w3.org/2000/svg">
<path d="M40.6457 9.66268C40.4424 8.50639 40.0282 7.44695 39.445 6.59137C38.8618 5.73579 38.1303 5.11438 37.3244 4.78989C34.3797 3.7666 22.6009 3.7666 22.6009 3.7666C22.6009 3.7666 10.8221 3.7666 7.87743 4.88734C7.07149 5.21183 6.33999 5.83325 5.75682 6.68883C5.17365 7.54441 4.75946 8.60384 4.55609 9.76013C4.01717 14.013 3.75355 18.3273 3.76856 22.6487C3.74935 27.0026 4.01298 31.3498 4.55609 35.6347C4.7803 36.755 5.20376 37.7742 5.78558 38.5936C6.36739 39.413 7.08788 40.0051 7.87743 40.3125C10.8221 41.4333 22.6009 41.4333 22.6009 41.4333C22.6009 41.4333 34.3797 41.4333 37.3244 40.3125C38.1303 39.988 38.8618 39.3666 39.445 38.511C40.0282 37.6555 40.4424 36.596 40.6457 35.4397C41.1805 31.2189 41.4441 26.9375 41.4333 22.6487C41.4525 18.2947 41.1888 13.9476 40.6457 9.66268Z" stroke="#474B54" stroke-width="4" stroke-linecap="round" stroke-linejoin="round"/>
<path d="M18.8342 29.2669L29.6634 23.1084L18.8342 16.9499V29.2669Z" stroke="#474B54" stroke-width="4" stroke-linecap="round" stroke-linejoin="round"/>
</svg>
