<svg width="80" height="80" viewBox="0 0 80 80" fill="none" xmlns="http://www.w3.org/2000/svg">
<path d="M55.6992 47.5931C58.963 42.7239 60.8698 36.8651 60.8698 30.5669C60.8698 13.7123 47.2167 0 30.4348 0C13.653 0 0 13.7123 0 30.5668C0 47.4213 13.6531 61.1337 30.435 61.1337C36.8297 61.1337 42.7686 59.1411 47.6723 55.744L71.9289 80L80 71.8939L55.6992 47.5931ZM30.435 52.5484C18.3933 52.5484 8.59625 42.709 8.59625 30.615C8.59625 18.521 18.3931 8.68169 30.435 8.68169C42.4769 8.68169 52.2738 18.521 52.2738 30.6151C52.2738 42.7092 42.4767 52.5484 30.435 52.5484Z" fill="#00B6F0"/>
</svg>
