<svg width="80" height="80" viewBox="0 0 80 80" fill="none" xmlns="http://www.w3.org/2000/svg">
<path d="M77.6562 51.7188H59.5832V77.6562C59.5832 78.478 59.4403 79.2664 59.1801 80H77.6562C78.9506 80 80 78.9506 80 77.6562V54.0625C80 52.7681 78.9506 51.7188 77.6562 51.7188Z" fill="#00B6F0"/>
<path d="M20.4167 47.0312H2.34375C1.04937 47.0312 0 48.0806 0 49.375V77.6562C0 78.9506 1.04937 80 2.34375 80H20.8198C20.5597 79.2664 20.4167 78.478 20.4167 77.6562V47.0312Z" fill="#00B6F0"/>
<path d="M60.6441 15.1102L56.8333 9.36859L60.6426 3.64188C61.6772 2.08656 60.5598 0 58.6912 0H40.0078C38.7134 0 37.6641 1.04937 37.6641 2.34375V28.2812H42.3516V18.75H58.6912C60.5564 18.75 61.6775 16.6675 60.6441 15.1102Z" fill="#00B6F0"/>
<path d="M52.552 32.9688H27.448C26.1536 32.9688 25.1042 34.0181 25.1042 35.3125V77.6562C25.1042 78.9506 26.1536 80 27.448 80H52.552C53.8464 80 54.8958 78.9506 54.8958 77.6562V35.3125C54.8958 34.0181 53.8464 32.9688 52.552 32.9688ZM43.125 56.4062H36.3171C35.0227 56.4062 33.9733 55.3569 33.9733 54.0625C33.9733 52.7681 35.0227 51.7188 36.3171 51.7188H37.6563V47.0312H37.0983C35.8039 47.0312 34.7546 45.9819 34.7546 44.6875C34.7546 43.3931 35.8039 42.3438 37.0983 42.3438H40C41.2944 42.3438 42.3438 43.3931 42.3438 44.6875V51.7188H43.125C44.4194 51.7188 45.4688 52.7681 45.4688 54.0625C45.4688 55.3569 44.4194 56.4062 43.125 56.4062Z" fill="#00B6F0"/>
</svg>
