<svg width="58" height="83" viewBox="0 0 58 83" fill="none" xmlns="http://www.w3.org/2000/svg">
<path d="M30.0258 0.0175751C13.5352 -0.555069 0 12.94 0 29.6709C0 48.6578 17.8198 62.4357 27.8059 82.2437C28.3119 83.251 29.7289 83.251 30.2349 82.2506C39.2697 64.4158 54.7144 52.4662 57.5753 35.2869C60.5374 17.5142 47.6499 0.624715 30.0258 0.0175751ZM29.0204 45.215C20.6267 45.215 13.8186 38.2536 13.8186 29.6709C13.8186 21.0881 20.6267 14.1267 29.0204 14.1267C37.4141 14.1267 44.2222 21.0881 44.2222 29.6709C44.2222 38.2536 37.4141 45.215 29.0204 45.215Z" fill="white"/>
</svg>
