<svg width="21" height="24" viewBox="0 0 21 24" fill="none" xmlns="http://www.w3.org/2000/svg">
<path d="M2.3334 8.41119H18.6666V21.601H2.3334V8.41119ZM18.6666 2.41602H17.5V0.0178223H15.1666V2.41602H5.8334V0.0178223H3.5V2.41602H2.3334C1.04419 2.41602 0.0117493 3.48921 0.0117493 4.814L0 21.601C0 22.926 1.04419 23.9992 2.3334 23.9992H18.6666C19.9558 23.9992 21 22.926 21 21.601V4.814C21 3.48921 19.9558 2.41602 18.6666 2.41602ZM15.785 12.0804L14.5484 10.8094L8.8551 16.661L6.38156 14.119L5.1449 15.3897L8.8551 19.2028L15.785 12.0804Z" fill="#7D8189"/>
</svg>
