<svg width="70" height="70" viewBox="0 0 70 70" fill="none" xmlns="http://www.w3.org/2000/svg">
<rect width="70" height="70" rx="8" fill="#1B58A3"/>
<path d="M27 60L27.7214 51.3934C28 47.0305 28.1979 42.9866 28.3152 39.2618C28.4326 35.5221 30.7179 41.8573 30.7179 40.3882L30.6959 37.9396C32.4261 37.9692 34.0032 37.9396 34.7217 37.9396C35.2642 37.9396 38.934 37.9692 40.6056 37.9396L37.9284 38.0731L37.8625 40.3882H49.6504L50.0023 35.3218C50.061 33.2591 50.0903 31.9012 50.0903 31.2482V29H54.2032C54.5258 29 58.1232 29.0297 60 29L59.2742 41.1316L58.9443 50.1246L58.8563 55.4002C58.827 57.5668 58.8563 59.4212 58.8563 59.911C56.2616 59.8773 51.2997 59.8731 48.739 59.911C49.1202 55.7113 49.5478 52.2767 49.6504 47.6467H37.1701V54.2872L36.8666 59.9555L30.7179 59.911C30.322 59.911 28.8475 59.9703 27 60Z" fill="white"/>
<path d="M44.4885 11.9036L44.6443 10.6518L43.4377 10.2837C38.9517 8.91497 32.2238 7.90216 25.8825 8.90446C19.5161 9.9107 13.3014 13.0061 10.4265 20.0573C7.00682 28.4448 8.14609 36.2811 13.8441 41.0447C19.4378 45.721 28.9262 46.9867 41.2406 43.5369L42.2604 43.2512L42.3324 42.1946L43.5653 24.1158L43.6745 22.5137H42.0688H29.9678H28.4678V24.0137V30.794V32.294H29.9678H32.1913V34.9486C29.9867 35.3725 27.3006 35.1982 25.2558 34.1267C24.0961 33.519 23.1654 32.638 22.5945 31.4207C22.0209 30.1978 21.7521 28.5104 22.1386 26.1982C22.5278 23.8693 23.5388 22.2471 24.8748 21.1143C26.2338 19.962 28.0131 19.2476 30.0126 18.9098C34.0545 18.227 38.6376 19.1443 41.3905 20.5399L43.2938 21.5047L43.5573 19.3872L44.4885 11.9036Z" fill="white" stroke="#1B58A3" stroke-width="3"/>
</svg>
