<svg width="27" height="27" viewBox="0 0 27 27" fill="none" xmlns="http://www.w3.org/2000/svg">
<path d="M0.000274859 7.88584C0.405008 6.56758 1.47876 6.03926 2.65947 5.69655C4.66568 5.11427 6.68147 5.13998 8.67783 5.77509C9.28409 5.96778 9.85178 6.24776 10.3277 6.6837C11.3235 7.59541 11.3275 8.81422 10.3266 9.72085C9.61367 10.3667 8.73525 10.6752 7.81686 10.8699C5.99612 11.2561 4.18833 11.2075 2.40841 10.6328C2.12583 10.5416 1.85056 10.4201 1.58374 10.2882C0.824095 9.91183 0.24486 9.36571 0.000274859 8.52096C0.000274859 8.30907 0.000274859 8.09745 0.000274859 7.88584Z" fill="#7D8189"/>
<path d="M0.000281462 11.1671C1.18352 12.0342 2.54042 12.4178 3.96852 12.5987C5.62686 12.8086 7.26493 12.7114 8.87091 12.2311C9.25623 12.1158 9.63507 11.9686 10.0001 11.7994C10.3564 11.6341 10.6914 11.4219 11.1127 11.1874C11.0497 11.5008 11.0257 11.7838 10.9337 12.0424C10.7493 12.5614 10.3629 12.9238 9.91343 13.2185C9.09552 13.7547 8.17685 14.0169 7.22468 14.1596C5.58661 14.4051 3.96599 14.3269 2.38337 13.8019C1.78809 13.6044 1.23306 13.3262 0.753175 12.9083C0.376306 12.58 0.155645 12.1599 0 11.696C0.000281456 11.52 0.000281462 11.3437 0.000281462 11.1671Z" fill="#7D8189"/>
<path d="M13.122 20.1119C13.6869 20.1119 14.2312 20.1048 14.7753 20.1161C14.9427 20.1195 15.0204 20.0604 15.0871 19.9107C15.4707 19.0518 15.8656 18.198 16.2706 17.3123C17.4311 17.9847 18.5755 18.6475 19.7376 19.3208C19.7038 19.4132 19.6779 19.4945 19.6453 19.5728C18.9647 21.1956 18.2842 22.8187 17.6019 24.4407C16.9123 26.0805 15.5459 26.9902 13.7741 26.9925C13.5639 26.9928 13.3536 26.9925 13.1223 26.9925C13.122 24.7004 13.122 22.4223 13.122 20.1119Z" fill="#7D8189"/>
<path d="M24.5232 7.89065C23.4627 7.35837 22.3976 6.82383 21.3259 6.28618C21.338 6.2407 21.3422 6.20651 21.3557 6.17685C22.148 4.44016 22.9347 2.70093 23.7371 0.968768C24.0397 0.315568 24.7064 -0.0491723 25.4134 0.00535516C26.1024 0.05847 26.6918 0.530288 26.9097 1.19874C27.0318 1.57337 27.036 1.94998 26.8857 2.31133C26.1188 4.15509 25.3431 5.99518 24.5699 7.83612C24.5634 7.85109 24.548 7.86211 24.5232 7.89065Z" fill="#7D8189"/>
<path d="M18.2566 12.962C19.039 11.2465 19.8054 9.56602 20.5724 7.88556C20.5941 7.83809 20.6202 7.79289 20.6554 7.72593C21.7427 8.27149 22.8221 8.81281 23.9296 9.36854C23.1564 11.21 22.3886 13.0388 21.6065 14.9024C20.4843 14.2523 19.3807 13.6132 18.2566 12.962Z" fill="#7D8189"/>
<path d="M8.34035 20.1136C8.34035 22.4232 8.34035 24.6941 8.34035 26.9716C7.3547 27.0651 6.44728 26.9608 5.7625 26.1537C5.43433 25.7669 5.22239 25.3211 5.21198 24.8111C5.19453 23.9743 5.17173 23.1352 5.21507 22.3003C5.27812 21.0846 6.29417 20.1429 7.50865 20.1147C7.77913 20.1082 8.04989 20.1136 8.34035 20.1136Z" fill="#7D8189"/>
<path d="M11.4974 26.9843C10.9751 26.9843 10.4763 26.9843 9.95704 26.9843C9.95704 24.6998 9.95704 22.4218 9.95704 20.128C10.4665 20.128 10.9711 20.128 11.4974 20.128C11.4974 22.4068 11.4974 24.6837 11.4974 26.9843Z" fill="#7D8189"/>
<path d="M16.9318 15.8613C17.1587 15.366 17.37 14.9046 17.5949 14.4133C18.7337 15.073 19.853 15.7214 20.9856 16.3774C20.7796 16.869 20.58 17.3445 20.3675 17.8514C19.2172 17.1852 18.0835 16.5283 16.9318 15.8613Z" fill="#7D8189"/>
</svg>
