<svg width="24" height="24" viewBox="0 0 24 24" fill="none" xmlns="http://www.w3.org/2000/svg">
<path d="M23.6111 1.57964L20.5986 0.0732925C20.4319 -0.0102036 20.2388 -0.0238755 20.062 0.0352065C19.885 0.0940444 19.7388 0.220998 19.6553 0.387746L11.5654 16.5679H3.71484C3.7146 16.5679 3.71484 16.5679 3.7146 16.5679C1.69531 16.5679 0 18.1995 0 20.2842C0 22.3326 1.6665 23.9991 3.71484 23.9991H12.7529C13.0193 23.9991 13.2629 23.8487 13.3818 23.6104L23.9255 2.523C24.0994 2.17559 23.9585 1.75322 23.6111 1.57964Z" fill="#7D8189"/>
<path d="M6.62817 11.949C9.49292 11.949 11.8499 10.7266 11.8499 8.98662V8.00762C11.5962 8.21709 11.3103 8.41069 10.9932 8.58574C9.8208 9.2332 8.27051 9.58965 6.62817 9.58965C4.98828 9.58965 3.43945 9.23394 2.26733 8.58843C1.94849 8.41265 1.66113 8.21856 1.40625 8.00811V8.98662C1.40625 10.7315 3.77148 11.949 6.62817 11.949Z" fill="#7D8189"/>
<path d="M6.62817 8.1834C9.49292 8.1834 11.8499 6.96099 11.8499 5.221C11.8499 3.47612 9.48462 2.25859 6.62817 2.25859C3.76343 2.25835 1.40625 3.48101 1.40625 5.221C1.40625 6.96587 3.77148 8.1834 6.62817 8.1834Z" fill="#7D8189"/>
</svg>
