<svg width="24" height="24" viewBox="0 0 24 24" fill="none" xmlns="http://www.w3.org/2000/svg">
<path d="M0.00390625 23.1724H0.828462V24H0.00390625V23.1724Z" fill="#7D8189"/>
<path d="M23.1733 23.1724H24.0009V24H23.1733V23.1724Z" fill="#7D8189"/>
<path d="M6.62156 0H14.0698V0.827586H6.62156V0Z" fill="#7D8189"/>
<path d="M19.8629 1.82651V8.27586H20.6905V1.82651L21.2255 2.36153L21.8107 1.7764L20.2767 0.242457L18.7428 1.7764L19.3279 2.36153L19.8629 1.82651Z" fill="#7D8189"/>
<path d="M19.8629 9.10345H20.6905V9.93104H19.8629V9.10345Z" fill="#7D8189"/>
<path d="M21.8107 22.2236L21.2255 21.6385L20.6905 22.1735V14.069H19.8629V22.1735L19.3279 21.6385L18.7428 22.2236L19.6916 23.1724H14.8974V14.069H16.5526V8.4864C16.5526 8.11705 16.3077 7.79216 15.9521 7.69073L13.656 7.03448V6.39096C14.1488 6.10426 14.4836 5.57671 14.4836 4.96552V4.13793C14.4836 3.22387 13.7425 2.48276 12.8285 2.48276C11.9144 2.48276 11.1733 3.22387 11.1733 4.13793V4.96552C11.1733 5.57671 11.5081 6.10426 12.0009 6.39096V7.03448L9.70481 7.69073C9.3492 7.79216 9.10432 8.11705 9.10432 8.4864V14.069H10.7595V23.1724H5.79398V22.3448H4.96639V21.5172H5.79398V20.6897H4.13881V19.8621H5.79398V19.0345H4.96639V18.2069H5.79398V17.3793H4.13881V16.5517H5.79398V15.7241H4.96639V14.8966H5.79398V14.069H4.13881V13.2414H5.79398V12.4138H4.96639V11.5862H5.79398V10.7586H4.13881V9.93104H5.79398V9.10345H4.96639V8.27586H5.79398V7.44828H4.13881V6.62069H5.79398V5.7931H4.96639V4.96552H5.79398V4.13793H4.13881V3.31034H5.79398V2.48276H4.96639V1.65517H5.79398V0H2.48363V23.1724H1.65605V24H22.3457V23.1724H20.8619L21.8107 22.2236Z" fill="#7D8189"/>
<path d="M19.8629 12.4138H20.6905V13.2414H19.8629V12.4138Z" fill="#7D8189"/>
<path d="M19.8629 10.7586H20.6905V11.5862H19.8629V10.7586Z" fill="#7D8189"/>
</svg>
