<svg width="134" height="70" fill="none" xmlns="http://www.w3.org/2000/svg" viewBox="0 0 134 70">
  <path class="fill-colored-el" fill="#1B58A3" d="M0 0h134v70H0z"/>
  <path fill="#fff" d="M1 55h132v14H1z"/>
  <path fill-rule="evenodd" clip-rule="evenodd" d="M41.5 21l-.5-8c-8.5-2.333-26.9-3.7-32.5 9.5C1.5 39 15 52 41 45l1-19H28v7h4v5.5c-5.667 1.667-15.826 0-14-10.5 1.913-11 17-10.167 23.5-7zM84 45.95c5.538-9.169 10.42-18.88 15.247-28.485.918-1.827 1.834-3.65 2.753-5.465 2.307.033 5.863.05 6.821.05 1.686 0 4.564-.017 6.179-.05l12.5 33.95h-4.492l-1.131-.004h-.003c-1.584-.008-4.222-.021-5.874.004-1.147-3.979-3-9.45-3-9.45h-12.5c-1.278 2.433-1.941 3.897-2.722 5.62-.488 1.077-1.021 2.254-1.778 3.83h-6.395c-.206 0-.52-.002-.912-.005-1.163-.007-3.007-.02-4.693.005zM103.5 29h7.5l-3-9.5-4.5 9.5zM47.37 46.049l.8-9.44c.31-4.785.529-9.22.66-13.305.13-4.102.194-6.958.194-8.57L49 12.05c1.402.024 2.713.013 3.63.005.338-.003.623-.005.839-.005l.806.003c1.436.008 4.266.022 5.725-.003L59.5 22l-.073 2.54h13.085l.39-5.558c.065-2.262.098-3.751.098-4.467v-2.466h4.565l.501.002c1.211.007 4.22.025 5.934-.002l-.806 13.306-.366 9.863-.097 5.786c-.026 1.837-.012 3.47-.004 4.364l.004.583a535.57 535.57 0 00-11.231 0c.09-.989.184-1.939.276-2.872.334-3.412.646-6.591.736-10.579H58.658v7.283L58.321 46l-6.825-.049c-.18 0-.56.011-1.088.026-.76.022-1.828.053-3.039.072z" fill="#fff"/>
  <path class="fill-colored-el" fill="#1B58A3" d="M10.419 61.191a89.277 89.277 0 002.632 0 72.36 72.36 0 00-.18 3.633c-.541.108-1.03.183-1.466.225a10.97 10.97 0 01-1.113.068c-.573 0-1.105-.06-1.597-.18a3.178 3.178 0 01-1.24-.586 2.572 2.572 0 01-.776-1.065 3.762 3.762 0 01-.264-1.401c0-.42.065-.825.195-1.216.134-.39.33-.749.586-1.074a3.4 3.4 0 01.938-.81A3.592 3.592 0 019.3 58.34c.413-.082.85-.122 1.308-.122.632 0 1.358.084 2.178.254.003.37.021.76.054 1.167-.768-.26-1.463-.391-2.085-.391-.4 0-.78.057-1.138.17a2.328 2.328 0 00-1.514 1.42c-.133.353-.2.718-.2 1.096 0 .42.077.796.23 1.128.156.328.416.584.781.766a2.77 2.77 0 001.255.274c.172 0 .376-.015.61-.044.235-.033.479-.087.733-.162l.078-1.713-.386-.005c-.218 0-.495.005-.83.014.03-.436.044-.77.044-1zM14.11 65l.142-2.32.039-1.347c.006-.277.01-.555.01-.835 0-.049-.004-.203-.01-.464.303.007.526.01.669.01.166 0 .386-.003.66-.01l-.025.689c.123-.176.23-.306.317-.391.088-.088.186-.163.293-.225.11-.061.233-.109.366-.141a1.728 1.728 0 01.81 0c0 .303.015.687.045 1.152a2.014 2.014 0 00-.523-.078c-.188 0-.356.03-.503.088a1.123 1.123 0 00-.39.259 1.384 1.384 0 00-.283.425 1.934 1.934 0 00-.137.532 9.57 9.57 0 00-.069.869c-.016.41-.024.814-.024 1.21 0 .154.005.346.015.577a26.024 26.024 0 00-1.402 0zM18.266 59.185c.013-.336.02-.593.02-.772v-.156a23.859 23.859 0 001.43 0c-.01.081-.016.174-.02.278l-.024.65a26.187 26.187 0 00-1.406 0zM18.002 65c.049-.488.083-.897.103-1.226.032-.52.06-1.121.082-1.801.026-.68.044-1.327.054-1.939.32.007.558.01.718.01.146 0 .384-.003.713-.01a69.483 69.483 0 00-.112 1.621A85.222 85.222 0 0019.482 65c-.297-.007-.534-.01-.713-.01-.17 0-.425.004-.767.01zM20.536 64.907l-.107-1.074c.319.13.589.221.81.273.222.05.425.074.61.074.186 0 .342-.022.47-.064a.582.582 0 00.283-.195.47.47 0 00.034-.503.482.482 0 00-.073-.108.73.73 0 00-.113-.117 2.625 2.625 0 00-.21-.17l-.263-.21a18.814 18.814 0 01-.582-.47 2.389 2.389 0 01-.336-.346 1.491 1.491 0 01-.21-.376 1.204 1.204 0 01.146-1.084 1.24 1.24 0 01.635-.469c.277-.1.602-.151.976-.151.427 0 .918.05 1.475.151l.064 1.02a2.895 2.895 0 00-1.09-.229 1.9 1.9 0 00-.497.059.543.543 0 00-.303.17.388.388 0 00-.093.255c0 .055.01.11.03.166a.59.59 0 00.102.166c.049.058.104.114.166.166.065.052.198.154.4.307s.378.292.528.415c.153.124.278.25.376.377.097.123.172.257.224.4.052.143.078.288.078.434 0 .245-.075.47-.224.68-.15.208-.376.37-.679.487a2.793 2.793 0 01-1.015.176c-.196 0-.433-.016-.713-.049-.28-.029-.58-.083-.899-.16zM25.053 65l.117-1.587.117-2.27.069-2.808a24.521 24.521 0 001.42 0l-.087 1.162c-.02.286-.046.747-.079 1.382a3.58 3.58 0 01.26-.352 1.845 1.845 0 01.502-.385c.091-.046.197-.087.317-.123.124-.035.26-.063.41-.082.15-.02.303-.03.46-.03.27 0 .529.031.776.093.25.062.465.166.645.313.182.146.305.319.37.517.069.195.103.4.103.615 0 .14-.008.358-.024.655l-.117 2.133c-.01.222-.015.477-.015.767a28.739 28.739 0 00-1.445 0c.045-.384.09-.908.131-1.572.046-.664.069-1.136.069-1.416 0-.257-.043-.458-.127-.6a.726.726 0 00-.366-.323 1.273 1.273 0 00-.528-.108c-.247 0-.465.044-.654.132a1.176 1.176 0 00-.459.381c-.1.14-.186.34-.254.6-.072.274-.124.697-.156 1.27-.017.277-.034.822-.054 1.636a26.84 26.84 0 00-1.401 0zM31.864 61.123c.046-.234.073-.399.083-.493.013-.095.034-.238.064-.43.442-.104.833-.177 1.172-.22a7.92 7.92 0 01.981-.063c.358 0 .687.042.986.127.3.081.534.213.703.396.17.182.254.444.254.786 0 .185-.026.659-.078 1.42A41.721 41.721 0 0035.936 65a26.18 26.18 0 00-1.381 0c.042-.394.076-.85.102-1.367l.064-1.216a3.08 3.08 0 01-.283.17 2.039 2.039 0 01-.22.094c-.082.026-.225.068-.43.127-.205.055-.37.104-.493.146a2.133 2.133 0 00-.337.147c-.098.052-.18.112-.249.18a.65.65 0 00-.151.21.613.613 0 00-.044.235c0 .136.039.255.117.356a.646.646 0 00.303.205c.12.04.262.059.424.059.105 0 .214-.008.328-.025.117-.016.273-.057.468-.122a8.5 8.5 0 00-.239.83c-.231.04-.415.064-.552.074a5.35 5.35 0 01-.38.014c-.41 0-.748-.055-1.011-.166a1.136 1.136 0 01-.586-.527 1.579 1.579 0 01-.186-.728 1.227 1.227 0 01.288-.79c.095-.115.217-.224.367-.328.15-.107.366-.21.649-.308.283-.1.657-.201 1.123-.302.124-.026.252-.057.386-.093.133-.04.239-.077.317-.112a.732.732 0 00.21-.137.573.573 0 00.127-.18.44.44 0 00.044-.191.447.447 0 00-.127-.322.63.63 0 00-.322-.181 1.634 1.634 0 00-.435-.054c-.592 0-1.247.142-1.963.425zM40.209 63.98c-.04.179-.1.51-.186.996-.273.061-.488.1-.644.117a4.275 4.275 0 01-.44.024 2.82 2.82 0 01-.649-.068 1.035 1.035 0 01-.469-.24.91.91 0 01-.254-.405 1.842 1.842 0 01-.063-.483c0-.042.002-.1.005-.171a88.3 88.3 0 01.039-.693l.112-2.032h-.703c.016-.195.031-.509.044-.942h.737c.02-.189.04-.51.059-.962l.576-.112c.12-.023.353-.077.698-.161-.023.44-.035.85-.039 1.235h1.24c-.022.44-.034.754-.034.942h-1.245a82.513 82.513 0 00-.102 2.3c0 .202.02.358.063.469.046.11.117.19.215.24a.69.69 0 00.312.072c.082 0 .166-.006.254-.02.092-.012.25-.048.474-.106zM43.554 59.917c.374 0 .732.057 1.074.17.345.112.636.278.874.499.24.218.421.487.542.806.12.315.18.649.18 1 0 .372-.063.73-.19 1.075s-.31.644-.552.898c-.24.25-.542.44-.903.567a3.49 3.49 0 01-1.147.185c-.378 0-.738-.055-1.08-.166a2.36 2.36 0 01-.869-.508 2.214 2.214 0 01-.551-.82 2.796 2.796 0 01-.186-1.01c0-.359.057-.7.171-1.026.114-.326.291-.615.532-.87.244-.253.555-.45.933-.59.377-.14.768-.21 1.172-.21zm0 1.006c-.284 0-.537.07-.762.21a1.245 1.245 0 00-.498.615 2.423 2.423 0 00-.161.894c0 .283.044.535.132.756.09.222.237.4.44.537.204.137.447.206.727.206.286 0 .537-.07.752-.21.218-.144.38-.352.488-.625.11-.277.166-.581.166-.913 0-.27-.042-.516-.127-.738a1.092 1.092 0 00-.43-.532 1.274 1.274 0 00-.727-.2zM48.398 65c-.215-.687-.793-2.342-1.734-4.966a24.155 24.155 0 001.42 0l1.144 3.726.156-.425 1.098-2.788c.053-.13.118-.301.196-.513a29.61 29.61 0 001.435 0l-.796 1.724-1.152 2.612-.259.63a34.23 34.23 0 00-.737-.01c-.208 0-.466.004-.771.01zM55.053 65l.112-1.753a81.97 81.97 0 00.17-4.375l-.004-.537c.384.007.656.01.816.01.12 0 .366-.003.737-.01l-.127 2.202-.015.508 3.33-.005.059-1.318c.013-.453.02-.75.02-.894v-.493l.815.01c.071 0 .316-.003.732-.01l-.16 2.661-.074 1.973-.02 1.157c-.006.475-.01.767-.01.874l-.761-.01c-.095 0-.365.004-.81.01.084-.921.138-1.89.16-2.905h-3.335l-.068 1.797L56.6 65l-.8-.01c-.088 0-.337.004-.747.01zM65.39 59.917c.374 0 .732.057 1.074.17.345.112.636.278.874.499.24.218.421.487.542.806.12.315.18.649.18 1 0 .372-.063.73-.19 1.075s-.31.644-.552.898c-.24.25-.542.44-.903.567a3.49 3.49 0 01-1.147.185c-.378 0-.738-.055-1.08-.166a2.36 2.36 0 01-.869-.508 2.212 2.212 0 01-.551-.82 2.796 2.796 0 01-.186-1.01c0-.359.057-.7.17-1.026.115-.326.292-.615.533-.87a2.45 2.45 0 01.933-.59c.377-.14.768-.21 1.172-.21zm0 1.006c-.284 0-.537.07-.762.21a1.245 1.245 0 00-.498.615 2.423 2.423 0 00-.161.894c0 .283.044.535.132.756.09.222.237.4.439.537.205.137.448.206.728.206.286 0 .537-.07.751-.21.219-.144.381-.352.489-.625.11-.277.166-.581.166-.913 0-.27-.043-.516-.127-.738a1.093 1.093 0 00-.43-.532 1.275 1.275 0 00-.727-.2zM72.792 63.872c-.016.133-.04.285-.073.454-.033.17-.067.38-.103.63a6.11 6.11 0 01-1.377.161c-.263 0-.517-.024-.761-.073a2.199 2.199 0 01-.684-.259 2.048 2.048 0 01-.913-1.24 3.599 3.599 0 01.078-2.085c.133-.378.327-.685.581-.923.254-.24.535-.404.845-.488.312-.088.659-.132 1.04-.132a5.944 5.944 0 011.45.185l.073 1.07c-.485-.166-.908-.25-1.27-.25a1.77 1.77 0 00-.63.113 1.277 1.277 0 00-.507.357c-.14.16-.24.345-.303.556a2.422 2.422 0 00-.088.65c0 .309.048.578.142.805.098.225.264.4.498.523.234.123.501.185.8.185.147 0 .325-.018.533-.053.212-.04.435-.101.669-.186zM73.793 65l.098-1.27.112-2.436.054-2.085c.006-.378.01-.669.01-.874.341.007.584.01.727.01.17 0 .392-.003.669-.01l-.103 1.587-.117 2.53-.049 1.889-.005.659c-.29-.007-.517-.01-.683-.01-.189 0-.427.004-.713.01zm1.558-2.778l.99-1.211c.085-.104.186-.233.303-.386.118-.153.266-.35.445-.59.338.006.586.009.742.009.215 0 .487-.003.816-.01L77.04 61.88l-.288.351c.238.378.897 1.3 1.978 2.769-.294-.007-.544-.01-.752-.01-.209 0-.468.004-.777.01-.189-.31-.343-.557-.464-.742a8.688 8.688 0 00-.327-.493l-.83-1.187c-.023-.032-.1-.151-.23-.356zM83.715 63.892c-.043.192-.103.537-.18 1.035a9.092 9.092 0 01-.89.151 6.75 6.75 0 01-.727.04c-.427 0-.809-.043-1.148-.128a2.083 2.083 0 01-.883-.464 2.051 2.051 0 01-.562-.835 2.987 2.987 0 01-.18-1.035c0-.4.07-.788.21-1.162.14-.377.335-.685.585-.923.254-.24.542-.41.865-.508.322-.1.659-.15 1.01-.15.332 0 .648.041.948.126.3.081.55.216.752.405.205.19.361.417.468.684a2.418 2.418 0 01.117 1.358l-3.578.004c-.007.12-.01.217-.01.288 0 .218.037.419.112.6.075.183.184.338.327.465.143.127.314.221.513.283.198.059.394.088.586.088.224 0 .467-.025.727-.073a7.59 7.59 0 00.938-.25zm-3.154-1.973l2.285.005a2.97 2.97 0 00-.015-.347 1.15 1.15 0 00-.068-.254.794.794 0 00-.137-.254.794.794 0 00-.205-.185.945.945 0 00-.274-.112 1.304 1.304 0 00-.327-.04 1.216 1.216 0 00-1.162.816 2.918 2.918 0 00-.097.37zM84.276 67.246c-.058-.488-.105-.84-.141-1.055.312.147.607.22.884.22.084 0 .17-.011.258-.034a.995.995 0 00.245-.088.634.634 0 00.146-.112c.052-.05.122-.139.21-.269s.164-.259.23-.386c.051-.107.105-.242.16-.405l-1.015-2.973-.742-2.11c.342.007.587.01.737.01.173 0 .399-.003.679-.01.068.27.132.505.19.703l.464 1.533c.143.472.246.827.308 1.065.039.156.084.363.136.62.098-.296.183-.537.254-.723.127-.338.305-.79.532-1.357l.474-1.167c.085-.208.171-.433.259-.674.293.007.516.01.669.01.14 0 .374-.003.703-.01l-1.88 4.214-.815 1.86c-.114.241-.223.428-.327.562a1.567 1.567 0 01-.59.488c-.141.065-.293.117-.455.157a2.722 2.722 0 01-.562.058 4.739 4.739 0 01-1.01-.127zM91.981 65c.339-.599.736-1.34 1.192-2.222l1.284-2.465c.4-.762.733-1.421.996-1.978a41.425 41.425 0 001.807 0l.698 1.997 1.519 4.13.21.538-.733-.01c-.17 0-.454.004-.854.01-.078-.29-.202-.68-.371-1.172-.166-.491-.308-.89-.425-1.196h-2.569c-.38.775-.752 1.564-1.113 2.368l-.796-.01c-.15 0-.431.004-.845.01zm3.189-3.384h1.87l-.767-2.256-.395.82-.708 1.436zM100.658 66.035c.733.241 1.367.362 1.904.362.206 0 .399-.027.582-.079a1.26 1.26 0 00.459-.22.928.928 0 00.288-.39c.068-.163.114-.353.136-.571.023-.215.041-.542.054-.982a3.264 3.264 0 01-.342.406c-.101.094-.223.18-.366.258-.14.075-.304.135-.493.181a2.371 2.371 0 01-.596.073c-.286 0-.558-.044-.815-.132a1.923 1.923 0 01-.689-.424 1.869 1.869 0 01-.454-.723 2.709 2.709 0 01-.156-.913c0-.453.085-.88.254-1.284.172-.404.423-.736.752-.996.332-.26.685-.44 1.059-.538a5.012 5.012 0 011.255-.146c.254 0 .542.016.864.049.323.03.749.091 1.28.185l-.113 1.548-.102 1.939-.039 1.753c-.01.198-.034.389-.073.57a1.67 1.67 0 01-.186.499 1.52 1.52 0 01-.767.669c-.162.072-.366.13-.61.176-.241.045-.5.068-.776.068a9.47 9.47 0 01-2.246-.278l-.064-1.06zm3.565-5.024a3.91 3.91 0 00-.786-.088c-.424 0-.774.078-1.05.234-.277.153-.49.378-.64.674-.15.296-.225.61-.225.942 0 .245.046.472.137.684a.974.974 0 00.425.474c.195.107.41.16.645.16.166 0 .32-.025.463-.077.147-.052.279-.132.396-.24.117-.107.22-.24.308-.4.091-.16.154-.339.19-.537.039-.202.068-.453.088-.752.019-.303.036-.66.049-1.074zM111.049 63.892c-.042.192-.103.537-.181 1.035a9.061 9.061 0 01-.889.151c-.24.026-.483.04-.727.04-.426 0-.809-.043-1.148-.128a2.082 2.082 0 01-.883-.464 2.057 2.057 0 01-.562-.835 2.995 2.995 0 01-.18-1.035c0-.4.07-.788.209-1.162a2.4 2.4 0 01.586-.923c.254-.24.542-.41.865-.508a3.36 3.36 0 011.01-.15c.332 0 .648.041.948.126.299.081.55.216.752.405.205.19.361.417.468.684.111.264.166.558.166.884 0 .153-.016.31-.048.473l-3.58.005c-.006.12-.009.217-.009.288 0 .218.037.419.112.6.075.183.184.338.327.465.143.127.314.221.513.283.198.059.394.088.586.088.224 0 .467-.025.727-.073.264-.05.577-.132.938-.25zm-3.154-1.973l2.285.005c0-.156-.005-.272-.015-.347a1.204 1.204 0 00-.068-.254.795.795 0 00-.137-.254.801.801 0 00-.205-.185.937.937 0 00-.274-.112 1.288 1.288 0 00-.727.024 1.225 1.225 0 00-.615.459c-.065.1-.114.198-.147.293a2.935 2.935 0 00-.097.37zM112.187 65c.074-.739.136-1.569.185-2.49.052-.921.081-1.747.088-2.476a24.764 24.764 0 001.392 0l-.054.83c.101-.143.189-.257.264-.341a1.765 1.765 0 01.673-.445c.137-.049.288-.088.454-.117.17-.03.346-.044.528-.044.29 0 .566.037.83.112.267.072.482.188.644.347.163.16.271.334.323.522.052.19.078.39.078.601 0 .088-.005.228-.015.42l-.102 2.134c-.013.296-.022.612-.025.947a26.697 26.697 0 00-1.406 0c.026-.283.059-.776.098-1.48.039-.706.058-1.173.058-1.4 0-.258-.04-.465-.122-.621a.794.794 0 00-.381-.356 1.254 1.254 0 00-.551-.123c-.196 0-.378.038-.547.113-.17.075-.316.184-.44.327-.13.146-.231.327-.303.542-.074.228-.13.604-.166 1.128a45.706 45.706 0 00-.078 1.87 26.388 26.388 0 00-1.425 0zM122.519 63.872a7.019 7.019 0 01-.074.454c-.032.17-.066.38-.102.63a6.118 6.118 0 01-1.377.161 3.87 3.87 0 01-.762-.073 2.19 2.19 0 01-.683-.259 2.031 2.031 0 01-.552-.498 2.138 2.138 0 01-.362-.742 3.579 3.579 0 01.079-2.085 2.27 2.27 0 01.581-.923c.254-.24.535-.404.844-.488.313-.088.66-.132 1.04-.132a5.962 5.962 0 011.451.185l.073 1.07c-.485-.166-.908-.25-1.27-.25-.221 0-.431.038-.63.113a1.275 1.275 0 00-.507.357c-.14.16-.241.345-.303.556a2.407 2.407 0 00-.088.65c0 .309.047.578.142.805.097.225.263.4.498.523.234.123.501.185.8.185.147 0 .324-.018.533-.053.211-.04.434-.101.669-.186zM122.909 67.246c-.058-.488-.106-.84-.141-1.055.312.147.607.22.883.22.085 0 .171-.011.259-.034a.994.994 0 00.244-.088.634.634 0 00.147-.112c.052-.05.122-.139.21-.269s.164-.259.229-.386c.052-.107.106-.242.161-.405l-1.015-2.973-.742-2.11c.341.007.587.01.737.01.172 0 .399-.003.679-.01.068.27.131.505.19.703l.464 1.533c.143.472.246.827.307 1.065.04.156.085.363.137.62.098-.296.182-.537.254-.723.127-.338.304-.79.532-1.357l.474-1.167c.085-.208.171-.433.259-.674.293.007.516.01.669.01.14 0 .374-.003.703-.01l-1.88 4.214-.815 1.86c-.114.241-.223.428-.328.562a1.57 1.57 0 01-.59.488c-.14.065-.292.117-.455.156a2.712 2.712 0 01-.561.059 4.724 4.724 0 01-1.011-.127z"/>
</svg>
