<svg width="24" height="24" viewBox="0 0 24 24" fill="none" xmlns="http://www.w3.org/2000/svg">
<path d="M20.0158 20.5969C20.0158 20.8922 19.7725 21.1313 19.4721 21.1313H15.8229C15.5225 21.1313 15.2792 20.8922 15.2792 20.5969V18.931C15.2792 18.6357 15.5225 18.3966 15.8229 18.3966H19.4721C19.7725 18.3966 20.0158 18.6357 20.0158 18.931V20.5969ZM20.1816 15.5656L15.4287 13.6965C15.2928 13.6431 15.1392 13.6458 15.0047 13.7059C14.8701 13.7647 14.7655 13.8756 14.7166 14.0118L13.5219 17.2583L13.2854 16.5903L13.6619 15.6858C13.7298 15.5215 13.7108 15.3331 13.6102 15.1862C13.5097 15.0379 13.3398 14.9497 13.159 14.9497H10.8376C10.6569 14.9497 10.487 15.0379 10.3864 15.1862C10.2845 15.3345 10.2654 15.5215 10.3347 15.6858L10.7112 16.5903L10.4747 17.2583L9.28007 14.0118C9.22978 13.8756 9.12513 13.7647 8.99193 13.7059C8.85738 13.6458 8.7038 13.6431 8.56789 13.6965L3.81503 15.5656C2.35533 16.1401 1.41211 17.5095 1.41211 19.0539V22.8267C1.41211 23.1219 1.65539 23.3611 1.95576 23.3611H22.0449C22.3453 23.3611 22.5886 23.1219 22.5886 22.8267V19.0539C22.5845 17.5095 21.6413 16.1401 20.1816 15.5656ZM16.6954 8.42874C16.4698 9.27576 16.0675 9.40268 15.8473 9.40268C15.831 9.40268 15.8202 9.40135 15.8134 9.40135C15.5619 9.33856 15.3295 9.46815 15.2181 9.70194C15.0033 10.1575 14.3251 11.4467 13.7801 11.9464C13.6306 12.084 13.4213 12.2056 13.1576 12.3085C12.4183 12.597 11.5743 12.597 10.8363 12.3085C10.5726 12.2056 10.3633 12.084 10.2138 11.9464C9.66878 11.4467 8.99056 10.1575 8.77582 9.70194C8.68476 9.50823 8.50808 9.38665 8.30693 9.38665C8.26616 9.38665 8.22402 9.392 8.18189 9.40268C8.17509 9.40402 8.16286 9.40402 8.14791 9.40402C7.92773 9.40402 7.52407 9.2771 7.29846 8.43008C7.18701 8.01325 7.18837 7.68059 7.30118 7.49355C7.36642 7.38534 7.4602 7.34793 7.4901 7.33858C7.78231 7.30785 7.95764 7.05668 7.93317 6.76677C7.93317 6.76009 7.91279 6.5116 7.93861 6.13352C8.31237 5.97587 8.91039 5.66326 9.41462 5.12886C9.67149 4.85632 9.85905 4.52232 9.99225 4.21638C10.3565 4.50896 10.873 4.85231 11.5552 5.14889C12.7241 5.65657 15.0604 5.89972 16.0471 5.98121C16.0879 6.44213 16.0634 6.75743 16.0634 6.76545C16.0376 7.05535 16.2129 7.30652 16.5065 7.33858C16.5378 7.34793 16.6302 7.384 16.6954 7.49355C16.8055 7.67925 16.8069 8.01192 16.6954 8.42874ZM17.5965 6.89771C17.4647 6.69864 17.3057 6.56237 17.1562 6.47019C17.1562 6.22169 17.1399 5.87167 17.0787 5.46686C17.1195 4.98457 17.2608 2.32729 15.6068 1.12891C14.5861 0.39011 13.4512 0 12.3218 0C11.4044 0 10.5304 0.256505 9.86176 0.721429C9.25967 1.14093 8.92669 1.5965 8.75137 1.91714C8.23218 1.93451 7.1544 2.14292 6.67871 3.4936C6.22884 4.76947 6.59172 5.55904 6.85946 5.92377C6.84179 6.13485 6.83501 6.32189 6.83501 6.47019C6.68686 6.56237 6.52647 6.69864 6.396 6.89771C6.09835 7.34927 6.04671 7.95581 6.24514 8.69995C6.61482 10.0907 7.47787 10.3967 7.93998 10.4581C8.22403 11.0152 8.8465 12.1561 9.47169 12.728C9.72041 12.9564 10.0453 13.1501 10.4353 13.3024C10.9328 13.4962 11.4587 13.595 11.997 13.595C12.5352 13.595 13.0611 13.4975 13.5599 13.3024C13.95 13.1501 14.2735 12.9564 14.5236 12.728C15.1474 12.1548 15.7712 11.0152 16.0553 10.4581C16.516 10.3967 17.3791 10.0907 17.7487 8.69995C17.9458 7.95581 17.8942 7.34927 17.5965 6.89771Z" fill="#7D8189"/>
</svg>
