<svg width="17" height="24" viewBox="0 0 17 24" fill="none" xmlns="http://www.w3.org/2000/svg">
<path d="M8.80066 0.00508195C3.96722 -0.160502 0 3.74169 0 8.57952C0 14.0697 5.22304 18.0537 8.15 23.7813C8.29833 24.0726 8.71364 24.0726 8.86197 23.7833C11.5101 18.6263 16.037 15.171 16.8755 10.2034C17.7437 5.06436 13.9663 0.180641 8.80066 0.00508195ZM8.50598 13.0742C6.04576 13.0742 4.05028 11.0613 4.05028 8.57952C4.05028 6.09776 6.04576 4.08482 8.50598 4.08482C10.9662 4.08482 12.9617 6.09776 12.9617 8.57952C12.9617 11.0613 10.9662 13.0742 8.50598 13.0742Z" fill="#7D8189"/>
</svg>
