<svg width="22" height="27" viewBox="0 0 22 27" fill="none" xmlns="http://www.w3.org/2000/svg">
<path d="M9.73828 27C9.2848 26.9648 8.83132 26.9314 8.37813 26.8945C6.42682 26.736 4.50394 26.4455 2.67296 25.7397C1.88842 25.4373 1.14819 25.0615 0.578568 24.4375C-0.190104 23.5957 -0.193397 22.5593 0.571983 21.716C1.20446 21.0194 2.0342 20.607 2.91901 20.3176C3.75353 20.0447 4.61649 19.8507 5.47017 19.6337C5.55458 19.6124 5.70425 19.6424 5.75124 19.7017C6.11582 20.1617 6.46244 20.6347 6.83002 21.1237C6.24333 21.239 5.67491 21.3367 5.11397 21.4641C4.19833 21.6719 3.30065 21.9362 2.48528 22.4045C2.2988 22.5117 2.121 22.6403 1.96296 22.7835C1.73307 22.9919 1.72319 23.1374 1.95158 23.3406C2.1638 23.5291 2.39997 23.7043 2.6529 23.8366C3.73976 24.4047 4.92659 24.6854 6.13228 24.8889C9.03995 25.3797 11.9605 25.3999 14.8837 25.0405C16.1789 24.8814 17.4567 24.6286 18.6702 24.1453C19.0303 24.0018 19.3844 23.8283 19.7083 23.6205C20.3614 23.2014 20.3761 22.8977 19.6984 22.5311C19.068 22.1901 18.3933 21.9022 17.7052 21.6898C16.9712 21.4632 16.199 21.3523 15.4435 21.1906C15.3641 21.1736 15.2851 21.1549 15.1797 21.1309C15.5476 20.6413 15.9011 20.1634 16.2672 19.6951C16.3079 19.6429 16.4294 19.6115 16.5016 19.6256C17.8357 19.8882 19.1581 20.2009 20.3363 20.8874C20.7514 21.1292 21.1498 21.4341 21.4692 21.7837C22.2002 22.5829 22.1639 23.6098 21.436 24.4185C20.8963 25.018 20.1953 25.3898 19.4499 25.6921C18.0781 26.2486 16.6363 26.5501 15.1678 26.7291C14.2818 26.8372 13.388 26.8836 12.4978 26.9594C12.417 26.9663 12.3376 26.9859 12.2574 26.9997C11.4178 27 10.5782 27 9.73828 27Z" fill="#7D8189"/>
<path d="M10.9934 23.5084C10.4322 22.8164 9.88829 22.1578 9.35788 21.4895C7.41824 19.0463 5.54954 16.5562 4.00381 13.8572C3.26328 12.5643 2.588 11.2402 2.23689 9.79114C1.85016 8.19505 2.14828 6.66063 2.8089 5.19077C4.29566 1.88388 7.68105 -0.138181 11.4205 0.00736324C15.6393 0.171353 19.2198 3.32204 19.8364 7.35579C20.0705 8.8879 19.7329 10.3001 19.1189 11.6861C18.1767 13.8128 16.933 15.7766 15.542 17.6485C14.0992 19.5905 12.5807 21.4803 11.0952 23.3928C11.0733 23.4208 11.0485 23.4461 10.9934 23.5084ZM10.9934 13.9315C14.0277 13.9465 16.5217 11.5659 16.5381 8.6386C16.5546 5.69283 14.1079 3.28082 11.0829 3.26122C7.94805 3.24076 5.47231 5.59282 5.45735 8.60632C5.44238 11.5351 7.91782 13.916 10.9934 13.9315Z" fill="#7D8189"/>
</svg>
