<svg width="24" height="24" viewBox="0 0 24 24" fill="none" xmlns="http://www.w3.org/2000/svg">
<path d="M18.3281 18.3281H19.7344V23.9963H18.3281V18.3281Z" fill="#7D8189"/>
<path d="M21.8906 18.3281H21.1406V24H21.8906C23.0537 24 24 23.0068 24 21.8438V20.4375C24 19.2744 23.0537 18.3281 21.8906 18.3281Z" fill="#7D8189"/>
<path d="M15.4714 17.2463L12.8691 20.8225L14.937 23.7109C15.0696 23.8921 15.2803 24 15.5056 24H16.9214V18.3281H16.2581L15.4714 17.2463Z" fill="#7D8189"/>
<path d="M4.21875 18.3281H5.67188V23.9963H4.21875V18.3281Z" fill="#7D8189"/>
<path d="M0 20.4375V21.8438C0 23.0068 0.946289 24 2.10938 24H2.8125V18.3281H2.10938C0.946289 18.3281 0 19.2744 0 20.4375Z" fill="#7D8189"/>
<path d="M12 4.21875C14.0044 4.21875 15.5156 3.31177 15.5156 2.10938C15.5156 0.906982 14.0044 0 12 0C9.99561 0 8.48438 0.906982 8.48438 2.10938C8.48438 3.31177 9.99561 4.21875 12 4.21875Z" fill="#7D8189"/>
<path d="M12 7.03125C14.0044 7.03125 15.5156 6.12427 15.5156 4.92188V4.63965C14.6426 5.25806 13.4185 5.625 12 5.625C10.5815 5.625 9.35742 5.25806 8.48438 4.63965V4.92188C8.48438 6.12427 9.99561 7.03125 12 7.03125Z" fill="#7D8189"/>
<path d="M4.68426 9.57672L8.05657 7.04717L3.81024 1.05914C3.47723 0.604548 2.98748 0.307185 2.4306 0.221247C1.87249 0.135554 1.31634 0.272273 0.862483 0.604548C0.407893 0.937556 0.109797 1.42779 0.0241038 1.98541C-0.0618337 2.54229 0.0748851 3.09918 0.406428 3.55157L4.68426 9.57672Z" fill="#7D8189"/>
<path d="M5.5127 10.7131L8.52734 14.856L11.1309 11.2744L8.88452 8.18433L5.5127 10.7131Z" fill="#7D8189"/>
<path d="M15.1157 8.18408L7.74146 18.3281H7.07812V24H8.4939C8.71924 24 8.92993 23.8921 9.0625 23.7109L18.4875 10.7129L15.1157 8.18408Z" fill="#7D8189"/>
<path d="M23.591 3.5539C23.9241 3.09931 24.0608 2.54243 23.9748 1.98554C23.8891 1.42793 23.591 0.937692 23.1372 0.604684C22.6821 0.271676 22.1279 0.134225 21.5683 0.221383C21.0115 0.30732 20.5217 0.604684 20.1875 1.06123L15.9424 7.04731L19.3147 9.57661L23.591 3.5539Z" fill="#7D8189"/>
</svg>
