<svg width="84" height="70" viewBox="0 0 84 70" fill="none" xmlns="http://www.w3.org/2000/svg">
<path d="M82.2412 41.6394C77.7798 57.5947 66.7738 69.177 56.0754 69.177C55.2161 69.177 54.3576 69.1022 53.5213 68.9543C53.047 68.871 52.6322 68.5922 52.3756 68.1877C52.1197 67.7805 52.0475 67.2859 52.1775 66.8235L54.3797 58.9461C54.5922 58.1854 55.3257 57.6712 56.0881 57.706L56.2632 57.7094C60.2308 57.7094 67.4818 51.7632 71.1782 38.5472C71.3244 38.0228 71.4629 37.4865 71.5964 36.9272C67.4469 38.9807 62.4968 39.4558 58.0141 38.2073C47.9014 35.3778 41.9772 24.8503 44.8042 14.7392C47.0956 6.54652 54.6322 0.82294 63.1317 0.822939C64.8631 0.822939 66.5919 1.06178 68.2705 1.5318C74.9392 3.39575 79.9531 8.93234 82.3891 17.1182C84.5879 24.5035 84.5327 33.4407 82.2412 41.6394Z" fill="#A8AEBA"/>
<path d="M11.9739 69.1753C11.1163 69.1753 10.257 69.1022 9.42148 68.9543C8.94806 68.8727 8.53243 68.5922 8.2766 68.1877C8.02076 67.7805 7.94851 67.2859 8.07771 66.8235L10.2808 58.9461C10.4933 58.1854 11.2132 57.6712 11.9892 57.706L12.1626 57.7094C16.1302 57.7094 23.382 51.7632 27.0784 38.5472C27.2254 38.0194 27.364 37.4831 27.4966 36.9272C23.3454 38.9807 18.397 39.4559 13.9143 38.2073C3.80329 35.3778 -2.12258 24.8503 0.70606 14.7392C2.99753 6.54653 10.5341 0.822944 19.0336 0.822943C20.7649 0.822943 22.4938 1.06178 24.1733 1.5318C30.8411 3.39575 35.855 8.93234 38.2918 17.1182C40.4898 24.5035 40.4354 33.4416 38.1431 41.6411C33.6791 57.5947 22.6748 69.1753 11.9739 69.1753Z" fill="#A8AEBA"/>
</svg>
