<svg width="24" height="24" viewBox="0 0 24 24" fill="none" xmlns="http://www.w3.org/2000/svg">
<path d="M12.6514 4.41652C12.6675 4.43689 12.6836 4.45725 12.7034 4.48165H14.0205C14.2613 4.4811 14.4566 4.28296 14.4572 4.03822C14.4572 3.78999 14.6173 3.66799 14.8574 3.66799H16.9992C17.0613 3.66817 17.1232 3.6601 17.1834 3.64377C17.6551 3.48618 17.9369 2.99578 17.84 2.50098C17.5598 1.59412 16.8351 0.406923 14.9454 0.406923C11.9509 0.406923 11.2865 2.73269 12.5994 4.35543C12.6155 4.3769 12.6328 4.39726 12.6514 4.41652Z" fill="#7D8189"/>
<path d="M17.9474 19.5488L10.9424 12.3827L10.9388 12.3794C10.9309 12.3877 10.9253 12.3974 10.917 12.4051C10.6526 12.6559 10.2981 12.7843 9.93734 12.7599L17.9963 21.9667C18.2769 22.2874 18.7024 22.4347 19.1173 22.3549L21.9886 21.8041C22.7343 21.7399 23.2972 21.089 23.2642 20.3293C23.2743 20.0284 23.1515 19.7387 22.9293 19.5391C22.7074 19.3397 22.4091 19.2514 22.1165 19.2986C22.0596 19.3072 22.0002 19.3173 21.9375 19.3296L19.0207 19.888C18.6299 19.9625 18.2278 19.8356 17.9474 19.5488Z" fill="#7D8189"/>
<path d="M10.2379 23.7809C10.54 23.9826 10.9101 24.0486 11.2616 23.964C11.6129 23.8793 11.9146 23.6512 12.0953 23.3337L12.4998 22.6501L10.1619 21.4621C10.1531 21.4583 10.145 21.453 10.1379 21.4462L9.85772 21.93C9.48491 22.5527 9.65119 23.3621 10.2379 23.7809Z" fill="#7D8189"/>
<path d="M2.09175 23.7729L2.72004 23.3659L1.22696 21.1937C1.22299 21.1897 1.21902 21.1816 1.21487 21.1774L0.626482 21.5557C0.0240171 21.967 -0.136303 22.7965 0.268109 23.4089C0.672881 24.0211 1.48911 24.184 2.09175 23.7729Z" fill="#7D8189"/>
<path d="M3.3967 22.9267C5.08855 21.8337 6.53776 20.3942 7.65187 18.7001L7.91221 18.2976C8.0738 18.0514 8.34551 17.9035 8.63673 17.9029H12.1995L10.5463 20.7465L12.8841 21.934C12.8937 21.9386 12.9031 21.9441 12.9119 21.9503L14.5213 19.2209L8.38866 12.2159C8.07633 12.9542 7.70134 13.6633 7.26768 14.3353L5.04992 17.7604C4.36169 18.8241 3.45989 19.728 2.40373 20.4127L1.89153 20.7422L3.38858 22.9144C3.39273 22.9187 3.39273 22.9227 3.3967 22.9267Z" fill="#7D8189"/>
<path d="M6.311 6.10182C5.42978 6.9419 5.38338 8.34797 6.20682 9.24639L8.23629 11.4472L10.0937 9.55975L9.54142 8.97798C9.51921 8.95487 9.50043 8.92881 9.48545 8.90056L8.55675 7.88766L10.286 7.64365L10.0018 8.32687C10.0453 8.34797 10.0847 8.37696 10.1179 8.41255L11.783 10.1617C12.2634 10.6783 12.2595 11.5731 11.9592 12.2688L13.0201 13.3551L13.8007 12.0572L13.8446 12.9929C13.8605 13.471 13.9289 13.9458 14.0488 14.4087L16.9752 17.4025L18.1001 16.6051C18.1084 16.5983 18.118 16.5928 18.1281 16.589L17.1992 14.9618C16.7457 14.1535 16.4877 13.2472 16.4467 12.3178L16.3106 9.13246C16.277 8.40796 15.8993 7.74511 15.298 7.35488L13.7944 6.38252C14.1936 6.61937 14.6475 6.7445 15.1098 6.7445C16.422 6.74688 17.5042 5.70077 17.5677 4.36901C17.5156 4.38937 17.4596 4.40974 17.4034 4.42588C17.272 4.46386 17.1359 4.48312 16.9992 4.48294H15.1777C14.9954 4.9715 14.5352 5.29495 14.0208 5.29642H12.8038C12.9912 5.6971 13.2817 6.03889 13.6446 6.28529L12.1714 5.33311C11.7016 5.02727 11.1336 4.91793 10.5862 5.02782L7.06349 5.71141C6.78113 5.7659 6.52006 5.90148 6.311 6.10182Z" fill="#7D8189"/>
<path d="M18.5163 18.9769C18.539 18.9993 18.5647 19.0184 18.5925 19.0338C18.9124 18.6085 18.9505 18.0297 18.6885 17.5652L18.5324 17.2885L17.5477 17.9883L18.5163 18.9769Z" fill="#7D8189"/>
<path d="M10.9464 11.2355L11.3268 11.6261C11.4273 11.3219 11.3815 10.9876 11.2026 10.7229L10.6501 10.1411L8.93696 11.8824L9.99367 11.9473C10.1208 11.9538 10.2461 11.9134 10.3461 11.8336L10.9464 11.2355Z" fill="#7D8189"/>
<path d="M5.6504 0.813478H10.0538C10.2748 0.813478 10.4541 0.631299 10.4541 0.406923C10.4541 0.18218 10.2748 0 10.0538 0H5.6504C5.42923 0 5.25014 0.18218 5.25014 0.406923C5.25014 0.631299 5.42923 0.813478 5.6504 0.813478Z" fill="#7D8189"/>
<path d="M10.0538 2.44062C10.2748 2.44062 10.4541 2.25862 10.4541 2.03406C10.4541 1.80932 10.2748 1.62714 10.0538 1.62714H8.05231C7.83133 1.62714 7.65187 1.80932 7.65187 2.03406C7.65187 2.25862 7.83133 2.44062 8.05231 2.44062H10.0538Z" fill="#7D8189"/>
<path d="M3.24848 12.2038H6.05084C6.27182 12.2038 6.45092 12.0216 6.45092 11.7969C6.45092 11.5722 6.27182 11.3902 6.05084 11.3902H3.24848C3.0275 11.3902 2.84822 11.5722 2.84822 11.7969C2.84822 12.0216 3.0275 12.2038 3.24848 12.2038Z" fill="#7D8189"/>
<path d="M6.05084 13.0173H4.8497C4.62872 13.0173 4.44944 13.1995 4.44944 13.424C4.44944 13.6488 4.62872 13.831 4.8497 13.831H6.05084C6.27182 13.831 6.45092 13.6488 6.45092 13.424C6.45092 13.1995 6.27182 13.0173 6.05084 13.0173Z" fill="#7D8189"/>
</svg>
