<svg width="24" height="24" viewBox="0 0 24 24" fill="none" xmlns="http://www.w3.org/2000/svg">
<path d="M6.08027 14.6433V10.0585C6.08027 9.72766 6.12665 9.40503 6.21348 9.09705H3.19042C2.70019 9.09705 2.25561 9.30103 1.93368 9.63025C1.61175 9.95947 1.41211 10.4143 1.41211 10.9155V14.5637C1.41211 15.0077 1.57057 15.4166 1.83305 15.7346C1.96949 15.9001 2.13457 16.0404 2.32042 16.1477V21.4503C2.32042 21.8379 2.62767 22.1521 3.00654 22.1521H7.22171V17.2502C6.50104 16.5848 6.08027 15.6368 6.08027 14.6433Z" fill="#7D8189"/>
<path d="M5.11788 8.26703C6.60023 8.26703 7.80612 7.03381 7.80612 5.51788C7.80612 4.00195 6.60023 2.76874 5.11788 2.76874C3.63554 2.76874 2.42964 4.00195 2.42964 5.51788C2.42964 7.03381 3.63554 8.26703 5.11788 8.26703Z" fill="#7D8189"/>
<path d="M14.3582 7.95319H9.51121C8.94398 7.95319 8.42921 8.18958 8.05644 8.57062C7.68366 8.95184 7.45268 9.47827 7.45268 10.0585V14.6433C7.45268 15.1575 7.63603 15.631 7.93952 15.9988C8.11946 16.2169 8.3422 16.3973 8.59412 16.5262V23.2982C8.59412 23.6858 8.90137 24 9.28041 24H14.5892C14.9683 24 15.2755 23.6858 15.2755 23.2982V16.5262C15.5274 16.3973 15.7502 16.2169 15.9299 15.9988C16.2336 15.631 16.4169 15.1577 16.4169 14.6433V10.0585C16.4169 9.47827 16.186 8.95184 15.8132 8.5708C15.4404 8.18958 14.9256 7.95319 14.3582 7.95319Z" fill="#7D8189"/>
<path d="M11.9337 6.54968C13.6995 6.54968 15.136 5.08063 15.136 3.27484C15.136 1.46906 13.6995 0 11.9337 0C10.168 0 8.73145 1.46906 8.73145 3.27484C8.73145 5.08063 10.168 6.54968 11.9337 6.54968Z" fill="#7D8189"/>
<path d="M22.028 9.63025C21.706 9.30103 21.2615 9.09705 20.7712 9.09705H17.6561C17.7428 9.40503 17.7894 9.72766 17.7894 10.0585V14.6433C17.7894 15.6367 17.3686 16.5848 16.6479 17.2502V22.147C16.675 22.1503 16.7027 22.1521 16.7308 22.1521H20.9549C21.334 22.1521 21.6412 21.8379 21.6412 21.4503V16.1477C21.8269 16.0406 21.992 15.9001 22.1286 15.7346C22.3911 15.4166 22.5495 15.0077 22.5495 14.5637V10.9155C22.5495 10.4143 22.3499 9.95947 22.028 9.63025Z" fill="#7D8189"/>
<path d="M18.842 8.26703C20.3243 8.26703 21.5302 7.03381 21.5302 5.51788C21.5302 4.00195 20.3243 2.76874 18.842 2.76874C17.3598 2.76874 16.1537 4.00195 16.1537 5.51788C16.1537 7.03381 17.3598 8.26703 18.842 8.26703Z" fill="#7D8189"/>
</svg>
