<svg width="17" height="24" viewBox="0 0 17 24" fill="none" xmlns="http://www.w3.org/2000/svg">
<path d="M8.49782 11.7375C10.9823 11.7375 12.9969 9.11016 12.9969 5.86875C12.9969 2.62768 12.3354 0 8.49782 0C4.65997 0 3.99872 2.62768 3.99872 5.86875C3.99872 9.11016 6.01304 11.7375 8.49782 11.7375Z" fill="#7D8189"/>
<path d="M16.9857 20.4616C16.9024 14.8152 16.2156 13.2064 10.9614 12.1878C10.9614 12.1878 10.2216 13.2 8.49782 13.2C6.77375 13.2 6.03393 12.1878 6.03393 12.1878C0.837093 13.1953 0.108495 14.7804 0.0127824 20.2781C0.00498826 20.7271 0.00124707 20.7506 0 20.6983C0.000311762 20.7961 0.000623525 20.9769 0.000623525 21.2916C0.000623525 21.2916 1.25143 24 8.49782 24C15.7439 24 16.9947 21.2916 16.9947 21.2916C16.9947 21.0894 16.995 20.9488 16.995 20.853C16.9938 20.8852 16.991 20.8225 16.9857 20.4616Z" fill="#7D8189"/>
</svg>
