<svg width="24" height="24" viewBox="0 0 24 24" fill="none" xmlns="http://www.w3.org/2000/svg">
<path d="M23.1823 21.8331L20.6613 8.10189C20.56 7.54876 20.0672 7.14665 19.4917 7.14665H15.2986C16.0849 6.39077 16.5734 5.34039 16.5734 4.18052C16.5734 1.88418 14.6593 0.015625 12.3065 0.015625C9.95412 0.015625 8.03995 1.88418 8.03995 4.18052C8.03995 5.34039 8.52845 6.39077 9.31477 7.14665H5.12171C4.54619 7.14665 4.05343 7.54876 3.95209 8.10189L1.43069 21.8331C1.3688 22.171 1.46318 22.5184 1.68906 22.7819C1.91493 23.0454 2.24872 23.1976 2.6003 23.1976H22.0131C22.3647 23.1976 22.6985 23.0454 22.9243 22.7819C23.1498 22.5184 23.2446 22.171 23.1823 21.8331ZM12.3065 2.33537C13.3489 2.33537 14.1971 3.16299 14.1971 4.18052C14.1971 5.19805 13.3489 6.02605 12.3065 6.02605C11.2641 6.02605 10.4163 5.19805 10.4163 4.18052C10.4163 3.16299 11.2641 2.33537 12.3065 2.33537ZM11.9963 17.9646C11.9344 18.076 11.8149 18.1454 11.6849 18.1454H11.1245C10.9988 18.1454 10.8828 18.0805 10.819 17.9744L9.43196 15.663L8.5447 16.5468V17.6116C8.5447 17.9064 8.29987 18.1454 7.99779 18.1454C7.69572 18.1454 7.45089 17.9064 7.45089 17.6116V13.3897C7.45089 13.0948 7.69572 12.8558 7.99779 12.8558C8.29987 12.8558 8.5447 13.0948 8.5447 13.3897V15.2046L10.6503 12.9675C10.7172 12.8962 10.812 12.8558 10.911 12.8558H11.3918C11.5341 12.8558 11.6621 12.9385 11.7178 13.0665C11.7731 13.1941 11.7453 13.3417 11.6463 13.4414L10.1862 14.9158L11.982 17.6116C12.0524 17.7177 12.0582 17.8532 11.9963 17.9646ZM17.3861 17.2604C17.3861 17.3654 17.3369 17.4651 17.253 17.5304C17.0345 17.7007 16.7467 17.8532 16.3901 17.9884C15.955 18.1534 15.5144 18.2357 15.0685 18.2357C14.5015 18.2357 14.0079 18.1194 13.5863 17.8872C13.1648 17.6554 12.848 17.3235 12.6364 16.8916C12.4245 16.4596 12.3185 15.9899 12.3185 15.4825C12.3185 14.9316 12.4365 14.4419 12.6732 14.0141C12.9099 13.5856 13.256 13.2575 13.7121 13.0287C14.0594 12.8535 14.4918 12.7655 15.0093 12.7655C15.6819 12.7655 16.2075 12.9034 16.5858 13.1786C16.7498 13.2979 16.8883 13.4372 17.0016 13.5958C17.1095 13.7476 17.1316 13.9428 17.0596 14.1138C16.9881 14.2849 16.8322 14.4087 16.6462 14.4431H16.645C16.4268 14.4831 16.2056 14.3887 16.0876 14.2052C16.0118 14.0878 15.9155 13.9873 15.7983 13.9039C15.5875 13.7536 15.3245 13.6785 15.0093 13.6785C14.5312 13.6785 14.151 13.8265 13.8691 14.1221C13.5867 14.4181 13.4459 14.8569 13.4459 15.4391C13.4459 16.067 13.5887 16.5378 13.8745 16.8519C14.1603 17.1657 14.5347 17.3227 14.9985 17.3227C15.2274 17.3227 15.4572 17.2789 15.6877 17.191C15.9178 17.103 16.1155 16.9965 16.2806 16.8715V16.2002H15.4843C15.2321 16.2002 15.0279 16.0009 15.0279 15.7547C15.0279 15.5089 15.2325 15.3092 15.4843 15.3092H17.0322C17.2275 15.3092 17.3861 15.464 17.3861 15.6547V17.2604Z" fill="#7D8189"/>
</svg>
