<svg width="115" height="128" viewBox="0 0 115 128" fill="none" xmlns="http://www.w3.org/2000/svg">
<path d="M30.5704 31.1663C35.4991 31.1663 39.51 27.1442 39.51 22.2018C39.51 17.2594 35.4991 13.0381 30.5704 13.0381C25.6416 13.0381 21.6307 17.2594 21.6307 22.2018C21.6307 27.1442 25.6416 31.1663 30.5704 31.1663Z" fill="#00B6F0"/>
<path d="M54.4095 55.2708C57.6953 55.2708 60.3693 52.5894 60.3693 49.2945C60.3693 45.9995 57.6953 43.3182 54.4095 43.3182H37.2334L32.9205 34.4692C30.0896 28.7917 21.6307 31.3874 21.6307 37.3418V67.3908C21.6307 69.4247 23.1564 72.0384 25.7052 72.895L40.7556 77.9291L45.7777 93.0253C46.8068 96.1349 50.1622 97.8601 53.3149 96.8003C56.416 95.7624 58.1264 92.3878 57.0835 89.2403L51.1237 71.3113C50.5337 69.5363 49.1252 68.1239 47.3551 67.5322L33.5503 62.9165V55.2708H54.4095Z" fill="#00B6F0"/>
<path d="M101.615 56.1493C100.453 54.98 98.5517 54.9859 97.3935 56.1493L91.4377 62.1217C90.2735 63.2891 90.2735 65.1796 91.4377 66.3469C92.6018 67.5143 94.4871 67.5143 95.6512 66.3469L96.5254 65.4704V85.1525H69.309C67.6621 85.1525 66.3291 86.4892 66.3291 88.1406V97.1051H39.51C37.8632 97.1051 36.5301 98.4418 36.5301 100.093V109.058H9.7111C8.06421 109.058 6.7312 110.394 6.7312 112.046C6.7312 113.697 8.06421 115.034 9.7111 115.034H39.51C41.1569 115.034 42.4899 113.697 42.4899 112.046V103.081H69.309C70.9559 103.081 72.2889 101.745 72.2889 100.093V91.1288H99.5052C101.152 91.1288 102.485 89.7921 102.485 88.1406V65.4724L103.359 66.3489C104.523 67.5163 106.409 67.5163 107.573 66.3489C108.737 65.1815 108.737 63.291 107.573 62.1237L101.615 56.1493Z" fill="#00B6F0"/>
<path d="M20.6612 108.978C23.8656 109.524 26.9607 107.36 27.509 104.064L31.3292 81.0746L23.8179 78.5626C22.4015 78.0864 21.1638 77.2697 20.0374 76.3135L15.7504 102.101C15.2199 105.285 17.3496 108.42 20.6612 108.978Z" fill="#00B6F0"/>
<path d="M15.6709 60.7312V37.8558L8.47741 45.0692C6.15508 47.398 6.15508 51.191 8.47741 53.5197L15.6709 60.7312Z" fill="#00B6F0"/>
</svg>
