<svg width="115" height="128" viewBox="0 0 115 128" fill="none" xmlns="http://www.w3.org/2000/svg">
<path d="M105.119 59.4802L90.1458 44.4658V27.119C90.1458 23.9841 87.6129 21.4417 84.4792 21.4417C81.353 21.4417 78.8201 23.9841 78.8201 27.119V33.1062L67.6713 21.9267C62.1593 16.4019 52.5737 16.4119 47.0741 21.9367L9.63414 59.4802C7.42534 61.7001 7.42534 65.295 9.63414 67.5099C11.8454 69.7298 15.4354 69.7298 17.6467 67.5099L55.0842 29.9664C56.3057 28.7489 58.4547 28.7489 59.6663 29.9639L97.1088 67.5099C98.2207 68.6199 99.6666 69.1723 101.115 69.1723C102.566 69.1723 104.014 68.6199 105.121 67.5099C107.333 65.295 107.333 61.7001 105.119 59.4802Z" fill="#00B6F0"/>
<path d="M59.3447 40.7459C58.2578 39.656 56.4952 39.656 55.4108 40.7459L22.4781 73.7597C21.9571 74.2796 21.6629 74.9921 21.6629 75.7346V99.8161C21.6629 105.466 26.2326 110.048 31.8668 110.048H48.1711V84.7242H66.5794V110.046H82.8862C88.5204 110.046 93.0876 105.466 93.0876 99.8136V75.7321C93.0876 74.9896 92.7959 74.2771 92.2724 73.7571L59.3447 40.7459Z" fill="#00B6F0"/>
</svg>
