<svg width="115" height="128" viewBox="0 0 115 128" fill="none" xmlns="http://www.w3.org/2000/svg">
<path d="M44.7898 112.202C44.7898 114.458 42.9761 116.284 40.7368 116.284H27.1814C18.2424 116.284 10.9692 108.959 10.9692 99.9568V28.1158C10.9692 19.1132 18.2424 11.7883 27.1814 11.7883H77.0115C85.9505 11.7883 93.2237 19.1132 93.2237 28.1158V53.2193C93.2237 55.4746 91.41 57.3012 89.1707 57.3012C86.9314 57.3012 85.1176 55.4746 85.1176 53.2193V28.1158C85.1176 23.6135 81.482 19.9521 77.0115 19.9521H27.1814C22.7109 19.9521 19.0753 23.6135 19.0753 28.1158V99.9568C19.0753 104.459 22.7109 108.12 27.1814 108.12H40.7368C42.9741 108.12 44.7898 109.947 44.7898 112.202ZM72.9585 36.2796H31.2122C28.9728 36.2796 27.1591 38.1062 27.1591 40.3614C27.1591 42.6167 28.9728 44.4433 31.2122 44.4433H72.9585C75.1978 44.4433 77.0115 42.6167 77.0115 40.3614C77.0115 38.1062 75.1958 36.2796 72.9585 36.2796ZM77.0115 56.6889C77.0115 54.4337 75.1978 52.607 72.9585 52.607H31.2122C28.9728 52.607 27.1591 54.4337 27.1591 56.6889C27.1591 58.9441 28.9728 60.7708 31.2122 60.7708H72.9585C75.1958 60.7708 77.0115 58.9441 77.0115 56.6889ZM31.2122 68.9345C28.9728 68.9345 27.1591 70.7612 27.1591 73.0164C27.1591 75.2716 28.9728 77.0983 31.2122 77.0983H56.566C58.8053 77.0983 60.619 75.2716 60.619 73.0164C60.619 70.7612 58.8053 68.9345 56.566 68.9345H31.2122ZM100.404 88.2071L78.197 110.527C77.7026 111.025 77.0885 111.384 76.4157 111.572L60.0577 116.135C59.701 116.235 59.3362 116.284 58.9755 116.284C57.8974 116.284 56.8476 115.852 56.0735 115.054C55.042 113.988 54.6671 112.441 55.0967 111.017L59.9421 94.9503C60.1367 94.3074 60.4853 93.7217 60.9574 93.2462L83.2086 70.8857C87.9466 66.114 95.6596 66.114 100.402 70.8898C105.144 75.6635 105.144 83.4313 100.404 88.2071ZM88.1513 88.9867L82.4183 83.2129L67.4038 98.2995L64.9943 106.286L73.224 103.99L88.1513 88.9867ZM94.6706 76.6615C93.0899 75.0696 90.5183 75.0696 88.9396 76.6615L88.1574 77.4473L93.8884 83.2211L94.6747 82.4312C96.2513 80.8414 96.2513 78.2534 94.6706 76.6615Z" fill="#00B6F0"/>
</svg>
