<svg width="115" height="128" viewBox="0 0 115 128" fill="none" xmlns="http://www.w3.org/2000/svg">
<path d="M31.4303 34.776L70.5877 24.0641L68.514 19.8634C67.1573 17.1329 63.8482 16.0054 61.1238 17.3651L26.0696 34.776H31.4303Z" fill="#00B6F0"/>
<path d="M82.7431 24.3737C82.2578 24.3737 81.7724 24.44 81.2871 24.5726L43.9938 34.776H89.7804L88.0597 28.4528C87.3979 25.9876 85.1697 24.3737 82.7431 24.3737Z" fill="#00B6F0"/>
<path d="M95.5272 38.6451H14.0025C12.2597 38.6451 10.7044 39.452 9.68965 40.7233C9.22638 41.3092 8.87341 41.9835 8.67486 42.7242C8.55353 43.1885 8.47632 43.6749 8.47632 44.1723V105.757C8.47632 108.808 10.9471 111.284 13.9915 111.284H95.5161C98.5605 111.284 101.031 108.808 101.031 105.757V90.3361H68.3045C63.1313 90.3361 58.9287 86.1243 58.9287 80.9397V68.6471C58.9287 66.1045 59.9435 63.7941 61.587 62.1028C63.043 60.5994 64.9954 59.5823 67.1794 59.3281C67.5434 59.2839 67.9184 59.2618 68.2934 59.2618H101.031V44.1723C101.042 41.1213 98.5715 38.6451 95.5272 38.6451Z" fill="#00B6F0"/>
<path d="M79.8201 75.8767C79.8201 77.4023 78.5847 78.6404 77.0625 78.6404H75.2315C73.7093 78.6404 72.4739 77.4023 72.4739 75.8767V74.0417C72.4739 73.1573 72.882 72.3724 73.5328 71.875C74.0071 71.5102 74.5917 71.278 75.2315 71.278H77.0625C78.5847 71.278 79.8201 72.5161 79.8201 74.0417V75.8767ZM104.903 64.5458C104.351 64.0373 103.701 63.6504 102.973 63.3961C102.41 63.2082 101.814 63.0977 101.186 63.0977H68.3045C65.2601 63.0977 62.7893 65.5739 62.7893 68.625V80.9286C62.7893 83.9797 65.2601 86.4559 68.3045 86.4559H101.186C101.814 86.4559 102.41 86.3454 102.973 86.1574C103.701 85.9142 104.351 85.5163 104.903 85.0078C106.006 84.0018 106.701 82.5426 106.701 80.9286V68.625C106.701 67.011 106.006 65.5518 104.903 64.5458Z" fill="#00B6F0"/>
</svg>
