<svg width="115" height="128" viewBox="0 0 115 128" fill="none" xmlns="http://www.w3.org/2000/svg">
<path d="M66.0023 112.032H49.1745V103.595C49.1745 93.695 41.8476 85.4779 32.3467 84.1079V92.3101L9.72266 75.4733L32.3467 58.6339V67.1461C38.3424 67.6136 44.1162 69.576 49.1745 72.8409V37.4123H40.5337L57.5884 16.0381L74.6406 37.4123H65.9998V50.3392C71.0581 47.0744 76.8319 45.1119 82.8276 44.6445V36.1323L105.452 52.9716L82.8276 69.811V61.6113C73.3268 62.9812 65.9998 71.1959 65.9998 81.098V112.032H66.0023Z" fill="#00B6F0"/>
<path d="M82.8301 83.9104H77.2208V89.5352H82.8301V83.9104Z" fill="#00B6F0"/>
<path d="M105.454 83.9104H88.4394V89.5352H105.454V83.9104Z" fill="#00B6F0"/>
<path d="M82.8301 95.16H77.2208V100.785H82.8301V95.16Z" fill="#00B6F0"/>
<path d="M105.454 95.16H88.4394V100.785H105.454V95.16Z" fill="#00B6F0"/>
<path d="M82.8301 106.41H77.2208V112.019H82.8301V106.41Z" fill="#00B6F0"/>
<path d="M105.454 106.41H88.4394V112.019H105.454V106.41Z" fill="#00B6F0"/>
</svg>
