<svg width="44" height="44" viewBox="0 0 44 44" fill="none" xmlns="http://www.w3.org/2000/svg">
<rect width="44" height="44" rx="4" fill="#E04C40"/>
<path d="M35.9728 29.4527C35.9728 30.0628 35.8002 30.6285 35.5236 31.1263L26.6917 21.2924L35.428 13.6858C35.7679 14.2225 35.9728 14.853 35.9728 15.5342V29.4527ZM21.9864 23.0779L34.1425 12.493C33.6439 12.2211 33.0821 12.0547 32.476 12.0547H11.4965C10.8896 12.0547 10.3278 12.2211 9.8311 12.493L21.9864 23.0779ZM25.3754 22.4373L22.5618 24.8893C22.397 25.0318 22.1921 25.1032 21.9864 25.1032C21.7807 25.1032 21.5758 25.0318 21.411 24.889L18.5966 22.4373L9.65263 32.3971C10.1888 32.7319 10.8171 32.9323 11.4965 32.9323H32.476C33.1557 32.9323 33.784 32.7319 34.3199 32.3971L25.3754 22.4373ZM8.54474 13.6858C8.20488 14.2225 8 14.853 8 15.5342V29.4527C8 30.0628 8.17153 30.6285 8.44897 31.1263L17.2801 21.2905L8.54474 13.6858Z" fill="white"/>
</svg>
