<svg width="44" height="44" viewBox="0 0 44 44" fill="none" xmlns="http://www.w3.org/2000/svg">
<rect width="44" height="44" rx="4" fill="#EE0000"/>
<path d="M21.7674 8.00593C16.1284 7.81275 11.5 12.3653 11.5 18.0094C11.5 24.4147 17.5935 29.0627 21.0083 35.7449C21.1814 36.0847 21.6659 36.0847 21.839 35.7472C24.9284 29.7306 30.2098 25.6994 31.1881 19.904C32.201 13.9084 27.7941 8.21075 21.7674 8.00593ZM21.4236 23.2533C18.5534 23.2533 16.2253 20.9048 16.2253 18.0094C16.2253 15.1141 18.5534 12.7656 21.4236 12.7656C24.2939 12.7656 26.622 15.1141 26.622 18.0094C26.622 20.9048 24.2939 23.2533 21.4236 23.2533Z" fill="white"/>
</svg>
