<svg width="44" height="44" viewBox="0 0 44 44" fill="none" xmlns="http://www.w3.org/2000/svg">
<rect width="44" height="44" rx="4" fill="#32CC68"/>
<path d="M34.0213 29.9991L30.0692 25.98C29.281 25.1834 27.9784 25.2081 27.1636 26.0361L25.1721 28.0602C25.0463 27.9907 24.916 27.9166 24.7791 27.8381C23.5206 27.129 21.8007 26.1596 19.988 24.3172C18.171 22.4704 17.2149 20.7178 16.5172 19.4387C16.4422 19.3041 16.3715 19.1739 16.3031 19.0483L18.2968 17.0242C19.1115 16.1939 19.1358 14.8699 18.3498 14.071L14.3955 10.052C13.6117 9.25314 12.3068 9.27782 11.4899 10.1081L10.3771 11.2458L10.4058 11.2772C10.0327 11.7619 9.72139 12.3207 9.48956 12.9221C9.2754 13.4966 9.14072 14.0441 9.08111 14.5917C8.55784 18.9899 10.5361 23.009 15.9012 28.4642C23.3197 36.0018 29.2987 35.4341 29.557 35.4049C30.1178 35.3376 30.6565 35.2007 31.2041 34.9853C31.7914 34.7519 32.3411 34.4355 32.8158 34.0562L32.8401 34.0787L33.9705 32.9544C34.783 32.1241 34.8073 30.8002 34.0213 29.9991Z" fill="white"/>
</svg>
