<svg width="44" height="44" viewBox="0 0 44 44" fill="none" xmlns="http://www.w3.org/2000/svg">
<rect width="44" height="44" rx="4" fill="#00B6F0"/>
<g clip-path="url(#clip0)">
<path d="M35.5679 11.656C35.2257 11.2331 34.7134 11 34.1253 11C33.8053 11 33.4667 11.0683 33.1185 11.2026L9.41679 20.3515C8.15898 20.8368 7.98958 21.5652 8.00047 21.9564C8.01137 22.3474 8.22136 23.065 9.50438 23.4776C9.51207 23.4802 9.51976 23.4824 9.52745 23.4847L12.8514 24.4464L29.0398 16.0835C29.4431 15.8748 29.9374 16.0368 30.1436 16.4448C30.3055 16.7654 30.2406 17.1421 30.0098 17.3901L30.0105 17.3908L21.0097 27.0615L20.7529 28.1137L28.4211 34.3576C28.425 34.3606 28.4288 34.3638 28.4329 34.3669C28.9229 34.7514 29.4583 34.9544 29.981 34.9546C31.0025 34.9546 31.8158 34.1902 32.0527 33.0073L35.9362 13.617C36.0919 12.8389 35.9612 12.1423 35.5679 11.656Z" fill="white"/>
<path d="M19.4688 26.4528C19.5015 26.3186 19.5673 26.1907 19.6675 26.0829L25.5735 19.7371L14.614 25.3988L17.1025 32.5953C17.2444 33.0053 17.4554 33.3544 17.7165 33.6277L19.4684 26.4525L19.4688 26.4528Z" fill="white"/>
<path d="M19.2439 34.2938C19.8354 34.2889 20.4167 34.0366 20.9259 33.5624L22.7467 31.8672L20.319 29.8906L19.2439 34.2938Z" fill="white"/>
</g>
<defs>
<clipPath id="clip0">
<rect width="28" height="24" fill="white" transform="translate(8 11)"/>
</clipPath>
</defs>
</svg>
