<svg width="44" height="44" viewBox="0 0 44 44" fill="none" xmlns="http://www.w3.org/2000/svg">
<rect width="44" height="44" rx="4" fill="#32CC68"/>
<path fill-rule="evenodd" clip-rule="evenodd" d="M32.0648 11.9547C29.5294 9.43218 26.1576 8.0425 22.5653 8.04102C15.1633 8.04102 9.13917 14.0274 9.13619 21.3852C9.1352 23.7373 9.75344 26.0334 10.9287 28.0572L9.02344 34.9726L16.1425 33.1167C18.1042 34.18 20.3126 34.7404 22.56 34.7411H22.5655C29.9668 34.7411 35.9916 28.7542 35.9945 21.3959C35.996 17.83 34.6004 14.4772 32.0648 11.9547ZM22.5653 32.4874H22.5609C20.5579 32.4866 18.5938 31.9517 16.8798 30.9412L16.4723 30.7007L12.2478 31.8021L13.3755 27.7089L13.1099 27.2891C11.9926 25.5232 11.4025 23.4819 11.4035 21.386C11.4058 15.2705 16.4132 10.2949 22.5698 10.2949C25.5512 10.2958 28.3537 11.4511 30.4611 13.5478C32.5683 15.6445 33.7283 18.4312 33.7273 21.3951C33.7246 27.5113 28.7176 32.4874 22.5653 32.4874ZM28.6878 24.1799C28.3524 24.0129 26.7026 23.2065 26.395 23.0949C26.0877 22.9837 25.8637 22.9282 25.6401 23.2619C25.4165 23.5956 24.7734 24.3469 24.5777 24.5693C24.3818 24.7918 24.1863 24.8198 23.8507 24.6528C23.515 24.4859 22.4339 24.1336 21.1522 22.9977C20.1548 22.1134 19.4814 21.0216 19.2855 20.6879C19.09 20.3539 19.2839 20.1908 19.4327 20.0074C19.796 19.559 20.1597 19.0891 20.2715 18.8666C20.3834 18.6442 20.3275 18.4493 20.2434 18.2825C20.1597 18.1157 19.4887 16.4744 19.209 15.8065C18.9365 15.1565 18.6602 15.2443 18.454 15.2341C18.2585 15.2244 18.0346 15.2224 17.811 15.2224C17.5873 15.2224 17.2237 15.3059 16.916 15.6399C16.6086 15.9737 15.7418 16.7803 15.7418 18.4215C15.7418 20.0628 16.9442 21.6485 17.1119 21.8711C17.2796 22.0935 19.4781 25.4616 22.844 26.9059C23.6445 27.2498 24.2694 27.4547 24.757 27.6083C25.5608 27.8622 26.292 27.8264 26.8703 27.7406C27.5151 27.6447 28.8554 26.9339 29.1353 26.155C29.4148 25.3761 29.4148 24.7085 29.3309 24.5693C29.2471 24.4301 29.0233 24.3469 28.6878 24.1799Z" fill="white"/>
</svg>
