<svg xmlns="http://www.w3.org/2000/svg" width="30" height="30" viewBox="0 0 30 30">
  <g fill="none" fill-rule="evenodd">
    <circle cx="15" cy="15" r="15" fill="#FF1E31"/>
    <path fill="#FFF" fill-rule="nonzero" d="M15,23 C10.581722,23 7,19.418278 7,15 C7,10.581722 10.581722,7 15,7 C19.418278,7 23,10.581722 23,15 C23,19.418278 19.418278,23 15,23 Z M14.218,16.836 L15.912,16.836 C16.0146672,16.836 16.1009996,16.8010004 16.171,16.731 C16.2410004,16.6609997 16.276,16.5746672 16.276,16.472 L16.276,10.55 C16.276,10.4473328 16.2410004,10.3633337 16.171,10.298 C16.1009996,10.2326663 16.0146672,10.2 15.912,10.2 L14.218,10.2 C14.1153328,10.2 14.0290003,10.2326663 13.959,10.298 C13.8889996,10.3633337 13.854,10.4473328 13.854,10.55 L13.854,16.472 C13.854,16.5746672 13.8889996,16.6609997 13.959,16.731 C14.0290003,16.8010004 14.1153328,16.836 14.218,16.836 Z M14.162,20 L15.968,20 C16.0706672,20 16.1546663,19.9650004 16.22,19.895 C16.2853337,19.8249997 16.318,19.7433338 16.318,19.65 L16.318,17.844 C16.318,17.7413328 16.2830003,17.6550004 16.213,17.585 C16.1429996,17.5149997 16.0613338,17.48 15.968,17.48 L14.162,17.48 C14.0686662,17.48 13.9870003,17.5149997 13.917,17.585 C13.8469996,17.6550004 13.812,17.7413328 13.812,17.844 L13.812,19.65 C13.812,19.7433338 13.8469996,19.8249997 13.917,19.895 C13.9870003,19.9650004 14.0686662,20 14.162,20 Z"/>
  </g>
</svg>
