<svg xmlns="http://www.w3.org/2000/svg" width="30" height="30" viewBox="0 0 30 30">
  <path fill="#FFF" fill-rule="evenodd" d="M7,14 C3.13400675,14 0,10.8659932 0,7 C0,3.13400675 3.13400675,0 7,0 C10.8659932,0 14,3.13400675 14,7 C14,10.8659932 10.8659932,14 7,14 Z M8.04392363,7 L9.78379634,5.26012729 C10.0720679,4.97185574 10.0720679,4.50447521 9.78379634,4.21620366 C9.49552479,3.92793211 9.02814426,3.92793211 8.73987271,4.21620366 L7,5.95607637 L5.26012729,4.21620366 C4.97185574,3.92793211 4.50447521,3.92793211 4.21620366,4.21620366 C3.92793211,4.50447521 3.92793211,4.97185574 4.21620366,5.26012729 L5.95607637,7 L4.21620366,8.73987271 C3.92793211,9.02814426 3.92793211,9.49552479 4.21620366,9.78379634 C4.50447521,10.0720679 4.97185574,10.0720679 5.26012729,9.78379634 L7,8.04392363 L8.73987271,9.78379634 C9.02814426,10.0720679 9.49552479,10.0720679 9.78379634,9.78379634 C10.0720679,9.49552479 10.0720679,9.02814426 9.78379634,8.73987271 L8.04392363,7 Z" transform="translate(8 8)"/>
</svg>
