<svg xmlns="http://www.w3.org/2000/svg" width="30" height="30" viewBox="0 0 30 30">
  <g fill="none" fill-rule="evenodd">
    <path fill="#FFF" fill-rule="nonzero" d="M15,23 C10.581722,23 7,19.418278 7,15 C7,10.581722 10.581722,7 15,7 C19.418278,7 23,10.581722 23,15 C23,19.418278 19.418278,23 15,23 Z M14.2213203,15.6284271 L13.1606602,14.567767 C12.965398,14.3725048 12.6488155,14.3725048 12.4535534,14.567767 L11.7464466,15.2748737 C11.5511845,15.4701359 11.5511845,15.7867184 11.7464466,15.9819805 L13.867767,18.1033009 C14.0630291,18.298563 14.3796116,18.298563 14.5748737,18.1033009 L18.8175144,13.8606602 C19.0127766,13.665398 19.0127766,13.3488155 18.8175144,13.1535534 L18.1104076,12.4464466 C17.9151455,12.2511845 17.598563,12.2511845 17.4033009,12.4464466 L14.2213203,15.6284271 Z"/>
  </g>
</svg>
