<svg xmlns="http://www.w3.org/2000/svg" width="30" height="30" viewBox="0 0 30 30">
  <g fill="none" fill-rule="evenodd">
    <circle cx="15" cy="15" r="15"/>
    <path fill="#FFF" fill-rule="nonzero" d="M15,23 C10.581722,23 7,19.418278 7,15 C7,10.581722 10.581722,7 15,7 C19.418278,7 23,10.581722 23,15 C23,19.418278 19.418278,23 15,23 Z M13.385,19.076 L16.624,19.076 C16.837,19.076 17.01,18.875 17.01,18.628 C17.01,18.381 16.837,18.18 16.624,18.18 L16.005,18.07 L16.005,14.07 C16.005,14.029 16.009,14.015 16.012,14 C16.001,14.026 15.976,14.058 15.899,14.058 L13.385,14.058 C13.172,14.058 13,14.259 13,14.506 C13,14.753 13.172,14.954 13.385,14.954 L14.005,15.07 L14.005,18.07 L13.385,18.18 C13.172,18.18 13,18.381 13,18.628 C13,18.875 13.172,19.076 13.385,19.076 Z M14.013,11.004 L14.013,11.945 C14.011,11.966 14,11.984 14,12.005 C14,12.027 14.011,12.044 14.013,12.065 L14.013,13.004 L14.98,13.004 C14.991,13.005 15.001,13.011 15.013,13.011 C15.024,13.011 15.034,13.005 15.046,13.004 L16.013,13.004 L16.013,12.066 C16.014,12.045 16.025,12.027 16.025,12.005 C16.025,11.984 16.014,11.966 16.013,11.944 L16.013,11.004 L15.033,11.004 C15.026,11.004 15.02,11 15.013,11 C15.006,11 15,11.004 14.993,11.004 L14.013,11.004 Z"/>
  </g>
</svg>
