<svg width="89" height="100" viewBox="0 0 89 100" fill="none" xmlns="http://www.w3.org/2000/svg">
<path fill-rule="evenodd" clip-rule="evenodd" d="M37.4737 2.45239C41.8187 -0.0687604 47.1813 -0.068767 51.5263 2.45238L82.0263 20.1499C86.3431 22.6547 89 27.2682 89 32.2591V67.741C89 72.7318 86.3431 77.3453 82.0263 79.8501L51.5263 97.5476C47.1813 100.069 41.8187 100.069 37.4737 97.5476L6.97371 79.8501C2.65692 77.3453 0 72.7318 0 67.741V32.2591C0 27.2682 2.65691 22.6547 6.97371 20.1499L37.4737 2.45239ZM47.5113 9.37189C45.6491 8.2914 43.3509 8.2914 41.4887 9.37189L10.9887 27.0694C9.13868 28.1429 8 30.1201 8 32.2591V67.741C8 69.8799 9.13868 71.8571 10.9887 72.9306L41.4887 90.6281C43.3509 91.7086 45.6491 91.7086 47.5113 90.6281L78.0113 72.9306C79.8613 71.8571 81 69.8799 81 67.741V32.2591C81 30.1201 79.8613 28.1429 78.0113 27.0694L47.5113 9.37189Z" fill="#00B6F0"/>
<path d="M39.7235 37.05H50.2815C51.5845 37.05 52.6447 35.9925 52.6447 34.69V29.5188H50.7672C50.1338 26.9275 47.7894 25 45.0031 25C42.2169 25 39.8724 26.9288 39.2391 29.5188H37.3615V34.69C37.3603 35.9913 38.4205 37.05 39.7235 37.05Z" fill="white"/>
<path d="M55.5612 50.3063H45.0031C44.2246 50.3063 43.595 49.6763 43.595 48.9C43.595 48.1238 44.2258 47.4938 45.0031 47.4938H55.5599C56.3372 47.4938 56.9681 48.1238 56.9681 48.9C56.9693 49.6763 56.3385 50.3063 55.5612 50.3063ZM55.5612 59.3438H45.0031C44.2246 59.3438 43.595 58.7137 43.595 57.9375C43.595 57.1613 44.2258 56.5312 45.0031 56.5312H55.5599C56.3372 56.5312 56.9681 57.1613 56.9681 57.9375C56.9693 58.7137 56.3385 59.3438 55.5612 59.3438ZM55.5612 68.3812H45.0031C44.2246 68.3812 43.595 67.7525 43.595 66.975C43.595 66.1987 44.2258 65.5687 45.0031 65.5687H55.5599C56.3372 65.5687 56.9681 66.1987 56.9681 66.975C56.9693 67.7512 56.3385 68.3812 55.5612 68.3812ZM39.9651 46.8812L36.9485 49.8938C36.6731 50.1688 36.3139 50.3063 35.9534 50.3063C35.5929 50.3063 35.2324 50.1688 34.9583 49.8938L33.4487 48.3875C32.8992 47.8387 32.8992 46.9475 33.4487 46.3988C33.9982 45.85 34.8907 45.85 35.4402 46.3988L35.9534 46.9112L37.9736 44.8938C38.5231 44.345 39.4156 44.345 39.9651 44.8938C40.5145 45.4425 40.5145 46.3325 39.9651 46.8812ZM39.9651 55.9187L36.9485 58.9313C36.6731 59.2063 36.3139 59.3438 35.9534 59.3438C35.5929 59.3438 35.2324 59.2063 34.9583 58.9313L33.45 57.425C32.9005 56.8763 32.9005 55.985 33.45 55.4362C34.0007 54.8875 34.8919 54.8875 35.4414 55.4362L35.9546 55.9475L37.9761 53.93C38.5256 53.3813 39.4181 53.3813 39.9676 53.93C40.5145 54.48 40.5145 55.37 39.9651 55.9187ZM39.9651 64.9563L36.9485 67.9688C36.6731 68.2425 36.3139 68.3812 35.9534 68.3812C35.5929 68.3812 35.2324 68.2438 34.9583 67.9688L33.45 66.4625C32.9005 65.9137 32.9005 65.0225 33.45 64.4737C34.0007 63.9237 34.8919 63.9237 35.4414 64.4737L35.9546 64.9863L37.9749 62.9675C38.5244 62.4187 39.4168 62.4187 39.9663 62.9675C40.5145 63.5175 40.5145 64.4075 39.9651 64.9563ZM57.823 29.5188H55.4598V34.69C55.4598 37.5425 53.1366 39.8625 50.2803 39.8625H39.7222C36.8671 39.8625 34.5427 37.5425 34.5427 34.69V29.5188H32.1795C29.3244 29.5188 27 31.8388 27 34.69V67.8275C27 70.6787 29.3231 73 32.1795 73H57.8205C60.6756 73 63 70.68 63 67.8275V34.69C63.0013 31.8388 60.6781 29.5188 57.823 29.5188Z" fill="white"/>
</svg>
