<svg width="89" height="100" viewBox="0 0 89 100" fill="none" xmlns="http://www.w3.org/2000/svg">
<path fill-rule="evenodd" clip-rule="evenodd" d="M37.4737 2.45239C41.8187 -0.0687604 47.1813 -0.068767 51.5263 2.45238L82.0263 20.1499C86.3431 22.6547 89 27.2682 89 32.2591V67.741C89 72.7318 86.3431 77.3453 82.0263 79.8501L51.5263 97.5476C47.1813 100.069 41.8187 100.069 37.4737 97.5476L6.97371 79.8501C2.65692 77.3453 0 72.7318 0 67.741V32.2591C0 27.2682 2.65691 22.6547 6.97371 20.1499L37.4737 2.45239ZM47.5113 9.37189C45.6491 8.2914 43.3509 8.2914 41.4887 9.37189L10.9887 27.0694C9.13868 28.1429 8 30.1201 8 32.2591V67.741C8 69.8799 9.13868 71.8571 10.9887 72.9306L41.4887 90.6281C43.3509 91.7086 45.6491 91.7086 47.5113 90.6281L78.0113 72.9306C79.8613 71.8571 81 69.8799 81 67.741V32.2591C81 30.1201 79.8613 28.1429 78.0113 27.0694L47.5113 9.37189Z" fill="#00B6F0"/>
<path d="M47.8879 34.2813C47.9186 34.3192 47.9492 34.358 47.986 34.4037H50.4821C50.9384 34.4029 51.3088 34.0312 51.3097 33.5724C51.3097 33.1066 51.6127 32.8785 52.0681 32.8785H56.1267C56.244 32.8785 56.3614 32.8635 56.4752 32.8327C57.3694 32.5368 57.9028 31.6175 57.7198 30.6902C57.189 28.9897 55.8157 26.7635 52.2345 26.7635C46.5602 26.7635 45.3016 31.1243 47.7889 34.1669C47.8196 34.2065 47.8529 34.2444 47.8879 34.2813Z" fill="white"/>
<path d="M57.9229 62.654L44.6491 49.2175L44.6421 49.2113C44.6272 49.2272 44.6167 49.2448 44.601 49.2598C44.1 49.73 43.4283 49.9704 42.7443 49.9246L58.0158 67.1874C58.5474 67.7889 59.354 68.0645 60.1396 67.9157L65.5802 66.8827C66.9929 66.7621 68.0596 65.5415 67.9974 64.1176C68.0167 63.5531 67.7837 63.0106 67.3625 62.6364C66.9421 62.2621 66.3772 62.0974 65.8219 62.1855C65.7142 62.2014 65.6012 62.2207 65.483 62.2436L59.9557 63.2907C59.2165 63.4298 58.4546 63.1912 57.9229 62.654Z" fill="white"/>
<path d="M43.3144 70.5892C43.8863 70.967 44.5878 71.0912 45.2543 70.9327C45.9199 70.7742 46.4919 70.3462 46.8343 69.7509L47.6006 68.4696L43.1708 66.2425C43.1541 66.2355 43.1384 66.2249 43.1252 66.2126L42.5945 67.1196C41.8877 68.2855 42.2021 69.8037 43.3144 70.5892Z" fill="white"/>
<path d="M27.8782 70.5734L29.0684 69.8108L26.2396 65.7379C26.2317 65.73 26.2247 65.715 26.2168 65.7071L25.1019 66.416C23.9598 67.1874 23.6568 68.7426 24.4231 69.8909C25.1895 71.0392 26.7362 71.3448 27.8782 70.5734Z" fill="white"/>
<path d="M30.3506 68.9874C33.557 66.9382 36.3027 64.2391 38.4142 61.0627L38.9073 60.308C39.2139 59.8466 39.7288 59.5692 40.2806 59.5683H47.0322L43.8994 64.8996L48.3293 67.1266C48.3477 67.1355 48.3652 67.1451 48.3819 67.1575L51.4314 62.0402L39.8103 48.9049C39.2182 50.2892 38.5079 51.619 37.6864 52.8782L33.4843 59.2997C32.1802 61.2943 30.4715 62.9886 28.4703 64.2726L27.4999 64.8908L30.3366 68.9636C30.3428 68.9724 30.3428 68.9795 30.3506 68.9874Z" fill="white"/>
<path d="M35.8726 37.441C34.2025 39.0164 34.1149 41.6521 35.6756 43.3367L39.5213 47.4633L43.0412 43.9241L41.9946 42.833C41.9525 42.7899 41.9166 42.7406 41.8886 42.6877L40.1291 40.7882L43.4055 40.3303L42.8669 41.6116C42.9492 41.6512 43.0236 41.7058 43.0867 41.7719L46.2422 45.0513C47.1522 46.02 47.1452 47.6976 46.5759 49.0018L48.5859 51.0386L50.0652 48.6055L50.1484 50.3597C50.1781 51.2561 50.3078 52.1464 50.5355 53.0139L56.0811 58.6269L58.2128 57.1316C58.2286 57.1193 58.247 57.1087 58.2654 57.1017L56.505 54.0512C55.6458 52.5357 55.1563 50.8361 55.0792 49.0933L54.8208 43.121C54.7569 41.7622 54.0414 40.5196 52.9019 39.7878L50.0529 37.965C50.8096 38.4088 51.6697 38.6439 52.5455 38.6439C55.0319 38.6483 57.0822 36.6872 57.203 34.1898C57.1041 34.2276 56.9981 34.2664 56.8921 34.2963C56.6434 34.3676 56.385 34.4037 56.1258 34.4029H52.6751C52.3291 35.3187 51.4577 35.9255 50.4829 35.9281H48.1769C48.5316 36.6793 49.0825 37.3204 49.77 37.7818L46.9779 35.9968C46.0881 35.4235 45.0117 35.2183 43.9739 35.4244L37.2985 36.7057C36.7642 36.8114 36.2694 37.065 35.8726 37.441Z" fill="white"/>
<path d="M59.0011 61.5814C59.044 61.6237 59.093 61.6589 59.1456 61.688C59.7516 60.891 59.8243 59.8052 59.3278 58.9343L59.0317 58.4156L57.1663 59.7277L59.0011 61.5814Z" fill="white"/>
<path d="M44.657 47.0662L45.3778 47.7988C45.5687 47.2282 45.4812 46.6021 45.1422 46.1054L44.0956 45.0143L40.849 48.2797L42.8511 48.4012C43.0919 48.4135 43.3293 48.3378 43.5185 48.1881L44.657 47.0662Z" fill="white"/>
<path d="M34.6211 27.5252H42.965C43.3836 27.5252 43.7234 27.1836 43.7234 26.7626C43.7234 26.3408 43.3836 26 42.965 26H34.6211C34.2016 26 33.8626 26.3417 33.8626 26.7626C33.8626 27.1836 34.2025 27.5252 34.6211 27.5252Z" fill="white"/>
<path d="M42.965 30.5757C43.3836 30.5757 43.7234 30.234 43.7234 29.8131C43.7234 29.3913 43.3836 29.0505 42.965 29.0505H39.1727C38.7541 29.0505 38.4134 29.3921 38.4134 29.8131C38.4134 30.234 38.7532 30.5757 39.1727 30.5757H42.965Z" fill="white"/>
<path d="M30.0695 48.882H35.3795C35.7982 48.882 36.138 48.5403 36.138 48.1194C36.138 47.6984 35.7982 47.3568 35.3795 47.3568H30.0695C29.6509 47.3568 29.3111 47.6984 29.3111 48.1194C29.3111 48.5403 29.6509 48.882 30.0695 48.882Z" fill="white"/>
<path d="M35.3804 50.4072H33.1042C32.6856 50.4072 32.3457 50.7489 32.3457 51.1698C32.3457 51.5908 32.6856 51.9325 33.1042 51.9325H35.3804C35.7991 51.9325 36.1389 51.5908 36.1389 51.1698C36.138 50.7489 35.7991 50.4072 35.3804 50.4072Z" fill="white"/>
</svg>
