<svg width="89" height="100" viewBox="0 0 89 100" fill="none" xmlns="http://www.w3.org/2000/svg">
<path fill-rule="evenodd" clip-rule="evenodd" d="M37.4737 2.45239C41.8187 -0.0687604 47.1813 -0.068767 51.5263 2.45238L82.0263 20.1499C86.3431 22.6547 89 27.2682 89 32.2591V67.741C89 72.7318 86.3431 77.3453 82.0263 79.8501L51.5263 97.5476C47.1813 100.069 41.8187 100.069 37.4737 97.5476L6.97371 79.8501C2.65692 77.3453 0 72.7318 0 67.741V32.2591C0 27.2682 2.65691 22.6547 6.97371 20.1499L37.4737 2.45239ZM47.5113 9.37189C45.6491 8.2914 43.3509 8.2914 41.4887 9.37189L10.9887 27.0694C9.13868 28.1429 8 30.1201 8 32.2591V67.741C8 69.8799 9.13868 71.8571 10.9887 72.9306L41.4887 90.6281C43.3509 91.7086 45.6491 91.7086 47.5113 90.6281L78.0113 72.9306C79.8613 71.8571 81 69.8799 81 67.741V32.2591C81 30.1201 79.8613 28.1429 78.0113 27.0694L47.5113 9.37189Z" fill="#00B6F0"/>
<path d="M28.3517 52.6447C25.732 52.6447 23.601 54.7429 23.601 57.3223C23.601 59.9018 25.732 62 28.3517 62C30.9715 62 33.1024 59.9018 33.1024 57.3223C33.1013 54.7429 30.9703 52.6447 28.3517 52.6447ZM28.3517 60.1276C26.7807 60.1276 25.5015 58.868 25.5015 57.3212C25.5015 55.7744 26.7807 54.5149 28.3517 54.5149C29.9227 54.5149 31.2019 55.7744 31.2019 57.3212C31.2019 58.8691 29.9227 60.1276 28.3517 60.1276Z" fill="white"/>
<path d="M60.6538 52.6447C58.0341 52.6447 55.9031 54.7429 55.9031 57.3223C55.9031 59.9018 58.0341 62 60.6538 62C63.2736 62 65.4046 59.9018 65.4046 57.3223C65.4046 54.7429 63.2736 52.6447 60.6538 52.6447ZM60.6538 60.1276C59.0829 60.1276 57.8036 58.868 57.8036 57.3212C57.8036 55.7744 59.0829 54.5149 60.6538 54.5149C62.2248 54.5149 63.5041 55.7744 63.5041 57.3212C63.5041 58.8691 62.2248 60.1276 60.6538 60.1276Z" fill="white"/>
<path d="M72.0547 52.6447V47.0319C72.0547 46.6285 71.7931 46.2711 71.4045 46.1439L66.0414 44.3845C63.7022 40.5487 60.41 38.16 55.7372 36.9114L54.9244 33.7082C54.8176 33.2927 54.439 33 54.0026 33H43.5514C43.115 33 42.7364 33.2927 42.6295 33.7082L41.6798 37.4496C41.6787 37.4518 41.6798 37.454 41.6798 37.4562C36.5728 38.581 32.6872 40.8195 29.8058 44.2332C24.0708 44.3132 17.9885 45.9379 16.9497 48.9021V52.6436C16.4242 52.6436 16 53.0623 16 53.5787V57.3201C16 57.8365 16.4242 58.2552 16.9497 58.2552H20.7496C21.2751 58.2552 21.6993 57.8365 21.6993 57.3201C21.6993 53.7091 24.6832 50.7723 28.3495 50.7723C32.0158 50.7723 34.9996 53.7091 34.9996 57.3201C34.9996 57.8365 35.4238 58.2552 35.9493 58.2552H53.0506C53.5762 58.2552 54.0003 57.8365 54.0003 57.3201C54.0003 53.7091 56.9842 50.7723 60.6505 50.7723C64.3168 50.7723 67.3006 53.7091 67.3006 57.3201C67.3006 57.8365 67.7248 58.2552 68.2503 58.2552H72.0503C72.5758 58.2552 73 57.8365 73 57.3201V53.5798C73.0044 53.0634 72.5802 52.6447 72.0547 52.6447ZM38.8018 50.3053C38.8018 50.5629 38.5891 50.7734 38.3264 50.7734H36.4258C36.1631 50.7734 35.9504 50.564 35.9504 50.3053V48.434C35.9504 48.1764 36.1631 47.9659 36.4258 47.9659H38.3264C38.5891 47.9659 38.8018 48.1753 38.8018 48.434V50.3053ZM42.6028 54.983C42.6028 55.2417 42.3902 55.451 42.1274 55.451H40.2269C39.9652 55.451 39.7515 55.2417 39.7515 54.983V53.1117C39.7515 52.853 39.9641 52.6436 40.2269 52.6436H42.1274C42.389 52.6436 42.6028 52.853 42.6028 53.1117V54.983ZM46.4027 50.3053C46.4027 50.5629 46.1901 50.7734 45.9273 50.7734H44.0268C43.764 50.7734 43.5514 50.564 43.5514 50.3053V48.434C43.5514 48.1764 43.764 47.9659 44.0268 47.9659H45.9273C46.1901 47.9659 46.4027 48.1753 46.4027 48.434V50.3053ZM45.6612 44.2255H32.3587C34.8805 41.7239 39.0745 39.1675 47.093 38.5843L45.6612 44.2255ZM50.2027 54.983C50.2027 55.2417 49.99 55.451 49.7272 55.451H47.8267C47.564 55.451 47.3513 55.2417 47.3513 54.983V53.1117C47.3513 52.853 47.564 52.6436 47.8267 52.6436H49.7272C49.99 52.6436 50.2027 52.853 50.2027 53.1117V54.983ZM54.0037 50.3053C54.0037 50.5629 53.791 50.7734 53.5283 50.7734H51.6278C51.3661 50.7734 51.1523 50.564 51.1523 50.3053V48.434C51.1523 48.1764 51.365 47.9659 51.6278 47.9659H53.5283C53.7899 47.9659 54.0037 48.1753 54.0037 48.434V50.3053ZM57.9495 44.2255H47.6207L49.077 38.4867C50.8161 38.4352 52.7155 38.467 54.7964 38.6051C56.2327 38.9581 57.5152 39.4152 58.6676 39.9885L57.9495 44.2255ZM59.8745 44.2255L60.4145 41.0344C61.6603 41.9004 62.7369 42.9462 63.6666 44.2255H59.8745Z" fill="white"/>
</svg>
