<svg width="173" height="194" viewBox="0 0 173 194" fill="none" xmlns="http://www.w3.org/2000/svg">
<path d="M81.4853 8.90661C84.5868 7.10894 88.4132 7.10894 91.5147 8.90661L160.015 48.6104C163.1 50.399 165 53.6956 165 57.2622V136.738C165 140.304 163.1 143.601 160.015 145.39L91.5147 185.093C88.4132 186.891 84.5868 186.891 81.4853 185.093L12.9853 145.39C9.89958 143.601 8 140.304 8 136.738V57.2622C8 53.6956 9.89957 50.399 12.9853 48.6104L81.4853 8.90661Z" stroke="white" stroke-width="15" stroke-linecap="round" stroke-linejoin="round"/>
<path d="M97.0647 68.6809H67.0261C64.8235 68.6809 63.0193 70.4829 63.0193 72.6829C63.0193 74.9063 64.8235 76.6851 67.0261 76.6851H97.0647C99.2673 76.6851 101.071 74.8829 101.071 72.6829C101.071 70.4829 99.2673 68.6809 97.0647 68.6809Z" fill="white"/>
<path d="M101.071 87.6851C101.071 85.4617 99.2673 83.683 97.0647 83.683H67.0261C64.8235 83.683 63.0193 85.4851 63.0193 87.6851C63.0193 89.9086 64.8235 91.6872 67.0261 91.6872H97.0647C99.2673 91.6872 101.071 89.9086 101.071 87.6851Z" fill="white"/>
<path d="M82.0454 106.689C84.2713 106.689 86.0521 104.887 86.0521 102.687C86.0521 100.464 84.2713 98.685 82.0454 98.685H67.0261C64.8235 98.685 63.0193 100.487 63.0193 102.687C63.0193 104.887 64.8235 106.689 67.0261 106.689H82.0454Z" fill="white"/>
<path d="M112.272 120.287L108.077 123.049V132.996H56.0134V61.0042H108.077V76.8021L116.091 62.9468V57.002C116.091 54.802 114.287 53 112.084 53H52.0067C49.8042 53 48 54.802 48 57.002V136.998C48 139.221 49.8042 141 52.0067 141H112.084C114.287 141 116.091 139.198 116.091 136.998V114.951L114.169 118.251C113.701 119.094 113.045 119.796 112.272 120.287Z" fill="white"/>
<path d="M102.032 118.649C101.376 118.111 100.603 117.596 99.7827 117.128C98.9861 116.66 98.166 116.262 97.3693 115.957L97.6505 111.277C98.7049 111.417 100.251 111.838 102.22 112.962C104.188 114.085 105.312 115.209 105.969 116.051L102.032 118.649ZM135.96 71.5361C135.867 71.1851 135.023 67.9319 129.939 65.0064C124.831 62.0808 121.621 62.9468 121.269 63.0638C120.8 63.2276 120.379 63.5319 120.121 63.9766L95.0965 107.274C94.9325 107.532 94.8388 107.836 94.8388 108.164L93.9015 123.774C93.8547 124.547 94.2296 125.249 94.8856 125.623C95.5417 125.998 96.3618 125.974 96.9944 125.553L110.069 116.94C110.327 116.777 110.538 116.543 110.702 116.285L135.726 72.9872C135.984 72.5425 136.054 72.051 135.96 71.5361Z" fill="white"/>
<path d="M75.9064 125.179C76.047 125.974 76.9608 126.232 77.5935 126.489C78.1793 126.747 78.9056 126.255 79.3977 126.021C82.4672 124.547 86.591 126.279 89.8714 126.279C91.7927 126.279 91.7927 123.283 89.8714 123.283C86.0521 123.283 82.8889 122.323 79.0931 122.932C79.0931 122.721 79.0228 122.417 78.7885 122.019C78.0855 120.802 77.1717 120.475 76.2813 120.615C76.211 120.475 76.1642 120.334 76.0705 120.194C75.8361 119.819 75.5081 119.609 75.1332 119.538C76.1876 117.689 76.8671 115.747 76.1642 114.179C75.9533 113.711 75.3441 113.453 74.8755 113.43C72.8604 113.36 71.1499 115.466 69.8612 116.73C66.6277 119.889 63.7926 123.47 61.0277 127.051C59.8561 128.572 62.457 130.07 63.6285 128.549C66.0654 125.389 68.6428 122.323 71.4311 119.445C70.775 120.545 70.0487 121.621 69.2989 122.651C68.221 124.313 70.775 125.694 71.8763 124.172C72.134 123.774 72.4855 123.47 72.837 123.236C72.7667 123.423 72.6964 123.611 72.6027 123.774C72.6027 123.774 72.6027 123.774 72.6261 123.774C72.5558 123.892 72.5089 124.009 72.4621 124.126C71.7826 125.811 74.2897 126.583 75.2035 125.296C75.4378 124.968 75.6487 124.617 75.8362 124.243C75.883 124.5 75.8596 124.828 75.9064 125.179Z" fill="white"/>
</svg>
