<svg width="173" height="194" viewBox="0 0 173 194" fill="none" xmlns="http://www.w3.org/2000/svg">
<path d="M81.4853 8.90661C84.5868 7.10894 88.4132 7.10894 91.5147 8.90661L160.015 48.6104C163.1 50.399 165 53.6956 165 57.2622V136.738C165 140.304 163.1 143.601 160.015 145.39L91.5147 185.093C88.4132 186.891 84.5868 186.891 81.4853 185.093L12.9853 145.39C9.89958 143.601 8 140.304 8 136.738V57.2622C8 53.6956 9.89957 50.399 12.9853 48.6104L81.4853 8.90661Z" stroke="white" stroke-width="15" stroke-linecap="round" stroke-linejoin="round"/>
<path d="M63.6299 71.4188L97.1167 62.2369L95.3433 58.6361C94.183 56.2956 91.3532 55.3291 89.0232 56.4946L59.0455 71.4188H63.6299Z" fill="white"/>
<path d="M107.512 62.5022C107.097 62.5022 106.682 62.559 106.267 62.6727L74.3739 71.4188H113.53L112.058 65.9987C111.492 63.8856 109.587 62.5022 107.512 62.5022Z" fill="white"/>
<path d="M118.444 74.7353H48.7259C47.2355 74.7353 45.9054 75.427 45.0376 76.5167C44.6414 77.0189 44.3396 77.5969 44.1698 78.2318C44.066 78.6298 44 79.0467 44 79.4731V132.262C44 134.877 46.113 137 48.7165 137H118.435C121.039 137 123.151 134.877 123.151 132.262V119.044H95.1641C90.74 119.044 87.1461 115.433 87.1461 110.989V100.452C87.1461 98.2729 88.0139 96.2925 89.4194 94.8427C90.6646 93.554 92.3342 92.6822 94.2019 92.4643C94.5132 92.4264 94.8339 92.4074 95.1546 92.4074H123.151V79.4731C123.161 76.8578 121.048 74.7353 118.444 74.7353Z" fill="white"/>
<path d="M105.012 106.649C105.012 107.957 103.956 109.018 102.654 109.018H101.088C99.7862 109.018 98.7297 107.957 98.7297 106.649V105.076C98.7297 104.318 99.0787 103.646 99.6353 103.219C100.041 102.906 100.541 102.708 101.088 102.708H102.654C103.956 102.708 105.012 103.769 105.012 105.076V106.649ZM126.462 96.9368C125.991 96.5009 125.434 96.1693 124.812 95.9513C124.331 95.7902 123.821 95.6955 123.284 95.6955H95.1641C92.5606 95.6955 90.4476 97.8181 90.4476 100.433V110.98C90.4476 113.595 92.5606 115.718 95.1641 115.718H123.284C123.821 115.718 124.331 115.623 124.812 115.462C125.434 115.253 125.991 114.912 126.462 114.476C127.406 113.614 128 112.363 128 110.98V100.433C128 99.0499 127.406 97.7991 126.462 96.9368Z" fill="white"/>
</svg>
