<svg width="89" height="100" viewBox="0 0 89 100" fill="none" xmlns="http://www.w3.org/2000/svg">
<path fill-rule="evenodd" clip-rule="evenodd" d="M37.4737 2.45239C41.8187 -0.0687604 47.1813 -0.068767 51.5263 2.45238L82.0263 20.1499C86.3431 22.6547 89 27.2682 89 32.2591V67.741C89 72.7318 86.3431 77.3453 82.0263 79.8501L51.5263 97.5476C47.1813 100.069 41.8187 100.069 37.4737 97.5476L6.97371 79.8501C2.65692 77.3453 0 72.7318 0 67.741V32.2591C0 27.2682 2.65691 22.6547 6.97371 20.1499L37.4737 2.45239ZM47.5113 9.37189C45.6491 8.2914 43.3509 8.2914 41.4887 9.37189L10.9887 27.0694C9.13868 28.1429 8 30.1201 8 32.2591V67.741C8 69.8799 9.13868 71.8571 10.9887 72.9306L41.4887 90.6281C43.3509 91.7086 45.6491 91.7086 47.5113 90.6281L78.0113 72.9306C79.8613 71.8571 81 69.8799 81 67.741V32.2591C81 30.1201 79.8613 28.1429 78.0113 27.0694L47.5113 9.37189Z" fill="#00B6F0"/>
<path d="M35.6203 37.76H41.7907C42.0132 37.7643 42.2186 37.8816 42.3352 38.0704L45 42.3285L47.6648 38.0736C47.7803 37.8827 47.9857 37.7653 48.2093 37.7589H54.3797C55.2045 37.7589 55.9116 37.1157 55.9116 36.2923V25.4667C55.9116 24.6432 55.2056 24 54.3797 24H35.6203C34.7944 24 34.0884 24.6432 34.0884 25.4667V36.2933C34.0884 37.1168 34.7944 37.76 35.6203 37.76Z" fill="white"/>
<path d="M36.8227 49.0357C36.8227 46.2571 34.466 44.0053 31.5584 44.0053C28.6507 44.0053 26.294 46.2581 26.294 49.0357C26.294 51.8133 28.6507 54.0661 31.5584 54.0661C34.466 54.0672 36.8227 51.8144 36.8227 49.0357Z" fill="white"/>
<path d="M41.1488 67.5488C41.1488 62.5056 36.8409 58.4021 31.5744 58.4021C26.308 58.4021 22 62.5056 22 67.5488V72H41.1488V67.5488Z" fill="white"/>
<path d="M63.706 49.0357C63.706 46.2571 61.3482 44.0053 58.4416 44.0053C55.534 44.0053 53.1773 46.2581 53.1773 49.0357C53.1773 51.8133 55.534 54.0661 58.4416 54.0661C61.3493 54.0672 63.706 51.8144 63.706 49.0357Z" fill="white"/>
<path d="M48.8512 67.5488V72H68V67.5488C68 62.5056 63.692 58.4021 58.4256 58.4021C53.1591 58.4021 48.8512 62.5056 48.8512 67.5488Z" fill="white"/>
</svg>
