<svg width="89" height="100" viewBox="0 0 89 100" fill="none" xmlns="http://www.w3.org/2000/svg">
<path fill-rule="evenodd" clip-rule="evenodd" d="M37.4737 2.45239C41.8187 -0.0687604 47.1813 -0.068767 51.5263 2.45238L82.0263 20.1499C86.3431 22.6547 89 27.2682 89 32.2591V67.741C89 72.7318 86.3431 77.3453 82.0263 79.8501L51.5263 97.5476C47.1813 100.069 41.8187 100.069 37.4737 97.5476L6.97371 79.8501C2.65692 77.3453 0 72.7318 0 67.741V32.2591C0 27.2682 2.65691 22.6547 6.97371 20.1499L37.4737 2.45239ZM47.5113 9.37189C45.6491 8.2914 43.3509 8.2914 41.4887 9.37189L10.9887 27.0694C9.13868 28.1429 8 30.1201 8 32.2591V67.741C8 69.8799 9.13868 71.8571 10.9887 72.9306L41.4887 90.6281C43.3509 91.7086 45.6491 91.7086 47.5113 90.6281L78.0113 72.9306C79.8613 71.8571 81 69.8799 81 67.741V32.2591C81 30.1201 79.8613 28.1429 78.0113 27.0694L47.5113 9.37189Z" fill="#00B6F0"/>
<path d="M52.7851 55.6808C51.6733 57.2638 50.6145 58.7575 50.6145 60.7489C50.6145 61.6298 49.7939 62.3319 49.1851 62.7404H39.8278C39.219 62.3319 38.3984 61.6298 38.3984 60.7489C38.3984 58.7575 37.3396 57.2639 36.2146 55.6553C34.7984 53.6511 33.2102 51.3915 33.2102 47.4851C33.2102 41.7404 38.2793 37.0681 44.5131 37.0554C50.7601 37.0554 55.8292 41.7277 55.8292 47.4851C55.816 51.4043 54.2145 53.6766 52.7851 55.6808ZM44.4999 33.3788C36.1617 33.3788 29.3588 39.7107 29.3588 47.4979C29.3588 52.5532 31.4896 55.5532 33.0514 57.7745C34.0176 59.1404 34.5602 59.9447 34.5602 60.7617C34.5602 62.5873 35.5793 64.3106 37.3793 65.6128C37.419 66.6979 37.5911 69.3532 37.5911 69.3532C37.6175 70.1064 38.0278 71.6511 40.7278 72.5064C41.0455 72.9532 41.4558 73.3489 41.9587 73.6809C42.2763 73.8851 42.6469 74 43.0307 74H45.9557C46.3395 74 46.7101 73.8851 47.0278 73.6809C47.5307 73.3489 47.9542 72.9532 48.2719 72.5064C50.9851 71.6383 51.3822 70.0681 51.3954 69.3404C51.3954 69.3404 51.5542 66.6979 51.6072 65.6C53.4204 64.3106 54.4263 62.5745 54.4263 60.7489C54.4263 59.9319 54.9689 59.1277 55.9483 57.749C57.4968 55.5532 59.6277 52.5532 59.6277 47.4979C59.6409 39.7107 52.8513 33.3788 44.4999 33.3788Z" fill="white"/>
<path d="M44.4999 30.6086C45.0293 30.6086 45.4528 30.2 45.4528 29.6894V26.9192C45.4528 26.4086 45.0293 26 44.4999 26C43.9704 26 43.5469 26.4086 43.5469 26.9192V29.6894C43.5469 30.2 43.9704 30.6086 44.4999 30.6086Z" fill="white"/>
<path d="M34.3352 32.5617C34.5205 32.8554 34.8382 33.0213 35.169 33.0213C35.3279 33.0213 35.4999 32.983 35.6455 32.8937C36.1087 32.6383 36.2543 32.0767 36.0028 31.6298L34.5602 29.2298C34.2955 28.783 33.7132 28.6426 33.2499 28.8979C32.7999 29.1532 32.6411 29.7149 32.9058 30.1617L34.3352 32.5617Z" fill="white"/>
<path d="M28.8029 37.8851L26.3147 36.5065C25.8647 36.2511 25.2691 36.4043 25.0044 36.8511C24.7397 37.2851 24.8985 37.8597 25.3617 38.115L27.85 39.4936C27.9955 39.583 28.1676 39.6214 28.3264 39.6214C28.6573 39.6214 28.975 39.4553 29.1602 39.1617C29.425 38.7149 29.2661 38.1532 28.8029 37.8851Z" fill="white"/>
<path d="M26.7779 47.7021C26.7779 47.1915 26.3544 46.783 25.825 46.783H22.9529C22.4235 46.783 22 47.2042 22 47.7021C22 48.2127 22.4235 48.6213 22.9529 48.6213H25.825C26.3544 48.6213 26.7779 48.2127 26.7779 47.7021Z" fill="white"/>
<path d="M27.85 55.9106L25.3617 57.3021C24.8985 57.5574 24.7529 58.1191 25.0044 58.5531C25.1764 58.8467 25.5073 59.0128 25.825 59.0128C25.9838 59.0128 26.1559 58.9744 26.3014 58.8851L28.7897 57.5064C29.2397 57.2511 29.3985 56.6765 29.1338 56.2425C28.8955 55.7957 28.3132 55.6553 27.85 55.9106Z" fill="white"/>
<path d="M63.6512 57.2893L61.163 55.8979C60.713 55.6426 60.1306 55.7958 59.8527 56.2298C59.588 56.6639 59.7468 57.2383 60.21 57.4936L62.6983 58.8723C62.8439 58.9617 63.0159 59 63.1747 59C63.5056 59 63.8233 58.8341 64.0085 58.5405C64.26 58.1064 64.1012 57.5447 63.6512 57.2893Z" fill="white"/>
<path d="M66.0468 46.7702H63.1747C62.6453 46.7702 62.2218 47.1915 62.2218 47.6894C62.2218 48.2 62.6453 48.6085 63.1747 48.6085H66.0468C66.5762 48.6085 66.9997 48.2 66.9997 47.6894C67.0129 47.1915 66.5762 46.7702 66.0468 46.7702Z" fill="white"/>
<path d="M60.6865 39.6086C60.8453 39.6086 61.0174 39.5702 61.163 39.4809L63.6512 38.1022C64.1144 37.8469 64.2733 37.2852 63.9953 36.8384C63.7306 36.3916 63.1483 36.2511 62.685 36.4937L60.1968 37.8724C59.7468 38.1277 59.5748 38.6894 59.8395 39.1362C60.0248 39.4426 60.3556 39.6086 60.6865 39.6086Z" fill="white"/>
<path d="M53.3674 32.8936C53.513 32.983 53.6851 33.0213 53.8439 33.0213C54.1748 33.0213 54.4924 32.8553 54.6777 32.5617L56.1071 30.1617C56.3718 29.7277 56.213 29.1532 55.7498 28.8979C55.2998 28.6426 54.7174 28.7958 54.4527 29.2298L53.0101 31.6298C52.7454 32.0766 52.9042 32.6383 53.3674 32.8936Z" fill="white"/>
<path d="M43.216 53.2681C43.3352 54.0851 43.7454 54.3149 44.4999 54.3149C45.2543 54.3149 45.6646 54.0851 45.7837 53.2681L46.6837 46.6808C46.7366 46.234 46.8028 45.7745 46.8028 45.366V42.0979C46.8028 40.6681 45.9557 39.9405 44.4999 39.9405C43.044 39.9405 42.1969 40.6681 42.1969 42.0979V45.366C42.1969 45.7873 42.2499 46.234 42.316 46.6808L43.216 53.2681Z" fill="white"/>
<path d="M44.4999 56.1405C43.1896 56.1405 42.1043 57.1745 42.1043 58.4383C42.1043 59.7021 43.1896 60.7489 44.4999 60.7489C45.8101 60.7489 46.8954 59.7021 46.8954 58.4383C46.8954 57.1872 45.8234 56.1405 44.4999 56.1405Z" fill="white"/>
</svg>
