<svg width="89" height="100" viewBox="0 0 89 100" fill="none" xmlns="http://www.w3.org/2000/svg">
<path fill-rule="evenodd" clip-rule="evenodd" d="M37.4737 2.45239C41.8187 -0.0687604 47.1813 -0.068767 51.5263 2.45238L82.0263 20.1499C86.3431 22.6547 89 27.2682 89 32.2591V67.741C89 72.7318 86.3431 77.3453 82.0263 79.8501L51.5263 97.5476C47.1813 100.069 41.8187 100.069 37.4737 97.5476L6.97371 79.8501C2.65692 77.3453 0 72.7318 0 67.741V32.2591C0 27.2682 2.65691 22.6547 6.97371 20.1499L37.4737 2.45239ZM47.5113 9.37189C45.6491 8.2914 43.3509 8.2914 41.4887 9.37189L10.9887 27.0694C9.13868 28.1429 8 30.1201 8 32.2591V67.741C8 69.8799 9.13868 71.8571 10.9887 72.9306L41.4887 90.6281C43.3509 91.7086 45.6491 91.7086 47.5113 90.6281L78.0113 72.9306C79.8613 71.8571 81 69.8799 81 67.741V32.2591C81 30.1201 79.8613 28.1429 78.0113 27.0694L47.5113 9.37189Z" fill="#00B6F0"/>
<path d="M68.1943 44.884L60.9201 37.7233V29.4501C60.9201 27.955 59.6896 26.7425 58.1672 26.7425C56.6484 26.7425 55.4179 27.955 55.4179 29.4501V32.3056L50.0016 26.9738C47.3237 24.3389 42.6669 24.3437 39.9951 26.9786L21.8048 44.884C20.7317 45.9428 20.7317 47.6572 21.8048 48.7136C22.8791 49.7723 24.6232 49.7723 25.6974 48.7136L43.8853 30.8081C44.4788 30.2275 45.5228 30.2275 46.1114 30.8069L64.3016 48.7136C64.8418 49.243 65.5443 49.5064 66.248 49.5064C66.9528 49.5064 67.6565 49.243 68.1943 48.7136C69.2686 47.6572 69.2686 45.9428 68.1943 44.884Z" fill="white"/>
<path d="M45.9551 35.9492C45.4271 35.4294 44.5708 35.4294 44.0439 35.9492L28.0447 51.6943C27.7915 51.9422 27.6486 52.282 27.6486 52.6361V64.1212C27.6486 66.8158 29.8686 69 32.6058 69H40.5268V56.9235H49.4699V69H57.392C60.1292 69 62.3493 66.8158 62.3493 64.1212V52.6361C62.3493 52.282 62.2076 51.9422 61.9532 51.6943L45.9551 35.9492Z" fill="white"/>
</svg>
