<svg width="89" height="100" viewBox="0 0 89 100" fill="none" xmlns="http://www.w3.org/2000/svg">
<path fill-rule="evenodd" clip-rule="evenodd" d="M37.4737 2.45239C41.8187 -0.0687604 47.1813 -0.068767 51.5263 2.45238L82.0263 20.1499C86.3431 22.6547 89 27.2682 89 32.2591V67.741C89 72.7318 86.3431 77.3453 82.0263 79.8501L51.5263 97.5476C47.1813 100.069 41.8187 100.069 37.4737 97.5476L6.97371 79.8501C2.65692 77.3453 0 72.7318 0 67.741V32.2591C0 27.2682 2.65691 22.6547 6.97371 20.1499L37.4737 2.45239ZM47.5113 9.37189C45.6491 8.2914 43.3509 8.2914 41.4887 9.37189L10.9887 27.0694C9.13868 28.1429 8 30.1201 8 32.2591V67.741C8 69.8799 9.13868 71.8571 10.9887 72.9306L41.4887 90.6281C43.3509 91.7086 45.6491 91.7086 47.5113 90.6281L78.0113 72.9306C79.8613 71.8571 81 69.8799 81 67.741V32.2591C81 30.1201 79.8613 28.1429 78.0113 27.0694L47.5113 9.37189Z" fill="#00B6F0"/>
<path d="M64.4134 29.1049L59.863 31.176C59.5716 31.3105 59.3026 31.4943 59.074 31.723L51.6588 39.1422L26.1226 36.0804C25.6609 36.0266 25.1946 36.1835 24.8673 36.5152L23.4462 37.9363C22.693 38.6894 22.9261 39.9626 23.899 40.3974L42.1993 48.6012L36.945 53.8552H27.768C27.3645 53.8552 26.9789 54.0166 26.692 54.299L25.9254 55.0701C25.1632 55.8322 25.4143 57.1188 26.4006 57.5402L34.143 60.8576L37.4606 68.5996C37.882 69.5858 39.1732 69.8369 39.9308 69.0748L40.7019 68.3037C40.9888 68.0168 41.1458 67.6313 41.1458 67.2278V58.0512L46.4 52.7972L54.6042 71.1011C55.0391 72.0739 56.3123 72.307 57.0655 71.5538L58.4867 70.1328C58.8184 69.801 58.9753 69.3393 58.9215 68.8775L55.855 43.3427L63.2747 35.9235C63.5033 35.6948 63.6872 35.4303 63.8216 35.1345L65.8929 30.5843C66.3277 29.6474 65.3594 28.6746 64.4134 29.1049Z" fill="white"/>
</svg>
