<svg width="102" height="102" viewBox="0 0 102 102" fill="none" xmlns="http://www.w3.org/2000/svg">
  <path d="M98.2365 0.248874L87.4425 5.16176C86.7512 5.48077 86.1132 5.91677 85.5708 6.4591L67.9813 24.0583L7.40717 16.7953C6.31182 16.6677 5.20583 17.0399 4.42951 17.8268L1.05837 21.1977C-0.728225 22.9842 -0.175231 26.0043 2.13246 27.0358L45.5425 46.4959L33.0789 58.9589H11.31C10.3529 58.9589 9.43836 59.3417 8.75775 60.0116L6.93925 61.8407C5.13139 63.6484 5.72692 66.7004 8.06651 67.7L26.4323 75.5691L34.3018 93.9339C35.3015 96.2734 38.3642 96.8689 40.1615 95.0611L41.9906 93.2321C42.6712 92.5515 43.0434 91.637 43.0434 90.6799V68.9123L55.507 56.4493L74.9682 99.8677C75.9997 102.175 79.0199 102.728 80.8065 100.942L84.1777 97.5707C84.9646 96.7838 85.3368 95.6885 85.2092 94.5932L77.9352 34.0223L95.5353 16.4231C96.0777 15.8808 96.5137 15.2534 96.8327 14.5515L101.746 3.75808C102.777 1.53558 100.48 -0.771984 98.2365 0.248874Z" fill="#474B54"/>
</svg>
