<svg width="112" height="99" viewBox="0 0 112 99" fill="none" xmlns="http://www.w3.org/2000/svg">
  <path d="M92.4783 7.95012C92.4783 12.3413 88.9722 15.9002 84.6384 15.9002C80.3045 15.9002 76.7984 12.3413 76.7984 7.95012C76.7984 3.55893 80.3045 0 84.6384 0C88.9722 0 92.4783 3.55893 92.4783 7.95012Z" fill="#474B54"/>
  <path d="M105.331 23.9613C105.331 23.9613 96.203 16.677 96.1874 16.6612C95.0161 15.7259 93.7121 16.3441 92.4549 16.6453C91.9317 16.7721 91.3773 16.8355 90.8697 17.0099C89.6359 17.43 88.4022 17.8739 87.184 18.3416C84.8961 19.2293 82.3973 20.1488 80.4373 21.6785C80.0781 21.956 79.7111 22.2651 79.4846 22.6693C79.1489 22.8675 78.8443 23.1291 78.5944 23.4699L73.3626 30.8493L65.835 34.6698C64.4451 35.3753 63.8829 37.0953 64.5778 38.4982C65.0698 39.497 66.0615 40.0756 67.0922 40.0756C67.5139 40.0756 67.9434 39.9805 68.3494 39.7744L76.4939 35.6368C76.9 35.4307 77.2513 35.1216 77.5168 34.7491L81.2338 29.5018C82.5925 33.0291 84.3651 37.1587 85.5364 39.8299L76.4705 41.7401C75.143 42.0175 74.1513 43.1351 74.0029 44.4985L71.4963 67.7147C71.4339 68.2934 71.5432 68.8482 71.754 69.3396H77.4466C77.5715 69.0464 77.6652 68.7372 77.7043 68.4043L79.961 47.4788L89.7765 45.41L92.205 47.6769C92.1035 48.0257 92.0566 48.3982 92.0644 48.7866L92.7828 67.5562C92.8063 68.1903 93.0015 68.8086 93.3451 69.3396L101.208 81.459H107.947C108.228 80.5079 108.127 79.4378 107.541 78.5421L99.6076 66.3118L98.9283 48.5171C98.9205 48.1922 98.858 47.8751 98.7565 47.5818V47.5105L95.2894 23.2004L100.888 27.6709L101.778 37.9751C101.911 39.4653 103.137 40.5749 104.574 40.5749C104.652 40.5749 104.738 40.567 104.824 40.5591C106.37 40.4243 107.518 39.0372 107.377 37.4678L106.378 25.935C106.323 25.1661 105.94 24.4448 105.331 23.9613Z" fill="#474B54"/>
  <path d="M89.5969 71.8998H67.2016V59.511H44.7984V46.4167H0V98.7305L112 99L111.758 98.7305H112V84.0113H89.5969V71.8998Z" fill="#474B54"/>
</svg>
