<svg width="114" height="100" viewBox="0 0 114 100" fill="none" xmlns="http://www.w3.org/2000/svg">
  <path d="M57.0255 88.0605L50.3057 92.434C49.7786 92.7846 49.0822 92.7293 48.6304 92.2864L47.294 91.0316C46.5411 90.3303 45.3552 90.3488 44.6211 91.0869C43.9059 91.8251 43.9247 92.9876 44.6776 93.7073L46.014 94.9622C46.9928 95.8848 48.2728 96.3646 49.5528 96.3646C50.5315 96.3646 51.5292 96.0878 52.395 95.5158L59.1148 91.1423C59.9807 90.5702 60.2254 89.4261 59.6418 88.5772C59.0583 87.7099 57.8725 87.4885 57.0255 88.0605ZM113.513 96.9367L109.843 92.9507C109.146 92.1941 107.96 92.1388 107.189 92.8215C106.417 93.5043 106.36 94.6669 107.057 95.4235L110.727 99.391C111.104 99.797 111.612 100 112.12 100C112.572 100 113.024 99.8339 113.381 99.5202C114.153 98.8559 114.209 97.6933 113.513 96.9367ZM56.4608 20.2805C62.2394 20.2805 66.9263 15.7409 66.9263 10.131C66.9263 4.52113 62.2582 0 56.4608 0C50.6633 0 45.9764 4.53958 45.9764 10.1495C45.9764 15.7594 50.6821 20.2805 56.4608 20.2805ZM105.25 90.3857C104.196 91.253 102.897 91.6774 101.617 91.6774C100.017 91.6774 98.3982 91.0131 97.2877 89.7029L64.1029 51.0426L53.2985 57.9443C50.908 59.4759 49.8163 62.2993 50.588 65.012C55.5196 82.3399 55.5196 82.709 55.5196 83.687C55.5196 86.7503 52.9974 89.2416 49.8727 89.2416C47.0305 89.2416 44.6588 87.1748 44.2823 84.4805C44.1318 83.8531 43.3977 80.9928 39.7084 68.0015C37.6002 60.62 40.593 52.8511 47.1246 48.6806L49.5528 47.1305C43.6235 49.9354 37.1296 52.2975 31.2945 53.3862C30.9369 53.46 30.5792 53.497 30.2216 53.497C30.0899 53.497 29.9581 53.4785 29.8263 53.46L19.6808 82.8382C19.6431 82.9673 19.5678 83.0596 19.4925 83.1888C19.0973 84.296 18.2502 85.2556 17.0456 85.7538L6.0718 90.1827C5.52594 90.4041 4.96125 90.4964 4.39656 90.4964C2.66485 90.4964 1.02726 89.4815 0.33081 87.8206C-0.591514 85.6246 0.481393 83.0965 2.72132 82.1923L13.6951 77.7634C14.9374 77.2652 16.2927 77.3759 17.4032 77.948L26.3441 51.9469C25.5159 51.1718 24.8947 50.1569 24.65 48.9758C24.0665 45.9679 26.0617 43.0707 29.1487 42.4986C29.3181 42.4617 29.4875 42.4248 29.6569 42.3879L32.1039 35.2648C28.3958 33.2349 25.6476 29.5996 24.7065 25.4106C23.7277 21.0186 24.8194 16.4791 27.6805 12.9729C30.9934 8.87618 37.5061 6.38494 43.1341 5.27773C42.5506 6.79092 42.2118 8.43329 42.2118 10.1495C42.2118 12.4377 42.7953 14.5968 43.8118 16.4975C40.5178 17.3648 37.4496 18.7488 36.5273 19.8745C35.5673 21.0555 35.5861 22.255 35.7556 23.0485C36.0003 24.1927 36.7532 25.1891 37.7131 25.6505C40.4989 27.0345 41.6095 30.3746 40.1978 33.1057C39.3131 34.8219 37.619 35.8922 35.7932 36.0952L34.005 41.2622C44.6964 38.0513 56.2349 31.205 58.5501 28.2155C59.9242 26.444 60.7524 24.7278 61.0347 23.2331C65.364 21.7937 68.771 18.3982 70.1074 14.117C71.1615 15.7594 71.8956 17.6047 72.2532 19.5977C72.8367 23.067 72.5167 28.5292 67.5663 34.9142C67.2087 35.3755 66.7757 35.8553 66.2675 36.3536L105.927 82.5798C107.941 84.9234 107.64 88.4111 105.25 90.3857Z" fill="#474B54"/>
</svg>
