<svg width="114" height="95" viewBox="0 0 114 95" fill="none" xmlns="http://www.w3.org/2000/svg">
  <path d="M66.1823 35.984C64.3365 35.984 62.8425 34.505 62.8425 32.6777V0H51.1575V32.6777C51.1575 34.505 49.6635 35.984 47.8177 35.984H0V47.5518H47.8177C49.6635 47.5518 51.1575 49.033 51.1575 50.8581V83.527H62.8425V50.8581C62.8425 49.033 64.3365 47.5518 66.1823 47.5518H114V35.984H66.1823Z" fill="#474B54"/>
  <path d="M69.5222 24.6962L94.1947 0.27112C93.0302 0.0925776 91.8368 0 90.6211 0H69.5222V24.6962Z" fill="#474B54"/>
  <path d="M74.2447 29.3713H114V23.1444C114 14.1974 108.843 6.41871 101.32 2.57013L74.2447 29.3713Z" fill="#474B54"/>
  <path d="M74.2314 54.1645L101.244 80.9965C108.81 77.159 114 69.3604 114 60.3826V54.1645H74.2314Z" fill="#474B54"/>
  <path d="M44.4778 24.6962V0H23.3789C22.1632 0 20.9698 0.0925776 19.803 0.27112L44.4778 24.6962Z" fill="#474B54"/>
  <path d="M69.5222 58.8551V83.5292H90.6211C91.8056 83.5292 92.9679 83.441 94.1034 83.2735L69.5222 58.8551Z" fill="#474B54"/>
  <path d="M39.7553 29.3713L12.6803 2.57013C5.15672 6.41871 0 14.1974 0 23.1444V29.3713H39.7553Z" fill="#474B54"/>
  <path d="M39.7553 54.1645H0V60.3826C0 69.334 5.15895 77.1105 12.687 80.9613L39.7553 54.1645Z" fill="#474B54"/>
  <path d="M44.4778 58.8419L19.812 83.2603C20.9742 83.4366 22.1654 83.5292 23.3789 83.5292H26.8479L34.9793 93.7414C35.6139 94.5371 36.5802 95 37.6022 95C38.6242 95 39.5927 94.5349 40.2251 93.7414L44.4756 88.4027V58.8419H44.4778Z" fill="#474B54"/>
</svg>
