<svg width="82" height="109" viewBox="0 0 82 109" fill="none" xmlns="http://www.w3.org/2000/svg">
  <path d="M73.7369 76.6421C72.9471 74.7152 71.0418 73.4818 69.224 72.7239L56.9392 66.9679L51.0364 61.9022L41.5523 71.5028H41.5432L45.6372 99.3503C45.6522 99.4454 45.6281 99.5436 45.5708 99.6234L41.29 105.585C41.2237 105.68 41.1121 105.735 40.9976 105.735C40.883 105.735 40.7745 105.68 40.7052 105.585L36.4273 99.6234C36.3701 99.5436 36.3459 99.4454 36.361 99.3503L40.4549 71.5028H40.4489L30.9648 61.9022L25.062 66.9679L12.7772 72.7239C10.9594 73.4818 9.17167 74.6355 8.26425 76.6421C8.26425 76.6421 -5.09076 109 2.1535 109H79.8477C87.0889 109 73.7369 76.6421 73.7369 76.6421Z" fill="#474B54"/>
  <path d="M40.6147 56.8672C31.4139 56.8672 25.068 45.8981 23.7868 34.9322C22.602 24.7916 37.0122 24.319 37.8503 30.6028C38.1065 32.5358 35.9269 34.6069 36.1741 35.4016C37.3951 39.3413 57.5843 22.5425 57.4456 34.926C57.3462 43.6675 49.3814 56.8672 40.6147 56.8672ZM74.5871 32.275C74.771 32.2536 74.9398 32.1646 75.0544 32.0204C75.1719 31.8731 75.2232 31.6859 75.2021 31.5018C75.0634 30.3052 74.9277 29.1117 74.7891 27.9181L74.5027 25.4175C74.4605 25.0432 74.1289 24.7731 73.7611 24.8069H73.2305L73.2425 16.4121L73.5199 16.3109L74.4454 15.9703C75.2322 15.6819 75.7538 14.924 75.7538 14.0741C75.7538 13.2242 75.2322 12.4663 74.4454 12.1779L41.6729 0.119662C41.2388 -0.0398874 40.7624 -0.0398874 40.3253 0.119662L7.55279 12.1749C6.76897 12.4663 6.24442 13.2211 6.24442 14.071C6.24442 14.921 6.76596 15.6757 7.55279 15.9672L19.6688 20.4254C18.8126 23.1715 18.4237 26.3195 18.4599 29.8204C18.6739 49.801 30.0694 61.7181 40.6147 61.7181C51.0364 61.7181 62.5555 49.801 62.7696 29.8204C62.8027 26.4239 62.4379 23.3679 61.636 20.6801L70.4449 17.44L70.463 24.81H69.9294C69.5616 24.7793 69.233 25.0493 69.1908 25.4236L68.5005 31.508C68.4794 31.6951 68.5336 31.8792 68.6512 32.0234C68.7658 32.1677 68.9346 32.2628 69.1154 32.2781" fill="#474B54"/>
</svg>
