<svg width="127" height="127" viewBox="0 0 127 127" fill="none" xmlns="http://www.w3.org/2000/svg">
  <path d="M113.635 101.493C114.935 99.6275 115.699 97.3628 115.699 94.922V92.6622C115.699 86.3096 110.532 81.1427 104.18 81.1427C97.8272 81.1427 92.6604 86.3121 92.6604 92.6622V94.922C92.6604 97.3628 93.4244 99.6275 94.7241 101.493C90.2221 101.627 86.2583 103.929 83.8398 107.389C81.4214 103.929 77.4576 101.627 72.9555 101.493C74.2553 99.6275 75.0193 97.3628 75.0193 94.922V92.6622C75.0193 86.3096 69.8525 81.1427 63.5 81.1427C57.1475 81.1427 51.9807 86.3121 51.9807 92.6622V94.922C51.9807 97.3628 52.7447 99.6275 54.0445 101.493C49.5424 101.627 45.5786 103.929 43.1602 107.389C40.7417 103.929 36.7779 101.627 32.2759 101.493C33.5756 99.6275 34.3396 97.3628 34.3396 94.922V92.6622C34.3396 86.3096 29.1728 81.1427 22.8203 81.1427C16.4678 81.1427 11.301 86.3121 11.301 92.6622V94.922C11.301 97.3628 12.065 99.6275 13.3648 101.493C5.95809 101.714 0 107.803 0 115.262V124.519C0 125.889 1.11125 127 2.48047 127H124.52C125.889 127 127 125.889 127 124.519V115.262C127 107.803 121.042 101.714 113.635 101.493ZM97.6213 92.6622C97.6213 89.0456 100.563 86.1037 104.18 86.1037C107.796 86.1037 110.738 89.0456 110.738 92.6622V94.922C110.738 98.5386 107.796 101.48 104.18 101.48C100.563 101.48 97.6213 98.5386 97.6213 94.922V92.6622ZM56.9416 92.6622C56.9416 89.0456 59.8835 86.1037 63.5 86.1037C67.1165 86.1037 70.0583 89.0456 70.0583 92.6622V94.922C70.0583 98.5386 67.1165 101.48 63.5 101.48C59.8835 101.48 56.9416 98.5386 56.9416 94.922V92.6622ZM16.262 92.6622C16.262 89.0456 19.2038 86.1037 22.8203 86.1037C26.4368 86.1037 29.3787 89.0456 29.3787 92.6622V94.922C29.3787 98.5386 26.4368 101.48 22.8203 101.48C19.2038 101.48 16.262 98.5386 16.262 94.922V92.6622ZM4.96094 115.262C4.96094 110.4 8.91728 106.441 13.7815 106.441H20.3398V116.354C20.3398 117.723 21.4511 118.834 22.8203 118.834C24.1895 118.834 25.3008 117.723 25.3008 116.354V106.441H31.8591C36.7233 106.441 40.6797 110.398 40.6797 115.262V122.039H4.96094V115.262ZM45.6406 115.262C45.6406 110.4 49.597 106.441 54.4612 106.441H61.0518V116.354C61.0518 117.723 62.163 118.834 63.5322 118.834C64.9015 118.834 66.0127 117.723 66.0127 116.354V106.441H72.5413C77.4055 106.441 81.3619 110.398 81.3619 115.262V122.039H45.6406V115.262ZM86.3203 122.039V115.262C86.3203 110.4 90.2767 106.441 95.1409 106.441H101.764V116.354C101.764 117.723 102.875 118.834 104.244 118.834C105.613 118.834 106.725 117.723 106.725 116.354V106.441H113.221C118.085 106.441 122.042 110.398 122.042 115.262V122.039H86.3203Z" fill="white"/>
  <path d="M65.2537 51.6096C65.7151 51.1482 65.9805 50.5083 65.9805 49.8559C65.9805 49.2035 65.7151 48.5636 65.2537 48.1022C64.7923 47.6408 64.1524 47.3754 63.5 47.3754C62.8476 47.3754 62.2077 47.6408 61.7463 48.1022C61.2849 48.5636 61.0195 49.2035 61.0195 49.8559C61.0195 50.5083 61.2849 51.1482 61.7463 51.6096C62.2077 52.071 62.8476 52.3364 63.5 52.3364C64.1524 52.3364 64.7923 52.071 65.2537 51.6096Z" fill="white"/>
  <path d="M22.8203 77.6526C24.1895 77.6526 25.3008 76.5413 25.3008 75.1721V71.9325H61.0195V75.1721C61.0195 76.5413 62.1308 77.6526 63.5 77.6526C64.8692 77.6526 65.9805 76.5413 65.9805 75.1721V71.9325H74.4339C75.8031 71.9325 76.9144 70.8212 76.9144 69.452C76.9144 68.0828 75.8031 66.9715 74.4339 66.9715H65.9805V61.0182H91.4251C92.7943 61.0182 93.9056 59.907 93.9056 58.5377V51.1036C93.9056 40.9831 85.6704 32.7478 75.5501 32.7478H74.5282C76.8524 30.1383 78.2662 26.7028 78.2662 22.9423V14.7665C78.2662 6.62299 71.6409 0 63.5 0C55.3591 0 48.7338 6.62547 48.7338 14.7665V22.9423C48.7338 26.7028 50.1501 30.1383 52.4718 32.7478H51.4499C41.3296 32.7478 33.0944 40.9831 33.0944 51.1036V58.5377C33.0944 59.907 34.2057 61.0182 35.5749 61.0182H61.0195V66.9715H22.8203C21.4511 66.9715 20.3398 68.0828 20.3398 69.452V75.1721C20.3398 76.5438 21.4511 77.6526 22.8203 77.6526ZM53.6947 14.764C53.6947 9.35652 58.0926 4.95855 63.5 4.95855C68.4188 4.95855 72.5041 8.59995 73.2011 13.3253L68.8231 10.753C67.7788 10.1403 66.4443 10.3711 65.6654 11.2988C63.567 13.8041 60.4887 15.2403 57.2195 15.2403H53.6922V14.764H53.6947ZM53.6947 22.9423V20.2038H57.2219C61.2453 20.2038 65.0726 18.7006 67.9996 16.0241L73.3078 19.1422V22.9423C73.3078 28.3498 68.9099 32.7478 63.5025 32.7478C58.0926 32.7478 53.6947 28.3498 53.6947 22.9423ZM38.0553 51.1036C38.0553 43.7166 44.063 37.7088 51.4499 37.7088H61.0195V40.4299C61.0195 41.7992 62.1308 42.9105 63.5 42.9105C64.8692 42.9105 65.9805 41.7992 65.9805 40.4299V37.7088H75.5501C82.9369 37.7088 88.9446 43.7166 88.9446 51.1036V56.0572H38.0553V51.1036Z" fill="white"/>
  <path d="M81.6099 67.6983C81.1461 68.1597 80.8831 68.7996 80.8831 69.452C80.8831 70.1044 81.1461 70.7443 81.6099 71.2057C82.0713 71.6671 82.7087 71.9325 83.3611 71.9325C84.0159 71.9325 84.6534 71.6671 85.1173 71.2057C85.5787 70.7443 85.8441 70.1044 85.8441 69.452C85.8441 68.7996 85.5787 68.1597 85.1173 67.6983C84.6559 67.2369 84.0159 66.9715 83.3611 66.9715C82.7087 66.9715 82.0688 67.2369 81.6099 67.6983Z" fill="white"/>
  <path d="M88.9446 69.452C88.9446 70.8212 90.0559 71.9325 91.4251 71.9325H101.764V75.1721C101.764 76.5413 102.875 77.6526 104.244 77.6526C105.613 77.6526 106.725 76.5413 106.725 75.1721V69.452C106.725 68.0828 105.613 66.9715 104.244 66.9715H91.4251C90.0534 66.9715 88.9446 68.0828 88.9446 69.452Z" fill="white"/>
</svg>
