<svg width="127" height="127" viewBox="0 0 127 127" fill="none" xmlns="http://www.w3.org/2000/svg">
  <path d="M83.9839 81.9355C62.5219 81.9355 45.0645 64.4781 45.0645 43.0161C45.0645 21.5542 62.5219 4.09677 83.9839 4.09677C105.446 4.09677 122.903 21.5542 122.903 43.0161C122.903 64.4781 105.446 81.9355 83.9839 81.9355ZM47.9604 81.9355L45.0645 79.0396L52.2006 71.9009C53.1198 72.9123 54.0877 73.8776 55.0991 74.7994L47.9604 81.9355ZM15.432 120.96C14.18 122.214 12.5131 122.903 10.7387 122.903C7.07462 122.903 4.09677 119.923 4.09677 116.259C4.09677 114.484 4.78554 112.817 6.04018 111.563L38.9194 78.6862L48.3138 88.0806L15.432 120.96ZM83.9839 0C60.2661 0 40.9677 19.2958 40.9677 43.0161C40.9677 52.6615 44.1991 61.5463 49.5812 68.7311L42.1686 76.1437L38.9194 72.8944L3.14171 108.669C1.11637 110.7 0 113.394 0 116.259C0 122.181 4.81883 127 10.7387 127C13.609 127 16.3052 125.884 18.3331 123.853L54.1056 88.0806L50.8563 84.8314L58.2689 77.4188C65.4537 82.8009 74.3385 86.0323 83.9839 86.0323C107.702 86.0323 127 66.7365 127 43.0161C127 19.2958 107.702 0 83.9839 0Z" fill="white"/>
  <path d="M80.9164 36.0132C78.9909 34.8917 77.8387 32.9125 77.8387 30.7258V26.629C77.8387 24.9135 78.5633 23.2594 79.8333 22.097C81.1161 20.9217 82.7933 20.3635 84.5395 20.5069C87.6735 20.7783 90.1265 23.6538 90.1265 27.0541V30.7258C90.1265 32.9125 88.9743 34.8917 87.0488 36.0132L86.0297 36.6047V42.5117L95.9106 45.3334C98.5351 46.0861 100.368 48.516 100.368 51.243V57.3548H67.5968V51.2455C67.5968 48.516 69.4301 46.0861 72.0546 45.3359L81.9355 42.5117V36.6047L80.9164 36.0132ZM70.9305 41.3953C66.5546 42.6449 63.5 46.6955 63.5 51.243V61.4516H104.468V51.2455C104.468 46.6955 101.413 42.6449 97.0372 41.3979L90.129 39.4263V38.8809C92.6818 36.958 94.2258 33.9315 94.2258 30.7309V27.0592C94.2258 21.5542 90.1265 16.8864 84.8954 16.4332C82.0174 16.1797 79.1727 17.1501 77.0654 19.0833C74.953 21.0139 73.7419 23.7664 73.7419 26.629V30.7258C73.7419 33.9264 75.2859 36.9555 77.8387 38.8758V39.4212L70.9305 41.3953Z" fill="white"/>
  <path d="M10.2419 118.806C11.3732 118.806 12.2903 117.889 12.2903 116.758C12.2903 115.627 11.3732 114.71 10.2419 114.71C9.11064 114.71 8.19355 115.627 8.19355 116.758C8.19355 117.889 9.11064 118.806 10.2419 118.806Z" fill="white"/>
  <path d="M110.055 19.9897L106.987 22.7038C117.713 34.8354 117.155 53.3016 105.712 64.7418C94.2693 76.1846 75.8082 76.7454 63.6741 66.017L60.9626 69.0844C67.5507 74.9121 75.7878 77.8003 84.012 77.8003C92.943 77.8003 101.859 74.3897 108.611 67.6377C121.579 54.6689 122.214 33.7395 110.055 19.9897Z" fill="white"/>
  <path d="M62.2582 21.2904C73.7035 9.84762 92.1646 9.28687 104.296 20.0153L107.008 16.9478C93.2605 4.79067 72.3311 5.42566 59.3597 18.3971C46.3883 31.3685 45.7507 52.2953 57.9105 66.0477L60.9779 63.3336C50.2546 51.1969 50.8154 32.7307 62.2582 21.2904Z" fill="white"/>
  <path d="M32.7742 0.0102419H28.6774V4.09677H32.7742V0.0102419Z" fill="white"/>
  <path d="M32.7742 8.19355H28.6774V12.2903H32.7742V8.19355Z" fill="white"/>
  <path d="M36.871 4.09677H32.7742V8.19355H36.871V4.09677Z" fill="white"/>
  <path d="M28.6774 4.09677H24.5806V8.19355H28.6774V4.09677Z" fill="white"/>
  <path d="M8.19355 28.6774H4.09677V32.7742H8.19355V28.6774Z" fill="white"/>
  <path d="M8.19355 36.871H4.09677V40.9677H8.19355V36.871Z" fill="white"/>
  <path d="M12.2903 32.7742H8.19355V36.871H12.2903V32.7742Z" fill="white"/>
  <path d="M4.09677 32.7742H0.0153629V36.871H4.09677V32.7742Z" fill="white"/>
  <path d="M30.7258 57.3548H26.629V61.4516H30.7258V57.3548Z" fill="white"/>
  <path d="M30.7258 65.5484H26.629V69.6452H30.7258V65.5484Z" fill="white"/>
  <path d="M34.8226 61.4516H30.7258V65.5484H34.8226V61.4516Z" fill="white"/>
  <path d="M26.629 61.4516H22.5323V65.5484H26.629V61.4516Z" fill="white"/>
  <path d="M122.903 94.2258H118.806V98.3226H122.903V94.2258Z" fill="white"/>
  <path d="M122.903 102.419H118.806V106.516H122.903V102.419Z" fill="white"/>
  <path d="M127 98.3226H122.903V102.419H127V98.3226Z" fill="white"/>
  <path d="M118.806 98.3226H114.71V102.419H118.806V98.3226Z" fill="white"/>
  <path d="M86.0323 114.71H81.9355V118.806H86.0323V114.71Z" fill="white"/>
  <path d="M86.0323 122.903H81.9355V127H86.0323V122.903Z" fill="white"/>
  <path d="M90.129 118.806H86.0323V122.903H90.129V118.806Z" fill="white"/>
  <path d="M81.9355 118.806H77.8387V122.903H81.9355V118.806Z" fill="white"/>
  <path d="M65.5484 88.0806H61.4516V92.1774H65.5484V88.0806Z" fill="white"/>
  <path d="M65.5484 96.2742H61.4516V100.371H65.5484V96.2742Z" fill="white"/>
  <path d="M69.6452 92.1774H65.5484V96.2742H69.6452V92.1774Z" fill="white"/>
  <path d="M61.4516 92.1774H57.3548V96.2742H61.4516V92.1774Z" fill="white"/>
</svg>
