<svg width="127" height="127" viewBox="0 0 127 127" fill="none" xmlns="http://www.w3.org/2000/svg">
  <path d="M125.475 46.6384C124.525 46.1275 123.344 46.1027 122.369 46.5764L102.023 56.4433V47.9877C102.023 46.4226 100.614 45.1527 98.8766 45.1527H93.7585C100.14 40.4896 104.226 33.3734 104.226 25.4114C104.226 11.3998 91.5724 0 76.0199 0C62.7442 0 51.583 8.30676 48.5986 19.4511C44.6946 15.2072 38.8001 12.4986 32.2173 12.4986C20.4889 12.4986 10.9465 21.0956 10.9465 31.6619C10.9465 36.9203 13.3115 41.6901 17.1301 45.1552H14.2586C12.5213 45.1552 11.1117 46.4251 11.1117 47.9902V60.8584H3.14686C1.40963 60.8584 0 62.1283 0 63.6935V74.8402C0 76.4054 1.40963 77.6753 3.14686 77.6753H11.1117V90.5435C11.1117 92.1086 12.5213 93.3785 14.2586 93.3785H51.3765L34.3208 122.853C33.5168 124.242 34.1143 125.953 35.656 126.678C36.1213 126.896 36.6169 127 37.1069 127C38.2412 127 39.337 126.444 39.8986 125.475L56.5607 96.6775L73.2255 125.475C73.7871 126.444 74.8829 127 76.0172 127C76.5072 127 77.0055 126.896 77.4681 126.678C79.0098 125.953 79.6073 124.242 78.8033 122.853L61.7476 93.3785H98.8683C100.606 93.3785 102.015 92.1086 102.015 90.5435V82.0879L122.361 91.9548C122.826 92.1805 123.341 92.2921 123.853 92.2921C124.412 92.2921 124.971 92.1582 125.466 91.8903C126.416 91.3794 127 90.4542 127 89.4571V49.0717C127.005 48.0721 126.425 47.1494 125.475 46.6384ZM76.0227 5.66764C88.1062 5.66764 97.935 14.5251 97.935 25.4114C97.935 36.2978 88.1035 45.1527 76.0227 45.1527C63.9391 45.1527 54.1104 36.2953 54.1104 25.4114C54.1104 14.5275 63.9391 5.66764 76.0227 5.66764ZM58.2841 45.1527H47.3073C49.3199 43.3271 50.9222 41.137 51.9959 38.7062C53.6754 41.1618 55.8063 43.342 58.2841 45.1527ZM17.243 31.6595C17.243 24.2208 23.9607 18.1662 32.2201 18.1662C40.4795 18.1662 47.1972 24.2184 47.1972 31.6595C47.1972 39.1006 40.4795 45.1527 32.2201 45.1527C23.9634 45.1527 17.243 39.0981 17.243 31.6595ZM6.29645 66.5236H11.1145V72.0027H6.29645V66.5236ZM95.7297 87.7035H56.624C56.6185 87.7035 56.613 87.7035 56.6075 87.7035H56.5249C56.5221 87.7035 56.5166 87.7035 56.5139 87.7035H17.4081V50.8203H95.7297V87.7035ZM120.715 84.7097L102.023 75.6464V62.8799L120.715 53.8166V84.7097Z" fill="white"/>
  <path d="M32.2201 23.0476C26.9506 23.0476 22.6612 26.9096 22.6612 31.6595C22.6612 36.4069 26.9478 40.2713 32.2201 40.2713C37.4896 40.2713 41.779 36.4094 41.779 31.6595C41.779 26.9096 37.4924 23.0476 32.2201 23.0476ZM32.2201 35.1667C30.0726 35.1667 28.3244 33.5917 28.3244 31.657C28.3244 29.7223 30.0726 28.1473 32.2201 28.1473C34.3676 28.1473 36.1158 29.7198 36.1158 31.657C36.1158 33.5942 34.3676 35.1667 32.2201 35.1667Z" fill="white"/>
  <path d="M76.0227 37.7761C83.5911 37.7761 89.7471 32.2275 89.7471 25.4089C89.7471 18.5904 83.5911 13.0418 76.0227 13.0418C68.4543 13.0418 62.2955 18.5904 62.2955 25.4089C62.2955 32.2275 68.4543 37.7761 76.0227 37.7761ZM76.0227 18.7119C80.1221 18.7119 83.4562 21.7157 83.4562 25.4089C83.4562 29.1022 80.1221 32.1059 76.0227 32.1059C71.9232 32.1059 68.5892 29.1022 68.5892 25.4089C68.5892 21.7157 71.9232 18.7119 76.0227 18.7119Z" fill="white"/>
  <path d="M65.8691 59.0651H31.6584C30.0066 59.0651 28.6685 60.2705 28.6685 61.7588V76.77C28.6685 78.2582 30.0066 79.4637 31.6584 79.4637H65.8691C67.521 79.4637 68.859 78.2582 68.859 76.77V61.7588C68.859 60.2705 67.521 59.0651 65.8691 59.0651ZM34.6484 64.45H62.8819V74.0763H34.6484V64.45Z" fill="white"/>
  <path d="M82.3742 61.7563C84.1114 61.7563 85.521 63.0262 85.521 64.5914C85.521 66.1565 84.1114 67.4264 82.3742 67.4264C80.6369 67.4264 79.2273 66.1565 79.2273 64.5914C79.2273 63.0262 80.6369 61.7563 82.3742 61.7563Z" fill="white"/>
  <path d="M82.3742 71.0974C84.1114 71.0974 85.521 72.3673 85.521 73.9324C85.521 75.4976 84.1114 76.7675 82.3742 76.7675C80.6369 76.7675 79.2273 75.4976 79.2273 73.9324C79.2273 72.3673 80.6369 71.0974 82.3742 71.0974Z" fill="white"/>
</svg>
