<svg width="127" height="127" viewBox="0 0 127 127" fill="none" xmlns="http://www.w3.org/2000/svg">
<path d="M63.5 33.0502L78.5798 20.4839H98.3226V0H49.1613V20.4839H63.5V33.0502ZM53.2581 16.3871V4.09677H94.2258V16.3871H77.0976L67.5968 24.3046V16.3871H53.2581Z" fill="white"/>
<path d="M57.3548 8.19355H61.4516V12.2903H57.3548V8.19355Z" fill="white"/>
<path d="M65.5484 8.19355H81.9355V12.2903H65.5484V8.19355Z" fill="white"/>
<path d="M86.0323 8.19355H90.129V12.2903H86.0323V8.19355Z" fill="white"/>
<path d="M104.273 122.903L102.616 106.321C109.456 105.24 114.71 99.3178 114.71 92.1774V65.5484H106.516V62.7178C106.516 59.9333 104.986 57.4329 102.525 56.1506C104.972 53.9032 106.516 50.6896 106.516 47.1129V43.0161C106.516 36.2378 101.004 30.7258 94.2258 30.7258C87.4475 30.7258 81.9355 36.2378 81.9355 43.0161V47.1129C81.9355 52.4159 85.3171 56.9308 90.033 58.6511L79.0389 69.6452H67.5518C67.3227 66.2305 64.9773 63.254 61.6547 62.3038L53.2581 59.9073V56.2486C55.7655 53.9972 57.3548 50.7426 57.3548 47.1129V43.0161C57.3548 36.2378 51.8428 30.7258 45.0645 30.7258C38.2862 30.7258 32.7742 36.2378 32.7742 43.0161V47.1129C32.7742 50.7406 34.3635 53.9952 36.871 56.2486V59.9093L28.4744 62.3058C24.9757 63.303 22.5323 66.5436 22.5323 70.1843V77.8387H14.3387V90.129H18.4355V122.903H0V127H127V122.903H104.273ZM86.0323 90.129V80.7353L100.547 66.2205C101.596 65.1713 102.22 63.762 102.36 62.2918C102.378 62.4348 102.419 62.5698 102.419 62.7178V88.0806C102.419 91.4683 99.6618 94.2258 96.2742 94.2258H79.8871V90.129H86.0323ZM79.8871 106.516H90.3241L91.9624 122.903H79.8871V106.516ZM94.4408 106.516H98.5176L100.156 122.903H96.0792L94.4408 106.516ZM106.516 88.0806V69.6452H110.613V92.1774C110.613 97.8245 106.018 102.419 100.371 102.419H79.8871V98.3226H96.2742C101.921 98.3226 106.516 93.7277 106.516 88.0806ZM86.0323 47.1129V43.0161C86.0323 38.4973 89.7069 34.8226 94.2258 34.8226C98.7447 34.8226 102.419 38.4973 102.419 43.0161V47.1129C102.419 51.6318 98.7447 55.3064 94.2258 55.3064C89.7069 55.3064 86.0323 51.6318 86.0323 47.1129ZM80.7353 73.7419L94.4018 60.0754C94.8299 59.6473 95.422 59.4032 96.0261 59.4032C97.2924 59.4032 98.3226 60.4334 98.3226 61.6997C98.3226 62.3038 98.0785 62.8959 97.6505 63.324L83.1357 77.8387H61.4516C60.3214 77.8387 59.4032 76.9205 59.4032 75.7903C59.4032 74.6601 60.3214 73.7419 61.4516 73.7419H80.7353ZM36.871 43.0161C36.871 38.4973 40.5457 34.8226 45.0645 34.8226C49.5834 34.8226 53.2581 38.4973 53.2581 43.0161V47.1129C53.2581 51.6318 49.5834 55.3064 45.0645 55.3064C40.5457 55.3064 36.871 51.6318 36.871 47.1129V43.0161ZM45.0645 59.4032C46.5028 59.4032 47.877 59.1412 49.1613 58.6861V60.8865C48.6532 61.6707 47.2419 63.5 45.0645 63.5C42.8871 63.5 41.4758 61.6707 40.9677 60.8865V58.6861C42.252 59.1412 43.6262 59.4032 45.0645 59.4032ZM26.629 70.1843C26.629 68.3629 27.8523 66.7446 29.5996 66.2445L38.0382 63.8341C39.2264 65.3824 41.5388 67.5968 45.0645 67.5968C48.5902 67.5968 50.9026 65.3824 52.0908 63.8321L60.5294 66.2425C62.0987 66.6916 63.1929 68.0559 63.412 69.6432H61.4516C58.064 69.6432 55.3064 72.4007 55.3064 75.7883C55.3064 76.5095 55.4535 77.1936 55.6835 77.8367H26.629V70.1843ZM18.4355 81.9355H81.9355V86.0323H18.4355V81.9355ZM22.5323 98.3226H28.6774V94.2258H22.5323V90.129H75.7903V94.2258H32.7742V98.3226H75.7903V122.903H70.9114L66.8146 114.71H31.508L27.4112 122.903H22.5323V98.3226ZM66.3305 122.903H31.992L34.0404 118.806H64.2821L66.3305 122.903Z" fill="white"/>
</svg>
