<svg width="127" height="127" viewBox="0 0 127 127" fill="none" xmlns="http://www.w3.org/2000/svg">
  <path d="M15.7516 108.01C21.593 104.294 26.5762 99.377 30.3713 93.587L42.0963 75.7728C44.284 72.4189 46.199 68.8962 47.8286 65.2372L48.2528 65.6862C49.6145 67.1349 51.4203 68.0925 53.3823 68.4051L78.3504 96.4696L68.2748 113.267L59.5586 108.908L68.2327 94.2369C68.6196 93.582 68.6271 92.7708 68.25 92.1109C67.873 91.4511 67.171 91.0442 66.412 91.0442H47.5781C45.3184 91.0517 43.21 92.1879 41.9574 94.0707L40.6006 96.162C34.846 104.743 27.37 112.029 18.6438 117.558L13.1223 109.677L15.7516 108.01ZM36.2623 46.6713C32.7054 42.851 32.9063 36.8749 36.7138 33.3027C37.5323 32.5411 38.5493 32.0276 39.6481 31.8217L58.2563 28.2618C60.6276 27.8029 63.0833 28.2717 65.1172 29.5716L81.6394 40.0775C84.2414 41.7396 85.8686 44.5652 86.0025 47.6512L86.7318 64.2052C86.9575 69.3825 88.4234 74.4308 91.0006 78.9308L95.9887 87.534L89.8894 91.7959L79.4889 81.3222C80.1487 80.64 80.2727 79.6031 79.794 78.7844L79.0895 77.5738L78.5587 75.7579C77.7724 73.0788 77.3185 70.3127 77.2069 67.5244L76.9762 62.6572C76.9315 61.7294 76.2867 60.938 75.3863 60.7073C74.4834 60.4766 73.5383 60.8611 73.0546 61.6575L68.0714 69.834L62.5401 64.2672C64.7353 60.8041 64.2987 56.2891 61.4834 53.3098L55.5452 46.9616L58.2241 40.6134C58.5118 39.9138 58.4052 39.115 57.9463 38.5172C57.4849 37.9193 56.7408 37.6117 55.9917 37.7109L46.8438 38.9811C46.7422 39.0009 46.6429 39.0307 46.5462 39.0629C46.4817 39.0828 46.4172 39.0927 46.3527 39.1175C46.127 39.2068 45.9162 39.3383 45.7351 39.4995C45.7227 39.5119 45.7053 39.5144 45.6904 39.5268C45.678 39.5392 45.6532 39.5888 45.6284 39.6161C45.4846 39.765 45.363 39.9361 45.2688 40.1197C45.244 40.1718 45.2117 40.2189 45.1894 40.2735C45.1671 40.3281 45.1522 40.3331 45.1398 40.3678C45.0728 40.5662 45.0331 40.7746 45.0257 40.983V41.0624C45.0282 41.2832 45.0629 41.5015 45.1299 41.7099C45.1473 41.7644 45.1671 41.8165 45.1869 41.8711C45.2787 42.1093 45.4126 42.3276 45.5838 42.5186L51.5096 48.8668C51.5096 48.8668 51.5294 48.8792 51.5393 48.8891L53.7866 51.2533L46.9381 58.1001L36.2623 46.6713ZM68.0317 10.2715C69.8326 6.45614 74.5206 4.26565 80.9102 4.26565C87.7587 4.26565 92.2284 7.44099 94.1855 13.6701C94.312 14.268 94.2028 14.8931 93.8853 15.4116C93.5282 16.1136 92.9254 16.6594 92.1912 16.9447C92.0523 16.9794 91.9109 16.9968 91.7695 16.9968H80.4439C79.3301 16.9075 78.2313 17.297 77.4227 18.0685C76.6165 18.84 76.175 19.9216 76.2122 21.0379C76.2097 21.1421 76.1254 21.2264 76.0237 21.2289H70.0508C67.3323 18.2669 66.5484 14.01 68.0317 10.2715ZM81.7858 33.0124C76.9613 33.0794 72.6429 30.033 71.0876 25.4635H76.0237C78.3876 25.4536 80.3273 23.5931 80.4414 21.2314H91.767C91.9928 21.2314 92.216 21.219 92.4393 21.1967C92.593 21.4795 92.6749 21.7995 92.6774 22.122C92.6674 28.1378 87.7934 33.0099 81.7783 33.0149H81.7858V33.0124ZM102.862 105.574L118.253 102.669C118.558 102.612 118.846 102.562 119.119 102.52C120.061 102.379 121.016 102.662 121.733 103.292C122.425 103.902 122.805 104.79 122.765 105.713C122.862 107.132 122.388 108.531 121.443 109.595C120.5 110.659 119.168 111.299 117.75 111.374L102.569 114.237C101.108 114.512 99.6102 114.001 98.6205 112.895L58.5044 67.7998C58.869 67.6435 59.2212 67.4624 59.5611 67.2589L95.2843 103.235C97.2637 105.219 100.096 106.097 102.85 105.576H102.862V105.574ZM92.9155 94.8398L98.1195 91.2005L98.8437 92.4533C99.5085 93.6093 99.6648 94.9861 99.2828 96.2637C98.938 97.4371 98.1566 98.4343 97.1025 99.0496L92.9155 94.8398ZM58.4052 56.1949C60.1911 58.0976 60.1341 61.077 58.2762 62.9102H58.2613C58.2315 62.94 58.1844 62.9896 58.1423 63.0392C58.0083 63.1533 57.8669 63.26 57.7206 63.3592C57.599 63.4485 57.4874 63.5478 57.3609 63.6247C57.2344 63.7016 57.1501 63.7239 57.0533 63.7735C56.8698 63.8752 56.6788 63.9621 56.4828 64.039L56.4208 64.0538C56.138 64.1506 55.8453 64.22 55.5502 64.2647C55.2277 64.3069 54.9003 64.3193 54.5729 64.3019H54.558C53.3327 64.23 52.1842 63.6892 51.3409 62.7961L49.8303 61.1787L56.6689 54.3418L58.4052 56.1949ZM60.9451 122.644C59.6479 122.954 58.2811 122.713 57.1699 121.979C56.9095 121.81 56.6689 121.614 56.4506 121.394C54.9028 119.684 54.6523 117.166 55.833 115.187L56.85 113.46L57.3857 112.557L66.0772 116.903L64.0085 120.352C63.3512 121.508 62.2399 122.336 60.9451 122.644ZM11.7878 121.957C9.57778 123.448 6.57396 122.865 5.08322 120.654C3.59247 118.444 4.17538 115.442 6.38545 113.949L9.56042 111.947L15.0992 119.858L11.7878 121.957ZM2.6251 124.256C2.70695 124.341 2.7888 124.425 2.87314 124.504C3.24769 124.864 3.64952 125.187 4.08111 125.474C4.15056 125.521 4.22252 125.556 4.29197 125.601C4.68636 125.844 5.0981 126.055 5.52226 126.236C5.60908 126.271 5.69094 126.315 5.77775 126.348C6.24903 126.536 6.73768 126.685 7.23377 126.794C7.34043 126.816 7.44459 126.831 7.55621 126.851C8.03493 126.94 8.51864 126.99 9.00729 127H9.13873C9.64722 126.995 10.1557 126.948 10.6543 126.859C10.8006 126.834 10.9445 126.797 11.0933 126.762C11.4803 126.675 11.8573 126.563 12.2269 126.427C12.3757 126.372 12.5245 126.32 12.6709 126.258C13.1719 126.047 13.6531 125.792 14.107 125.492L19.76 121.895C29.4783 115.933 37.7928 107.941 44.1352 98.4641L45.4821 96.3853C45.9484 95.6857 46.7298 95.264 47.5706 95.259H62.6938L52.1917 113.038L52.1793 113.061C49.6244 117.271 50.8076 122.746 54.8755 125.521C56.9566 126.878 59.5015 127.323 61.9175 126.752C64.3334 126.181 66.4095 124.643 67.6646 122.497L81.2922 99.7814L95.4554 115.705C97.0727 117.509 99.382 118.541 101.803 118.541C102.324 118.541 102.842 118.494 103.353 118.397L118.531 115.534C123.44 115.016 127.126 110.808 126.994 105.872C127.081 103.693 126.188 101.59 124.561 100.139C122.911 98.6626 120.686 98.0002 118.499 98.3351C118.176 98.3847 117.836 98.4418 117.474 98.5088L102.071 101.414C101.669 101.483 101.257 101.493 100.853 101.443C103.936 98.5882 104.628 93.9765 102.517 90.3422L94.6716 76.8048C92.4343 72.8952 91.1643 68.5092 90.9659 64.0092L90.2341 47.4528C90.0432 43.2777 87.9521 39.4177 84.5589 36.9766C91.71 35.6345 96.8966 29.3955 96.909 22.1195C96.904 21.1198 96.661 20.1349 96.1971 19.2493C96.7552 18.7135 97.2339 18.0982 97.611 17.421C98.4791 15.9003 98.6974 14.0918 98.2137 12.4099C96.0929 4.7097 88.8749 -0.450224 80.9052 0.0310382C72.819 0.0310382 66.7295 3.10467 64.1896 8.46057C62.0713 13.4791 62.9345 19.2592 66.4269 23.4368C66.4716 24.1735 66.5732 24.9054 66.7295 25.6248C63.9142 24.0297 60.6227 23.4889 57.4452 24.0966L38.837 27.659C36.9519 28.0212 35.2057 28.9093 33.8042 30.2216C28.2952 35.389 28.0049 44.0393 33.1543 49.5664L44.6784 61.8857L44.5321 62.2355C42.8801 66.1476 40.8784 69.8985 38.5542 73.4533L26.8342 91.2601C23.3665 96.549 18.8149 101.042 13.4795 104.438L4.09353 110.384L4.04393 110.416C1.78921 111.895 0.320794 114.311 0.0454659 116.995C-0.224902 119.682 0.720121 122.349 2.6251 124.256Z" fill="white"/>
  <path d="M31.7777 4.26565H55.0541C56.2224 4.26565 57.1699 3.31801 57.1699 2.14959C57.1699 0.981159 56.2224 0.0335189 55.0541 0.0335189H31.7777C30.6094 0.0335189 29.6619 0.981159 29.6619 2.14959C29.6619 3.31801 30.6094 4.26565 31.7777 4.26565Z" fill="white"/>
  <path d="M55.0541 8.49779H44.4726C43.3043 8.49779 42.3568 9.44543 42.3568 10.6139C42.3568 11.7823 43.3043 12.7299 44.4726 12.7299H55.0541C56.2224 12.7299 57.1699 11.7823 57.1699 10.6139C57.1699 9.44543 56.2224 8.49779 55.0541 8.49779Z" fill="white"/>
  <path d="M19.0828 63.5205H33.896C35.0643 63.5205 36.0118 62.5728 36.0118 61.4044C36.0118 60.236 35.0643 59.2859 33.896 59.2859H19.0828C17.9146 59.2859 16.967 60.2335 16.967 61.4044C16.9645 62.5728 17.9121 63.5205 19.0828 63.5205Z" fill="white"/>
  <path d="M33.8935 67.7526H27.5461C26.3778 67.7526 25.4303 68.7003 25.4303 69.8687C25.4303 71.0371 26.3778 71.9847 27.5461 71.9847H33.8935C35.0618 71.9847 36.0093 71.0371 36.0093 69.8687C36.0093 68.7003 35.0618 67.7526 33.8935 67.7526Z" fill="white"/>
</svg>
