<svg width="127" height="127" viewBox="0 0 127 127" fill="none" xmlns="http://www.w3.org/2000/svg">
  <path d="M112.537 28.9198L94.8029 46.6521C94.276 47.179 94.0623 47.9445 94.2462 48.6677L97.7656 62.6075C97.952 63.3481 98.5237 63.9297 99.2619 64.131C100 64.3323 100.788 64.121 101.325 63.5767C102.739 62.2049 104.988 62.2099 106.398 63.5892L109.967 67.1456C111.361 68.5498 111.361 70.8163 109.967 72.218L103.017 79.1469C102.488 79.6738 102.277 80.4417 102.458 81.1674L108.351 104.387C108.394 104.554 108.456 104.713 108.538 104.864C108.575 104.936 112.231 112.089 102.993 122.766L88.701 92.7438C88.2909 91.8739 87.3415 91.3893 86.397 91.5707C83.6058 92.0976 82.3705 91.7447 82.0822 91.4564C81.5329 90.9097 81.3589 88.0392 83.2379 82.6834C83.4243 82.1541 83.392 81.575 83.1509 81.0705L77.0913 68.3584C76.7955 67.7371 76.2164 67.2997 75.5379 67.1829C74.8594 67.0661 74.1659 67.2872 73.6812 67.7744L65.9862 75.4662C65.4493 76.0031 63.1055 77.9167 53.6333 84.6095H34.5149C47.8794 65.3313 50.8669 61.6606 51.5256 61.002L59.2157 53.3126C59.7028 52.8255 59.924 52.1321 59.8072 51.4561C59.6904 50.7776 59.253 50.1986 58.6316 49.9028L45.9183 43.8463C45.4138 43.6027 44.8322 43.5704 44.3052 43.7593C38.9465 45.6381 36.0758 45.4542 35.5314 44.9174C35.2382 44.6241 34.8952 43.3865 35.4146 40.598C35.5911 39.6536 35.1114 38.7067 34.2415 38.2942L4.21427 24.071C14.7353 14.8954 21.8439 18.3127 22.1197 18.4494C22.2714 18.5314 22.4304 18.5935 22.5994 18.6358L45.8214 24.5283C46.5471 24.7097 47.3152 24.4985 47.8421 23.9691L54.7667 17.0278C56.171 15.636 58.4352 15.636 59.8395 17.0278L63.4112 20.6289C64.0848 21.2975 64.4675 22.2071 64.4675 23.1589C64.4675 24.1083 64.0872 25.0204 63.4112 25.6889C62.8694 26.2257 62.6556 27.0161 62.8569 27.7517C63.0582 28.4873 63.6398 29.0614 64.3805 29.2478L78.3216 32.767C79.0449 32.9484 79.8104 32.7371 80.3374 32.2103L98.0714 14.4779C112.216 0.319382 121.522 4.89723 121.897 5.08114C122.104 5.47133 126.682 14.7737 112.537 28.9198ZM69.9232 99.4391V112.151C69.9157 117.999 65.1784 122.736 59.33 122.743H14.8348C8.9889 122.736 4.24907 117.999 4.24162 112.151V99.4391C4.24907 93.5913 8.9889 88.8519 14.8348 88.8469H59.3275C65.1784 88.8543 69.9157 93.5913 69.9232 99.4391ZM123.866 1.33585C122.613 0.687199 111.115 -4.56416 95.0788 11.4633L78.1849 28.3432L68.2256 25.8306C69.272 22.9676 68.5561 19.7616 66.3987 17.6118L62.837 14.0281C59.7774 10.9762 54.8263 10.9762 51.7667 14.0281L45.6872 20.1244L23.8397 14.5798C22.1446 13.8144 13.2267 10.5885 1.41562 20.8874C0.359284 21.8219 -0.155219 23.2211 0.0411344 24.6153C0.237488 26.0095 1.12233 27.2124 2.3949 27.8188L30.9979 41.4455C30.4834 43.722 31.0476 46.1103 32.5265 47.9121C34.6267 50.0122 38.7775 50.0544 44.8694 48.0414L54.0956 52.4378L48.5206 58.0098C46.8404 59.6923 40.3856 68.6517 29.3525 84.612H14.8348C6.64757 84.6219 0.0138031 91.2551 0.00386113 99.4416V112.154C0.0138031 120.34 6.64757 126.973 14.8348 126.983H59.3275C67.5147 126.973 74.1485 120.34 74.1584 112.154V99.4416C74.1485 91.8367 68.3971 85.4694 60.8313 84.689C63.6747 82.7853 66.3963 80.7077 68.9812 78.4684L74.5536 72.899L78.948 82.1243C76.9347 88.2156 76.977 92.3635 79.0797 94.4661C80.8867 95.9423 83.2703 96.5065 85.547 95.9945L99.1674 124.595C99.7714 125.872 100.979 126.762 102.379 126.958C103.778 127.157 105.182 126.635 106.117 125.574C116.407 113.772 113.178 104.857 112.413 103.164L106.867 81.3016L112.967 75.2227C116.019 72.1633 116.019 67.2102 112.967 64.1508L109.398 60.6044C107.233 58.4646 104.037 57.7513 101.166 58.7653L98.6529 48.8068L115.537 31.9244C131.578 15.8796 126.311 4.38775 125.645 3.08299C125.233 2.33741 124.616 1.73349 123.866 1.33585Z" fill="white"/>
  <path d="M27.5481 93.0843H14.8348C13.6666 93.0843 12.7171 94.0336 12.7171 95.2017C12.7171 96.3723 13.6666 97.3192 14.8348 97.3192H19.0725V111.09C19.0725 112.845 17.6484 114.266 15.8936 114.266C14.1388 114.266 12.7171 112.842 12.7171 111.09C12.7171 109.919 11.7677 108.973 10.597 108.973C9.42636 108.973 8.47938 109.922 8.47938 111.09C8.47938 115.186 11.8 118.504 15.8936 118.504C19.9897 118.504 23.3103 115.183 23.3103 111.09V97.3216H27.5481C28.7187 97.3216 29.6657 96.3723 29.6657 95.2042C29.6682 94.0336 28.7187 93.0843 27.5481 93.0843Z" fill="white"/>
  <path d="M42.379 110.031C42.379 112.372 40.4825 114.269 38.1412 114.269C35.8024 114.269 33.9035 112.372 33.9035 110.031V101.559C33.9035 99.2179 35.7999 97.3216 38.1412 97.3216C40.4825 97.3216 42.379 99.2179 42.379 101.559V110.031ZM38.1412 93.0843C33.461 93.0843 29.6657 96.8768 29.6657 101.559V110.031C29.6657 114.711 33.461 118.506 38.1412 118.506C42.8214 118.506 46.6167 114.711 46.6167 110.031V101.559C46.6167 96.8793 42.8214 93.0843 38.1412 93.0843Z" fill="white"/>
  <path d="M61.4477 100.5C61.4477 102.255 60.026 103.676 58.2687 103.676H52.9721V97.3216H58.2687C60.026 97.3216 61.4477 98.7432 61.4477 100.5ZM61.4477 111.092C61.4477 112.847 60.026 114.269 58.2687 114.269H52.9721V107.914H58.2687C60.026 107.914 61.4477 109.338 61.4477 111.092ZM52.9746 93.0843C50.6333 93.0843 48.7369 94.9805 48.7369 97.3216V114.269C48.7369 116.607 50.6333 118.506 52.9746 118.506H58.2712C61.2861 118.511 64.0027 116.687 65.1411 113.893C66.277 111.1 65.6084 107.899 63.446 105.794C65.6084 103.691 66.277 100.488 65.1411 97.6969C64.0052 94.9035 61.2886 93.0793 58.2712 93.0843H52.9746Z" fill="white"/>
  <path d="M98.0887 19.5553L85.3755 32.2674C84.8237 32.7993 84.6025 33.5871 84.7988 34.3277C84.9927 35.0683 85.5718 35.6474 86.3125 35.8412C87.0532 36.0351 87.8411 35.8139 88.373 35.2646L101.086 22.5525C101.889 21.7225 101.879 20.4003 101.059 19.5826C100.241 18.765 98.9189 18.7526 98.0887 19.5553Z" fill="white"/>
  <path d="M107.447 13.193C106.597 12.4102 105.287 12.4102 104.437 13.193C104.245 13.3968 104.094 13.6329 103.992 13.8914C103.766 14.4034 103.766 14.9874 103.992 15.5018C104.101 15.7603 104.25 15.9939 104.437 16.2027C105.272 17.0228 106.609 17.0228 107.447 16.2027C107.633 15.9964 107.782 15.7603 107.892 15.5018C108.118 14.9899 108.118 14.4058 107.892 13.8914C107.787 13.6329 107.638 13.3968 107.447 13.193Z" fill="white"/>
</svg>
